{"glyphs":{"�":{"ha":1389,"x_min":0,"x_max":0,"o":""},"\u0000":{"ha":0,"x_min":0,"x_max":0,"o":"m 0 0 l 0 0 l 0 0 l 0 0 z "},"\u0001":{"ha":0,"x_min":0,"x_max":0,"o":"m 0 0 l 0 0 l 0 0 l 0 0 z "}," ":{"ha":694,"x_min":0,"x_max":0,"o":"m 0 0 l 0 0 l 0 0 l 0 0 z "},"":{"ha":1389,"x_min":142,"x_max":1246,"o":"m 795 787 q 766 715 795 745 q 694 686 736 686 q 623 715 652 686 q 594 787 594 745 q 623 858 594 829 q 694 887 652 887 q 766 858 736 887 q 795 787 795 829 m 694 415 q 811 326 754 358 q 914 293 868 293 q 945 296 930 293 q 971 307 959 300 q 1028 391 1013 331 q 1028 537 1043 450 q 1023 568 1027 552 q 1016 600 1020 583 q 1047 610 1032 605 q 1077 620 1062 614 q 1202 694 1158 651 q 1246 784 1246 736 q 1202 876 1246 833 q 1077 949 1158 918 q 1047 960 1062 955 q 1016 968 1032 964 q 1023 1000 1020 985 q 1028 1032 1027 1016 q 1027 1181 1043 1120 q 970 1265 1012 1241 q 943 1276 958 1272 q 914 1279 929 1279 q 810 1246 867 1279 q 693 1157 753 1214 q 578 1246 635 1214 q 475 1279 521 1279 q 444 1276 458 1279 q 418 1265 430 1272 q 361 1181 376 1241 q 361 1035 346 1122 q 366 1004 362 1020 q 373 972 369 989 q 342 962 357 967 q 312 952 327 958 q 186 878 231 921 q 142 788 142 836 q 186 696 142 739 q 312 623 231 654 q 342 612 327 617 q 373 604 357 608 q 366 572 369 587 q 361 540 362 556 q 361 393 346 453 q 418 311 376 334 q 444 299 430 302 q 475 296 458 296 q 578 326 521 294 q 694 415 635 358 l 694 415 m 633 562 q 664 562 648 562 q 694 562 680 562 q 725 562 709 562 q 755 562 741 562 q 725 524 741 543 q 694 490 709 506 q 664 524 680 506 q 633 562 648 543 l 633 562 m 499 674 q 515 647 507 661 q 532 621 522 633 q 482 628 506 624 q 437 637 458 632 q 452 682 444 659 q 469 727 460 704 q 484 700 476 713 q 499 674 491 686 l 499 674 m 437 936 q 482 944 458 940 q 532 952 506 948 q 515 926 524 939 q 499 898 507 913 q 484 871 491 884 q 469 844 476 859 q 451 890 460 868 q 437 936 442 913 l 437 936 m 496 787 q 517 831 506 808 q 543 875 529 853 q 568 917 555 895 q 595 959 582 939 q 644 962 620 960 q 694 963 669 963 q 745 962 720 963 q 793 959 769 960 q 821 917 808 939 q 846 875 834 895 q 871 831 860 853 q 892 787 883 808 q 871 743 883 765 q 846 699 860 720 q 821 656 834 678 q 793 614 807 635 q 745 612 769 613 q 694 610 720 610 q 644 612 669 610 q 595 614 620 613 q 568 656 581 635 q 543 699 555 678 q 517 743 529 720 q 496 787 506 765 l 496 787 m 920 845 l 891 899 q 875 926 883 913 q 859 952 867 940 q 907 945 883 949 q 954 936 930 941 q 939 891 947 914 q 920 845 930 868 m 920 728 q 939 683 930 705 q 954 637 947 661 q 907 629 930 633 q 859 621 883 625 q 875 648 867 635 q 891 675 883 661 q 905 701 898 688 q 920 728 913 715 m 945 351 q 930 346 939 347 q 914 345 922 345 q 826 374 873 345 q 730 453 779 404 q 776 506 753 477 q 822 567 799 534 q 897 575 860 570 q 967 589 933 581 q 974 560 971 575 q 979 530 977 545 q 981 414 990 461 q 945 351 972 368 l 945 351 m 1001 924 q 1145 861 1093 898 q 1196 787 1196 823 q 1160 724 1196 755 q 1058 669 1124 693 q 1030 659 1044 663 q 1001 650 1016 654 q 978 718 991 684 q 948 787 964 751 q 978 856 964 822 q 1001 924 991 890 l 1001 924 m 914 1229 q 931 1227 924 1229 q 947 1222 939 1226 q 982 1159 972 1206 q 979 1043 991 1112 q 975 1015 978 1029 q 968 985 971 1000 q 897 997 933 991 q 822 1006 861 1002 q 777 1067 800 1039 q 730 1120 754 1096 q 827 1199 779 1169 q 914 1229 875 1229 l 914 1229 m 755 1012 q 725 1012 741 1012 q 694 1012 709 1012 q 664 1012 680 1012 q 633 1012 648 1012 q 664 1049 648 1031 q 694 1084 680 1067 q 725 1048 709 1067 q 755 1012 741 1029 m 444 1222 q 458 1227 450 1226 q 475 1229 467 1229 q 563 1199 515 1229 q 659 1120 610 1169 q 613 1067 636 1096 q 567 1006 590 1039 q 492 998 529 1004 q 422 985 456 993 q 415 1013 418 998 q 410 1043 412 1028 q 408 1159 399 1112 q 444 1222 416 1206 m 388 650 q 244 713 296 675 q 193 787 193 750 q 229 849 193 818 q 331 905 264 880 q 359 915 345 910 q 388 924 373 920 q 411 856 397 890 q 441 787 425 822 q 411 717 425 751 q 388 650 397 682 m 410 530 q 416 559 412 544 q 422 589 419 574 q 492 576 456 582 q 567 567 529 571 q 613 506 590 534 q 659 453 636 477 q 563 374 610 404 q 475 345 515 345 q 459 346 467 345 q 444 351 452 347 q 408 414 416 368 q 410 530 399 461 l 410 530 m 365 84 q 385 130 382 106 q 377 178 387 153 q 347 214 366 202 q 302 227 328 227 q 242 227 273 228 q 182 227 212 227 l 174 227 l 174 -54 l 206 -54 l 206 52 l 258 52 q 266 50 262 52 q 273 45 270 49 l 338 -57 q 340 -60 338 -58 q 345 -62 342 -62 l 387 -62 q 347 -3 366 -31 q 309 56 328 26 q 341 64 327 58 q 365 84 355 71 l 365 84 m 206 85 l 206 193 l 218 193 q 256 193 237 193 q 294 193 275 194 q 330 176 316 191 q 345 138 345 161 q 329 102 345 117 q 290 85 313 87 q 251 85 271 85 q 206 85 231 85 l 206 85 m 627 72 q 570 145 613 129 q 486 144 526 161 q 441 103 456 129 q 426 45 426 77 q 433 -3 425 19 q 460 -42 441 -26 q 508 -66 481 -62 q 562 -65 534 -71 q 591 -55 578 -62 q 616 -35 605 -47 q 608 -24 612 -30 q 600 -14 604 -19 q 551 -39 576 -34 q 498 -31 526 -45 q 471 -4 480 -23 q 460 31 461 15 l 628 31 l 628 46 q 629 60 629 53 q 627 72 628 66 l 627 72 m 463 54 q 480 100 460 79 q 528 122 500 122 q 577 104 559 122 q 595 54 595 87 l 463 54 l 463 54 m 795 149 q 770 152 783 151 q 746 152 758 153 q 709 142 726 151 q 678 118 692 133 q 686 106 682 113 q 694 95 689 100 q 698 98 696 96 q 701 100 700 99 q 729 119 713 113 q 764 122 745 125 q 791 116 779 122 q 807 95 803 110 q 811 72 811 84 q 811 47 811 60 q 808 48 810 47 q 806 50 807 49 q 765 71 787 66 q 719 68 743 75 q 684 47 697 62 q 670 8 671 31 q 679 -35 667 -16 q 712 -62 690 -53 q 741 -68 726 -68 q 770 -65 755 -68 q 789 -56 781 -62 q 814 -41 798 -50 l 814 -56 l 844 -56 q 844 16 844 -23 q 844 91 845 54 q 831 130 844 115 q 795 149 818 144 m 811 12 q 810 7 810 9 q 811 3 811 4 q 806 -22 811 -15 q 784 -37 800 -30 q 760 -42 772 -41 q 735 -39 747 -43 q 713 -24 722 -35 q 704 1 704 -12 q 712 27 704 15 q 734 43 720 39 q 770 47 753 50 q 802 31 787 43 q 810 23 807 27 q 811 12 812 19 l 811 12 m 979 119 q 1020 121 1001 126 q 1054 99 1039 117 l 1057 96 q 1067 106 1062 102 q 1080 117 1073 111 q 1076 121 1077 119 q 1073 126 1074 123 q 1010 154 1050 151 q 941 137 970 157 q 899 60 902 107 q 916 -19 897 12 q 961 -58 935 -47 q 1019 -64 987 -68 q 1053 -52 1038 -61 q 1081 -28 1069 -43 q 1069 -18 1076 -23 q 1058 -8 1063 -14 q 1055 -10 1057 -9 q 1054 -14 1054 -11 q 1000 -36 1032 -38 q 949 -8 968 -34 q 935 26 939 8 q 936 61 932 43 q 948 97 937 81 q 979 119 959 113 m 1206 -28 q 1203 -29 1204 -28 q 1202 -30 1202 -30 q 1190 -36 1196 -35 q 1175 -35 1183 -37 q 1166 -25 1168 -31 q 1164 -14 1164 -19 l 1164 111 q 1164 112 1164 113 q 1164 119 1164 111 l 1206 119 l 1206 152 l 1162 152 l 1162 206 l 1130 206 l 1130 148 l 1101 148 q 1098 146 1100 148 q 1096 144 1096 145 q 1095 132 1095 137 q 1096 119 1096 127 l 1131 119 l 1131 -19 q 1135 -43 1131 -33 q 1150 -61 1139 -54 q 1182 -66 1162 -68 q 1213 -57 1202 -65 q 1215 -53 1214 -56 q 1215 -50 1215 -50 q 1211 -39 1213 -45 q 1206 -28 1208 -34 l 1206 -28 z "},"":{"ha":1389,"x_min":15,"x_max":1374,"o":"m 818 608 q 782 520 818 556 q 694 484 746 484 q 607 520 643 484 q 571 608 571 556 q 607 695 571 659 q 694 731 643 731 q 782 695 746 731 q 818 608 818 659 m 1164 811 q 1128 825 1146 818 q 1089 837 1109 831 q 1099 876 1095 856 q 1105 914 1103 895 q 1105 1095 1123 1021 q 1034 1196 1086 1168 q 1002 1210 1019 1206 q 964 1214 985 1214 q 838 1174 907 1214 q 694 1063 768 1134 q 551 1174 621 1134 q 425 1214 481 1214 q 387 1210 404 1214 q 355 1196 370 1206 q 284 1093 302 1166 q 283 914 266 1020 q 290 876 286 895 q 300 837 294 856 q 261 825 279 831 q 225 811 243 819 q 69 720 123 773 q 15 608 15 667 q 69 495 15 548 q 225 404 123 442 q 261 391 243 397 q 300 378 279 384 q 290 340 294 359 q 283 301 286 320 q 284 121 266 194 q 355 19 302 47 q 387 5 370 9 q 425 1 404 1 q 552 41 481 1 q 694 152 623 81 q 838 41 768 81 q 964 1 907 1 q 1002 5 985 1 q 1034 19 1019 9 q 1105 122 1086 49 q 1105 301 1123 195 q 1099 340 1103 320 q 1089 378 1095 359 q 1128 390 1109 384 q 1164 404 1146 396 q 1320 495 1265 442 q 1374 608 1374 548 q 1320 720 1374 667 q 1164 811 1265 773 m 1004 1142 q 1048 1065 1038 1123 q 1044 922 1059 1008 q 1039 887 1043 905 q 1029 850 1035 869 q 943 867 987 860 q 850 878 898 873 q 795 952 823 917 q 738 1019 766 987 q 857 1116 798 1078 q 966 1153 916 1153 q 986 1150 977 1153 q 1004 1142 996 1147 l 1004 1142 m 882 499 q 851 447 868 473 q 817 395 834 420 q 755 391 785 392 q 694 391 726 391 q 633 391 663 391 q 572 395 602 392 q 538 447 555 420 q 507 499 522 473 q 478 553 492 526 q 450 608 464 581 q 478 662 464 635 q 507 716 492 689 q 539 768 522 742 q 574 821 556 795 q 634 824 604 823 q 696 825 665 825 q 758 824 727 825 q 817 821 788 823 q 852 768 836 795 q 882 716 868 742 q 912 662 898 689 q 940 608 926 635 q 912 553 926 581 q 882 499 898 526 m 972 534 q 995 478 985 506 q 1013 423 1005 450 q 957 412 986 416 q 897 403 928 407 q 916 434 906 418 q 936 468 926 450 q 954 501 945 484 q 972 534 963 518 m 694 241 q 656 285 675 262 q 620 331 637 308 q 657 329 639 330 q 694 328 675 328 q 732 329 713 328 q 769 331 750 330 q 732 285 751 308 q 694 241 713 262 m 492 404 q 432 413 461 408 q 376 425 403 418 q 394 479 384 452 q 416 536 404 507 q 435 503 426 519 q 453 469 444 486 q 473 436 464 452 q 492 404 483 420 l 492 404 m 416 681 q 394 737 404 709 q 376 792 384 765 q 432 804 403 799 q 492 812 461 808 q 473 781 483 798 q 453 747 463 765 q 435 714 444 731 q 416 681 426 697 l 416 681 m 694 974 q 732 930 713 954 q 769 884 751 907 q 732 886 750 886 q 694 887 713 887 q 657 886 675 887 q 620 884 639 886 q 656 930 637 907 q 694 974 675 954 m 936 746 l 897 811 q 957 802 928 807 q 1013 791 986 798 q 995 736 1005 764 q 972 680 985 708 q 954 713 963 696 q 936 746 945 730 m 345 922 q 340 1065 330 1008 q 385 1142 351 1123 q 403 1150 393 1147 q 423 1153 412 1153 q 531 1116 472 1153 q 651 1019 590 1080 q 594 952 623 987 q 538 878 566 917 q 446 867 491 873 q 359 850 401 860 q 351 887 354 869 q 345 922 347 905 l 345 922 m 76 608 q 121 684 76 646 q 247 753 165 723 q 281 765 263 760 q 316 776 298 770 q 345 692 328 735 q 381 606 361 650 q 345 521 361 563 q 316 438 328 479 q 140 516 203 471 q 76 608 76 562 l 76 608 m 385 73 q 340 150 351 92 q 345 293 330 208 q 350 328 346 311 q 359 365 354 346 q 446 349 401 355 q 538 338 491 342 q 594 263 566 298 q 651 197 623 228 q 532 100 591 137 q 423 62 473 62 q 403 65 412 62 q 385 73 393 68 m 1044 293 q 1048 150 1059 208 q 1004 73 1038 92 q 986 65 996 68 q 966 62 977 62 q 858 99 917 62 q 738 197 799 136 q 795 263 766 228 q 850 338 823 298 q 943 349 898 342 q 1029 365 987 355 q 1038 328 1035 346 q 1044 293 1042 311 l 1044 293 m 1142 463 q 1108 450 1126 456 q 1073 439 1090 445 q 1044 523 1061 480 q 1008 609 1028 566 q 1044 694 1028 652 q 1073 777 1061 736 q 1249 699 1185 745 q 1313 608 1313 654 q 1268 531 1313 570 q 1142 463 1223 492 z "},"":{"ha":1389,"x_min":52,"x_max":1340,"o":"m 880 194 q 814 168 840 194 q 789 100 789 141 q 814 35 789 62 q 880 8 840 8 q 945 35 920 8 q 970 100 970 62 q 945 168 970 141 q 880 194 921 194 m 880 35 q 838 56 850 35 q 825 100 825 77 q 840 146 825 126 q 880 167 854 167 q 921 146 906 167 q 936 100 936 126 q 922 56 936 77 q 880 35 909 35 m 705 203 l 705 195 l 662 195 l 662 176 q 667 168 662 171 q 677 164 671 164 l 705 164 l 705 12 l 723 12 q 733 17 728 12 q 738 26 738 22 l 738 163 l 770 163 q 779 168 776 163 q 781 178 781 172 l 781 195 l 738 195 l 738 208 q 743 237 738 225 q 769 250 749 250 l 770 250 q 781 253 776 248 q 785 263 785 258 l 787 274 q 777 276 781 275 q 765 277 772 277 q 717 256 728 275 q 705 203 705 236 l 705 203 m 349 193 l 349 193 q 338 189 343 193 q 332 180 334 184 l 286 43 l 285 43 l 241 179 q 234 189 239 184 q 225 193 229 193 l 225 195 l 202 195 l 263 27 q 267 16 264 23 q 269 7 269 9 q 260 -17 269 4 q 231 -38 252 -38 l 228 -38 q 218 -41 222 -38 q 214 -52 214 -45 l 213 -62 q 222 -64 217 -64 q 236 -65 228 -65 q 281 -40 269 -65 q 304 11 294 -15 l 369 195 l 349 195 l 349 193 l 349 193 m 140 155 q 101 174 119 164 q 83 205 83 184 q 99 234 83 227 q 130 241 115 241 q 142 241 137 241 q 155 240 148 240 q 164 243 160 239 q 170 252 168 247 l 171 263 q 150 267 160 266 q 130 269 140 269 q 74 252 96 269 q 52 202 52 235 q 68 159 52 174 q 104 136 84 145 q 143 115 125 126 q 161 80 161 104 q 143 45 161 56 q 107 35 125 35 q 87 37 98 35 q 69 41 77 39 q 60 38 64 42 q 56 27 56 34 l 54 19 q 79 12 66 15 q 103 9 91 9 q 168 26 141 9 q 194 83 194 42 q 177 129 194 114 q 140 155 160 144 l 140 155 m 589 194 q 559 186 576 194 q 534 160 543 179 q 512 185 526 178 q 483 193 498 193 q 450 186 464 193 q 426 163 435 179 l 423 163 l 423 176 q 419 187 423 182 q 410 193 415 193 l 410 195 l 391 195 l 391 11 l 412 11 q 422 16 419 11 q 426 26 426 20 l 423 27 l 423 100 q 436 146 423 126 q 475 167 449 167 q 502 151 494 167 q 510 117 510 134 l 510 9 l 524 9 q 536 14 530 9 q 543 24 543 19 l 543 100 q 553 146 543 126 q 589 167 563 167 q 613 151 608 167 q 618 117 618 134 l 618 9 l 636 9 q 646 14 642 9 q 651 23 651 18 l 651 125 q 637 174 651 155 q 589 194 624 194 m 1093 195 q 1057 187 1074 195 q 1034 163 1040 179 l 1031 163 l 1031 176 q 1027 187 1031 182 q 1016 193 1023 193 l 1016 195 l 998 195 l 998 11 l 1017 11 q 1027 16 1024 11 q 1031 26 1031 20 l 1031 95 q 1045 148 1031 127 q 1088 168 1059 168 q 1119 151 1109 167 q 1128 106 1128 136 l 1128 12 l 1142 12 q 1155 17 1149 12 q 1161 27 1161 22 l 1161 118 q 1144 175 1161 155 q 1093 195 1127 195 l 1093 195 m 1320 195 l 1320 193 q 1310 189 1314 193 q 1303 180 1305 184 l 1257 43 l 1256 43 l 1213 179 q 1205 189 1210 184 q 1196 193 1200 193 l 1196 195 l 1173 195 l 1234 27 q 1238 16 1236 23 q 1240 7 1240 9 q 1232 -17 1240 4 q 1202 -38 1223 -38 l 1199 -38 q 1190 -41 1194 -38 q 1185 -52 1185 -45 l 1184 -62 q 1194 -64 1188 -64 q 1207 -65 1199 -65 q 1253 -40 1240 -65 q 1275 11 1265 -15 l 1340 195 l 1320 195 l 1320 195 m 694 323 q 883 361 795 323 q 1037 465 971 400 q 1141 618 1103 530 q 1179 807 1179 707 q 1141 996 1179 907 q 1037 1149 1103 1084 q 883 1253 971 1215 q 694 1291 795 1291 q 506 1253 594 1291 q 352 1149 418 1215 q 248 996 286 1084 q 210 807 210 907 q 248 618 210 707 q 352 465 286 530 q 506 361 418 400 q 694 323 594 323 l 694 323 m 373 773 q 391 795 378 791 q 419 795 404 799 q 439 776 434 791 q 441 746 445 761 q 439 743 439 745 q 437 736 438 741 l 429 722 q 437 703 426 711 q 458 692 448 696 q 502 695 481 685 q 528 724 522 705 q 526 755 533 743 q 513 770 518 766 l 484 802 q 458 842 473 814 q 454 907 444 871 q 467 935 458 921 q 490 958 476 948 q 546 983 517 978 q 602 979 575 987 q 660 947 639 968 q 704 909 681 926 q 735 981 718 945 q 780 1048 753 1017 q 836 1095 804 1077 q 903 1115 867 1112 q 965 1100 940 1115 q 991 1059 990 1085 q 984 1031 991 1047 q 954 1013 977 1015 q 926 1022 937 1013 q 914 1046 916 1031 q 916 1057 914 1051 q 921 1067 918 1062 q 926 1078 925 1076 q 926 1082 928 1080 q 916 1095 926 1093 q 902 1096 906 1096 q 827 1035 848 1095 q 795 916 806 975 l 787 873 q 840 873 818 868 q 875 886 863 878 q 880 908 891 897 q 871 933 869 920 q 884 953 875 947 q 903 959 894 959 q 926 947 917 959 q 935 922 935 936 q 903 874 933 899 q 811 850 872 849 q 796 851 803 850 q 783 853 789 852 l 770 768 q 741 657 760 719 q 673 537 722 595 q 591 473 631 487 q 533 458 552 458 q 474 475 496 458 q 452 518 452 491 q 467 555 450 543 q 499 570 484 568 q 530 559 518 571 q 544 530 543 547 q 538 511 544 517 q 529 503 533 506 q 522 498 525 500 q 518 490 518 495 q 522 483 518 487 q 533 480 525 479 q 558 486 548 480 q 576 496 568 492 q 629 581 612 526 q 665 728 647 635 l 670 758 q 684 821 677 788 q 701 888 692 854 q 656 927 677 907 q 604 956 636 947 q 566 958 581 963 q 541 941 551 954 q 532 909 530 926 q 545 882 534 892 l 571 854 q 605 805 594 827 q 610 755 616 783 q 557 684 604 711 q 449 677 511 658 q 381 722 396 690 q 373 773 366 753 l 373 773 z "},"":{"ha":1389,"x_min":19,"x_max":1370,"o":"m 414 461 l 290 408 l 404 359 l 537 408 l 414 461 m 228 395 l 224 156 l 404 76 l 404 324 l 228 395 l 228 395 m 600 395 l 435 332 l 435 99 l 600 165 l 600 395 l 600 395 m 795 1139 l 670 1086 l 785 1036 l 918 1086 l 795 1139 m 621 1069 l 621 829 l 776 784 l 781 1002 l 621 1069 m 967 1055 l 821 993 l 821 758 l 967 825 l 967 1055 m 209 803 l 85 749 l 201 700 l 334 749 l 209 803 l 209 803 m 23 736 l 19 496 l 201 418 l 201 666 l 23 736 l 23 736 m 396 736 l 232 674 l 232 439 l 396 506 l 396 736 m 608 811 l 484 758 l 600 709 l 731 758 l 608 811 m 422 745 l 418 506 l 600 426 l 600 674 l 422 745 l 422 745 m 793 745 l 631 682 l 631 449 l 793 515 l 793 745 m 1184 1139 l 1059 1086 l 1175 1036 l 1308 1086 l 1184 1139 m 998 1073 l 993 833 l 1175 754 l 1175 1002 l 998 1073 m 1370 1073 l 1206 1010 l 1206 776 l 1370 842 l 1370 1073 l 1370 1073 z "},"":{"ha":1389,"x_min":19,"x_max":1370,"o":"m 484 680 q 443 670 463 680 q 418 633 423 661 q 419 629 418 631 q 422 627 420 628 l 452 624 q 454 625 453 624 q 456 629 456 627 q 465 643 458 639 q 480 647 472 647 q 489 646 484 647 q 496 640 494 644 q 500 629 499 635 q 500 617 500 623 l 500 613 q 472 610 487 612 q 445 604 457 609 q 422 585 431 597 q 414 553 414 572 q 426 517 414 529 q 457 506 438 506 q 484 511 473 506 q 506 528 494 515 q 513 518 510 522 q 524 507 515 514 q 527 507 525 507 q 530 509 529 507 l 530 509 q 541 519 534 513 q 553 529 548 525 q 555 532 555 530 q 553 537 555 534 q 545 549 549 543 q 541 564 541 555 l 541 612 q 541 641 541 628 q 529 665 540 654 q 508 676 521 673 q 484 680 495 680 l 484 680 m 872 680 q 831 670 852 680 q 807 633 811 661 q 807 629 806 631 q 811 627 808 628 l 840 624 q 842 625 841 624 q 845 629 844 627 q 853 643 846 639 q 868 647 860 647 q 878 646 873 647 q 884 640 882 644 q 888 629 888 635 q 888 617 888 623 l 888 613 q 861 610 876 612 q 833 604 845 609 q 810 585 819 597 q 802 553 802 572 q 814 517 802 529 q 845 506 827 506 q 872 511 861 506 q 895 528 883 515 q 902 518 899 522 q 911 507 905 514 q 915 507 913 507 q 918 509 917 507 l 918 509 q 930 519 922 513 q 941 529 937 525 q 943 532 943 530 q 941 537 943 534 q 934 549 937 543 q 930 564 930 555 l 930 612 q 929 641 930 628 q 917 665 928 654 q 896 676 909 673 q 872 680 883 680 m 654 678 q 631 671 640 678 q 616 650 621 665 l 614 650 l 614 670 q 613 673 614 671 q 609 675 612 675 l 582 675 q 578 673 579 675 q 576 669 576 671 l 576 513 q 578 510 576 511 q 582 507 579 509 l 612 507 q 615 509 613 507 q 617 514 617 511 l 617 597 q 619 625 617 610 q 637 639 621 639 q 654 624 652 639 q 655 597 655 609 l 655 514 q 656 510 655 511 q 661 507 658 509 l 690 507 q 694 509 693 507 q 696 514 696 511 l 696 597 q 696 612 696 604 q 699 627 697 620 q 706 635 701 632 q 716 639 711 639 q 728 636 723 639 q 734 625 732 633 q 735 611 735 621 q 735 597 735 601 l 735 514 q 736 510 735 511 q 741 507 738 509 l 770 507 q 774 509 772 507 q 776 514 776 511 l 776 612 q 775 638 776 625 q 768 661 774 651 q 753 674 762 670 q 734 678 743 678 q 709 671 720 678 q 693 650 699 665 q 677 671 686 665 q 654 678 669 678 l 654 678 m 1158 678 q 1109 653 1126 678 q 1092 591 1092 628 q 1109 530 1092 556 q 1158 505 1126 505 q 1208 530 1190 505 q 1226 590 1226 555 q 1208 652 1226 627 q 1158 678 1191 678 l 1158 678 m 1328 678 q 1303 670 1312 678 q 1287 647 1294 662 l 1287 647 l 1287 670 q 1284 673 1286 673 q 1282 674 1283 674 l 1255 674 q 1250 673 1252 674 q 1248 670 1248 671 l 1248 514 q 1250 510 1248 511 q 1253 507 1252 509 l 1283 507 q 1287 509 1286 507 q 1289 514 1289 511 l 1289 598 q 1290 612 1289 605 q 1294 627 1291 620 q 1301 637 1297 633 q 1310 640 1305 640 q 1328 625 1326 640 q 1329 598 1329 610 l 1329 513 q 1331 510 1329 511 q 1335 507 1332 509 l 1364 507 q 1368 509 1366 507 q 1370 513 1370 511 l 1370 612 q 1369 636 1370 623 q 1362 659 1369 650 q 1347 674 1356 670 q 1328 678 1337 678 l 1328 678 m 971 675 q 968 674 970 675 q 966 670 966 673 l 966 647 q 968 643 966 644 q 971 642 970 642 l 1023 642 l 964 556 q 961 547 962 552 q 960 540 960 543 l 960 518 q 962 513 960 515 q 967 513 964 511 q 1020 526 993 526 q 1070 513 1047 525 q 1075 513 1073 511 q 1077 518 1077 515 l 1077 541 q 1076 546 1077 544 q 1072 551 1076 548 q 1045 560 1059 557 q 1017 563 1031 563 l 1067 636 q 1072 645 1070 642 q 1074 651 1074 648 l 1074 670 q 1073 674 1074 673 q 1069 675 1072 675 l 971 675 l 971 675 m 1158 646 q 1171 642 1165 646 q 1179 631 1176 639 q 1182 610 1181 621 q 1183 590 1183 600 q 1179 556 1183 575 q 1158 537 1176 537 q 1138 559 1141 537 q 1135 597 1135 582 q 1139 629 1135 612 q 1158 646 1142 646 l 1158 646 m 500 589 l 500 583 q 500 566 500 574 q 495 551 499 559 q 486 540 491 544 q 475 536 480 536 q 460 543 465 536 q 456 559 456 549 q 470 583 456 578 q 500 589 484 589 l 500 589 m 888 589 l 888 583 q 888 566 888 574 q 883 551 887 559 q 874 540 879 544 q 863 536 869 536 q 850 543 854 536 q 845 559 845 549 q 859 583 845 578 q 888 589 872 589 l 888 589 m 1081 503 l 1081 480 l 1096 480 l 1096 503 l 1081 503 m 646 499 l 646 340 l 659 340 l 659 354 q 663 347 661 350 q 669 342 666 343 q 676 338 673 339 q 684 338 680 338 q 697 341 690 338 q 709 353 704 345 q 718 372 715 361 q 722 399 722 384 q 720 416 722 408 q 716 431 719 425 q 710 443 713 438 q 703 450 707 448 q 694 456 699 454 q 684 458 689 458 q 676 457 680 458 q 670 454 673 456 q 665 449 667 452 q 661 442 662 446 l 661 499 l 646 499 l 646 499 m 788 461 q 774 459 780 461 q 762 453 768 457 q 756 441 758 448 q 754 429 754 435 q 755 420 754 425 q 757 414 755 416 q 762 407 760 410 q 766 403 764 404 q 775 398 769 400 q 791 393 781 396 q 800 389 796 391 q 806 387 803 388 q 808 382 807 384 q 810 376 810 380 q 808 368 810 372 q 804 362 807 365 q 798 359 802 359 q 789 358 795 358 q 781 359 784 358 q 773 363 777 361 q 769 371 770 366 q 766 381 768 376 l 751 378 q 764 351 754 359 q 788 342 773 342 q 804 344 798 342 q 815 351 810 346 q 823 363 821 357 q 825 378 825 370 q 824 387 825 382 q 822 393 823 391 q 819 399 821 397 q 814 404 817 401 q 805 408 811 406 q 789 414 799 411 q 779 418 783 416 q 773 420 774 419 q 770 425 770 423 q 769 431 769 427 q 770 437 769 434 q 773 442 770 439 q 779 445 776 444 q 788 446 783 446 q 801 441 796 446 q 807 427 806 437 l 822 430 q 819 440 821 435 q 817 448 818 445 q 811 453 814 450 q 804 458 808 456 q 797 460 802 460 q 788 461 792 461 l 788 461 m 879 461 q 863 458 871 461 q 849 446 856 454 q 841 427 844 438 q 838 400 838 415 q 841 375 838 387 q 849 357 844 363 q 863 345 856 349 q 880 342 871 342 q 893 344 887 342 q 905 351 899 346 q 913 362 910 355 q 920 378 917 369 l 903 381 q 895 363 901 369 q 880 358 888 358 q 870 360 875 358 q 861 368 865 362 q 856 379 859 372 q 853 396 853 387 l 920 396 l 920 401 q 917 427 920 416 q 907 446 914 438 q 895 458 902 454 q 879 461 888 461 l 879 461 m 971 461 q 966 460 968 461 q 962 458 963 460 q 957 452 959 456 q 952 442 955 448 l 952 460 l 939 460 l 939 345 l 954 345 l 954 404 q 954 417 954 411 q 956 429 955 423 q 958 434 956 431 q 962 438 960 437 q 966 441 963 439 q 970 442 968 442 q 975 441 972 442 q 981 437 978 439 l 986 456 q 979 460 982 458 q 971 461 975 461 l 971 461 m 1156 461 q 1139 458 1146 461 q 1126 446 1131 454 q 1117 428 1120 439 q 1114 401 1114 416 q 1117 375 1114 387 q 1126 357 1120 363 q 1139 345 1131 349 q 1154 342 1146 342 q 1167 345 1161 342 q 1179 353 1173 347 q 1187 366 1184 358 q 1192 384 1191 373 l 1177 387 q 1174 373 1176 378 q 1169 365 1172 368 q 1162 359 1166 361 q 1154 358 1158 358 q 1144 360 1149 358 q 1137 368 1139 362 q 1131 382 1133 373 q 1130 401 1130 391 q 1131 422 1130 414 q 1137 435 1133 430 q 1145 444 1141 441 q 1156 446 1150 446 q 1162 445 1160 446 q 1168 439 1165 444 q 1173 433 1171 437 q 1176 422 1175 429 l 1190 426 q 1185 441 1188 434 q 1179 453 1183 448 q 1168 459 1173 457 q 1156 461 1162 461 l 1156 461 m 1241 461 q 1224 458 1232 461 q 1211 446 1217 454 q 1202 427 1204 438 q 1199 400 1199 415 q 1202 375 1199 387 q 1211 357 1204 363 q 1224 345 1217 349 q 1241 342 1232 342 q 1255 344 1249 342 q 1267 351 1261 346 q 1275 362 1271 355 q 1280 378 1279 369 l 1265 381 q 1256 363 1261 369 q 1241 358 1251 358 q 1232 360 1236 358 q 1223 368 1227 362 q 1217 379 1219 372 q 1215 396 1215 387 l 1280 396 l 1280 401 q 1278 427 1280 416 q 1270 446 1275 438 q 1257 458 1264 454 q 1241 461 1249 461 m 1329 461 q 1316 459 1322 461 q 1305 453 1310 457 q 1299 441 1301 448 q 1297 429 1297 435 q 1297 420 1297 425 q 1299 414 1298 416 q 1303 407 1301 410 q 1309 403 1306 404 q 1318 398 1312 400 q 1332 393 1324 396 q 1342 389 1339 391 q 1348 387 1345 388 q 1351 382 1350 384 q 1352 376 1352 380 q 1351 368 1352 372 q 1347 362 1350 365 q 1341 359 1344 359 q 1332 358 1337 358 q 1322 359 1326 358 q 1316 363 1318 361 q 1311 371 1313 366 q 1309 381 1309 376 l 1294 378 q 1305 351 1297 359 q 1331 342 1314 342 q 1345 344 1339 342 q 1358 351 1352 346 q 1365 363 1363 357 q 1367 378 1367 370 q 1367 387 1367 382 q 1364 393 1366 391 q 1361 399 1363 397 q 1356 404 1359 401 q 1348 408 1354 406 q 1332 414 1341 411 q 1321 418 1325 416 q 1316 420 1317 419 q 1312 425 1313 423 q 1310 431 1310 427 q 1312 437 1310 434 q 1316 442 1313 439 q 1322 445 1318 444 q 1331 446 1325 446 q 1343 441 1339 446 q 1350 427 1348 437 l 1364 430 q 1362 440 1363 435 q 1359 448 1360 445 q 1354 453 1356 450 q 1347 458 1351 456 q 1339 460 1344 460 q 1329 461 1335 461 m 986 460 l 1020 345 l 1034 345 l 1067 460 l 1053 460 l 1032 389 q 1029 377 1031 382 q 1027 366 1028 372 q 1024 379 1025 373 q 1021 391 1023 385 l 1002 460 l 986 460 m 1081 460 l 1081 345 l 1096 345 l 1096 460 l 1081 460 m 587 458 q 570 454 578 458 q 557 442 563 450 q 549 422 552 434 q 545 396 545 411 q 548 372 545 382 q 557 353 551 361 q 570 341 563 345 q 587 338 578 338 q 602 340 595 338 q 612 347 608 342 q 621 358 617 351 q 627 374 624 365 l 612 377 q 602 359 608 365 q 587 354 595 354 q 578 356 582 354 q 570 363 574 358 q 564 375 566 368 q 562 392 562 382 l 627 392 l 627 397 q 624 423 627 412 q 616 442 621 434 q 602 454 609 450 q 587 458 595 458 l 587 458 m 418 456 l 445 340 l 460 340 l 479 429 l 481 408 l 495 340 l 511 340 l 538 456 l 524 456 l 509 388 l 505 366 l 499 388 l 486 456 l 471 456 l 457 388 l 452 363 l 448 388 l 433 456 l 418 456 l 418 456 m 879 446 q 889 444 884 446 q 898 435 894 441 q 902 426 901 431 q 903 412 903 420 l 854 412 q 857 427 854 420 q 863 437 859 433 q 869 444 865 441 q 879 446 873 446 l 879 446 m 1241 446 q 1251 444 1246 446 q 1259 435 1256 441 q 1263 426 1261 431 q 1265 412 1264 420 l 1215 412 q 1217 427 1215 420 q 1223 437 1219 433 q 1232 444 1227 441 q 1241 446 1236 446 l 1241 446 m 587 442 q 597 439 593 442 q 605 431 601 437 q 609 422 608 427 q 612 408 610 416 l 562 408 q 565 422 563 416 q 570 433 567 429 q 578 439 574 437 q 587 442 582 442 m 682 442 q 692 439 688 442 q 700 431 696 437 q 704 418 703 426 q 705 397 705 410 q 704 378 705 387 q 699 365 703 370 q 691 357 696 359 q 682 354 686 354 q 676 355 680 354 q 670 358 673 355 q 665 364 667 361 q 662 372 663 368 q 659 382 661 376 q 658 399 658 389 q 660 417 658 410 q 666 430 662 425 q 674 439 670 435 q 682 442 678 442 l 682 442 m 202 564 l 144 538 l 198 517 l 259 538 l 202 564 l 202 564 m 115 533 l 114 422 l 198 385 l 198 500 l 115 533 m 288 533 l 212 505 l 212 396 l 288 426 l 288 533 m 378 878 l 321 853 l 374 830 l 435 853 l 378 878 m 298 845 l 298 734 l 370 713 l 373 815 l 298 845 l 298 845 m 458 840 l 391 810 l 391 701 l 458 732 l 458 840 l 458 840 m 107 722 l 50 697 l 103 674 l 164 697 l 107 722 m 20 692 l 19 581 l 103 543 l 103 658 l 20 692 l 20 692 m 194 692 l 118 662 l 118 553 l 194 585 l 194 692 m 292 726 l 235 701 l 288 678 l 350 701 l 292 726 m 206 696 l 203 585 l 288 547 l 288 662 l 206 696 m 378 696 l 302 666 l 302 557 l 378 589 l 378 696 l 378 696 m 559 878 l 502 853 l 555 830 l 617 853 l 559 878 m 473 848 l 471 736 l 555 700 l 555 815 l 473 848 l 473 848 m 646 848 l 570 818 l 570 709 l 646 741 l 646 848 l 646 848 z "},"":{"ha":1389,"x_min":24,"x_max":1364,"o":"m 694 1278 q 434 1225 556 1278 q 221 1081 312 1172 q 77 868 130 990 q 24 608 24 746 q 77 347 24 469 q 221 134 130 225 q 434 -9 312 43 q 694 -62 556 -62 q 955 -9 833 -62 q 1168 134 1077 43 q 1312 347 1259 225 q 1364 608 1364 469 q 1312 868 1364 746 q 1168 1081 1259 990 q 955 1225 1077 1172 q 694 1278 833 1278 m 1055 890 q 1018 901 1032 888 q 1002 936 1004 914 q 1004 951 1002 944 q 1012 966 1006 958 q 1019 979 1017 975 q 1021 986 1021 982 q 1006 1002 1020 1000 q 986 1005 991 1005 q 882 920 910 1002 q 838 755 854 838 l 827 697 q 901 696 869 690 q 948 713 932 703 q 957 745 972 728 q 944 779 941 761 q 962 806 948 798 q 989 817 975 815 q 1019 800 1008 817 q 1029 765 1031 784 q 987 699 1029 734 q 859 666 944 663 q 838 667 848 666 q 821 669 829 667 l 799 551 q 758 397 784 483 q 663 232 731 312 q 551 144 605 163 q 469 123 496 125 q 390 146 420 122 q 358 203 359 170 q 380 257 357 239 q 423 275 404 275 q 467 260 450 277 q 484 221 483 243 q 477 195 484 202 q 464 183 469 187 q 454 176 460 180 q 449 164 449 171 q 454 155 449 160 q 469 149 458 149 q 504 159 490 151 q 529 174 518 167 q 602 290 578 214 q 651 492 627 365 l 658 534 q 676 621 666 575 q 700 713 686 667 q 639 768 666 741 q 566 807 612 795 q 513 810 533 817 q 480 787 494 804 q 467 743 464 766 q 486 704 471 720 l 519 666 q 568 599 552 629 q 576 529 583 568 q 503 434 567 471 q 354 423 439 397 q 261 489 281 446 q 251 560 241 532 q 276 591 258 585 q 313 591 294 598 q 342 564 335 585 q 345 524 350 543 q 342 517 343 521 q 339 510 340 514 q 333 500 336 505 q 327 488 330 495 q 337 463 321 473 q 368 448 353 452 q 428 451 400 437 q 464 491 456 465 q 462 532 472 515 q 446 556 452 549 l 404 600 q 370 656 391 616 q 365 746 349 696 q 382 783 370 764 q 412 815 395 802 q 490 849 450 844 q 570 844 530 854 q 650 800 620 829 q 712 745 680 770 q 755 846 730 796 q 817 937 780 895 q 894 1002 850 977 q 989 1029 937 1027 q 1074 1010 1040 1031 q 1109 952 1108 989 q 1098 913 1109 936 q 1055 890 1086 891 l 1055 890 z "},"":{"ha":1389,"x_min":11,"x_max":1378,"o":"m 236 956 q 313 922 256 947 q 433 873 369 899 q 552 823 496 846 q 625 792 608 800 q 688 777 659 776 q 762 800 718 777 q 838 836 783 811 q 956 885 894 859 q 1072 936 1017 911 q 1145 968 1126 959 q 1175 988 1165 979 q 1184 1004 1184 997 l 1184 1103 q 1174 1116 1184 1109 q 1145 1131 1164 1123 l 770 1276 q 707 1290 731 1291 q 637 1272 682 1289 q 555 1242 613 1264 q 432 1194 496 1219 q 311 1147 368 1169 q 236 1118 255 1124 q 207 1103 217 1111 q 197 1088 197 1096 l 195 1088 l 195 990 q 206 973 195 982 q 236 956 217 964 l 236 956 m 709 941 l 551 1008 l 779 1043 l 709 941 m 1055 1099 l 906 1040 l 772 1093 l 921 1153 l 1055 1099 m 659 1196 l 637 1238 l 707 1211 l 772 1233 l 754 1191 l 821 1165 l 735 1157 l 715 1111 l 685 1161 l 586 1169 l 659 1196 l 659 1196 m 490 1139 q 576 1125 540 1139 q 612 1092 612 1111 q 576 1058 612 1072 q 490 1044 541 1044 q 403 1058 439 1044 q 366 1092 366 1072 q 403 1125 366 1111 q 490 1139 439 1139 l 490 1139 m 236 787 q 313 754 256 777 q 433 703 369 730 q 552 654 496 677 q 625 623 608 631 q 688 608 659 606 q 762 631 718 609 q 838 666 783 642 q 956 717 894 690 q 1072 766 1017 743 q 1145 800 1126 789 q 1175 819 1165 810 q 1184 834 1184 827 l 1184 933 q 1175 918 1184 926 q 1146 899 1165 910 q 1072 865 1126 890 q 956 816 1017 842 q 840 765 895 789 q 762 730 784 742 q 691 707 720 708 q 627 723 662 705 q 555 754 610 731 q 435 804 499 777 q 315 853 370 830 q 237 887 258 878 q 208 903 218 895 q 197 920 197 911 l 197 819 q 206 804 195 812 q 236 787 217 796 l 236 787 m 236 624 q 313 591 256 614 q 433 541 369 567 q 552 491 496 514 q 625 460 608 468 q 688 445 659 444 q 762 468 718 446 q 838 503 783 479 q 956 554 894 528 q 1072 604 1017 581 q 1145 637 1126 627 q 1175 656 1165 647 q 1184 671 1184 665 l 1184 770 q 1175 755 1184 764 q 1146 736 1165 747 q 1072 703 1126 727 q 956 653 1017 680 q 840 602 895 627 q 762 567 784 579 q 691 544 720 545 q 627 560 662 543 q 555 591 610 568 q 435 641 499 614 q 315 690 370 667 q 237 724 258 715 q 208 741 218 732 q 197 757 197 749 l 197 656 q 206 642 195 650 q 236 624 217 633 l 236 624 m 232 243 q 221 269 232 259 q 194 279 210 279 q 144 273 167 281 q 103 252 121 264 q 97 245 99 250 q 87 239 95 241 l 87 244 q 75 270 87 259 q 47 281 64 281 q 22 270 33 281 q 11 244 11 259 l 11 -37 q 22 -64 11 -53 q 47 -75 33 -75 q 75 -64 64 -75 q 87 -37 87 -53 l 87 98 q 100 122 95 104 q 117 157 104 140 q 132 177 123 168 q 151 193 140 186 q 171 203 160 199 q 194 206 182 206 q 221 216 210 205 q 232 243 232 228 l 232 243 m 382 281 q 260 228 309 281 q 209 102 210 175 q 260 -24 210 28 q 384 -77 311 -76 q 454 -66 422 -77 q 513 -30 486 -54 q 522 -5 525 -19 q 513 16 519 9 q 488 26 505 26 q 458 14 471 26 q 425 -1 446 4 q 385 -3 404 -5 q 347 7 366 -1 q 317 28 328 15 q 301 52 307 37 q 293 75 296 66 l 519 75 q 544 83 534 75 q 555 104 553 91 q 554 107 555 104 q 553 111 553 110 l 553 114 q 503 234 553 187 q 382 281 453 281 l 382 281 m 289 141 q 316 186 293 157 q 385 217 339 214 q 458 185 431 213 q 491 141 486 157 l 289 141 m 922 102 l 922 385 q 911 412 922 400 q 884 425 901 425 q 857 413 868 425 q 846 385 846 401 l 846 251 q 799 273 822 264 q 750 281 776 281 q 626 228 677 281 q 575 102 575 175 q 626 -23 575 30 q 749 -76 677 -76 q 800 -68 776 -76 q 845 -46 825 -60 q 858 -67 848 -58 q 883 -76 868 -76 q 911 -64 899 -76 q 922 -37 922 -53 l 922 102 l 922 102 m 815 31 q 785 10 802 18 q 747 3 768 3 q 711 10 728 3 q 681 31 694 18 q 660 63 667 45 q 652 102 652 81 q 660 142 652 123 q 681 174 667 160 q 711 195 693 187 q 747 203 728 203 q 785 195 768 203 q 815 174 802 187 q 836 142 827 160 q 844 102 844 123 q 836 63 844 81 q 815 31 829 45 m 1015 425 q 987 413 998 425 q 977 385 977 401 l 977 370 q 987 342 977 354 q 1015 331 998 331 q 1042 342 1031 331 q 1053 370 1053 354 l 1053 385 q 1042 413 1053 401 q 1015 425 1031 425 m 1015 281 q 987 270 998 281 q 977 241 977 259 l 977 -37 q 987 -64 977 -53 q 1015 -76 998 -76 q 1042 -64 1031 -76 q 1053 -37 1053 -53 l 1053 241 q 1042 269 1053 258 q 1015 281 1031 281 l 1015 281 m 1363 83 q 1340 107 1354 98 q 1312 122 1326 117 q 1280 136 1297 130 q 1245 141 1264 141 l 1245 141 l 1244 144 q 1213 153 1226 148 q 1191 163 1199 157 q 1185 168 1187 165 q 1184 171 1184 170 q 1183 174 1183 172 q 1183 176 1183 175 q 1185 184 1183 179 q 1195 193 1187 189 q 1213 203 1202 199 q 1238 206 1225 206 q 1271 199 1255 206 q 1305 180 1287 191 q 1333 174 1317 171 q 1358 190 1348 176 q 1362 219 1366 203 q 1345 243 1359 235 q 1301 269 1328 255 q 1238 282 1275 282 q 1192 275 1214 282 q 1150 256 1169 269 q 1120 222 1133 243 q 1108 178 1108 202 q 1111 154 1108 165 q 1120 133 1114 142 q 1142 111 1130 119 q 1169 95 1154 102 q 1198 83 1183 88 q 1230 79 1214 79 l 1232 79 q 1265 66 1251 71 q 1289 56 1280 61 q 1295 50 1293 53 q 1299 46 1298 47 q 1300 42 1299 43 q 1301 38 1301 41 q 1298 28 1301 34 q 1289 16 1295 23 q 1266 7 1279 11 q 1240 3 1253 3 q 1196 12 1218 1 q 1161 34 1175 22 q 1133 43 1150 45 q 1108 28 1116 41 q 1100 1 1099 16 q 1114 -24 1101 -15 q 1166 -58 1134 -42 q 1240 -73 1199 -73 q 1291 -66 1267 -73 q 1333 -46 1314 -58 q 1366 -10 1354 -31 q 1378 37 1378 11 q 1373 60 1377 49 q 1363 83 1370 72 l 1363 83 z "},"":{"ha":1389,"x_min":8,"x_max":1377,"o":"m 68 730 q 174 685 95 718 q 339 615 251 651 q 505 547 427 579 q 605 503 581 515 q 692 481 651 480 q 793 514 732 483 q 899 563 823 530 q 1061 633 977 597 q 1222 703 1146 670 q 1324 749 1297 734 q 1364 775 1351 764 q 1377 796 1377 787 l 1377 932 q 1363 952 1377 943 q 1322 971 1350 962 q 1222 1010 1297 981 q 1064 1072 1147 1039 q 906 1134 981 1104 q 806 1173 831 1162 q 718 1192 751 1192 q 620 1168 684 1191 q 507 1126 587 1156 q 338 1059 427 1095 q 170 994 248 1024 q 65 952 92 963 q 25 933 39 943 q 11 913 11 924 l 8 913 l 8 774 q 26 754 11 765 q 68 730 41 743 l 68 730 m 723 711 l 502 802 l 818 850 l 723 711 l 723 711 m 1202 928 l 1015 854 l 994 846 l 807 920 l 1015 1001 l 1202 928 m 652 1063 l 621 1120 l 718 1082 l 807 1112 l 784 1054 l 875 1019 l 757 1006 l 730 943 l 688 1013 l 551 1025 l 652 1063 l 652 1063 m 416 985 q 536 965 487 985 q 586 920 586 945 q 536 873 586 892 q 416 854 487 854 q 297 873 347 854 q 247 920 247 892 q 297 965 247 945 q 416 985 347 985 m 1324 654 q 1222 606 1297 639 q 1062 537 1147 574 q 901 468 977 500 q 795 419 825 434 q 694 386 734 387 q 606 408 654 385 q 506 452 583 419 q 340 519 429 483 q 174 589 252 556 q 68 635 95 621 q 26 659 41 648 q 11 681 11 670 l 11 543 q 26 521 11 532 q 68 496 41 510 q 174 452 95 484 q 339 382 251 418 q 505 313 427 346 q 605 270 581 282 q 692 248 651 247 q 793 281 732 250 q 899 330 823 297 q 1061 400 977 363 q 1222 469 1146 437 q 1324 515 1297 500 q 1364 542 1351 530 q 1377 563 1377 553 l 1377 699 q 1364 679 1377 690 q 1324 654 1351 667 m 1324 429 q 1222 381 1297 415 q 1062 313 1147 349 q 901 243 977 277 q 795 194 825 210 q 694 161 734 163 q 606 183 654 160 q 506 227 583 195 q 340 295 429 259 q 174 365 252 331 q 68 410 95 397 q 26 433 41 422 q 11 456 11 445 l 11 317 q 26 296 11 308 q 68 273 41 285 q 174 227 95 259 q 339 157 251 194 q 505 90 427 121 q 605 46 581 57 q 692 24 651 23 q 793 57 732 26 q 899 106 823 72 q 1061 175 977 138 q 1222 244 1146 212 q 1324 290 1297 277 q 1364 317 1351 305 q 1377 339 1377 328 l 1377 475 q 1364 453 1377 464 q 1324 429 1351 442 l 1324 429 z "},"":{"ha":1389,"x_min":11,"x_max":1381,"o":"m 111 567 q 83 611 96 587 q 57 651 71 635 l 11 651 l 11 445 l 54 445 l 54 586 q 65 572 62 579 q 73 557 68 564 q 82 543 77 551 q 92 529 87 536 q 101 516 98 524 q 110 502 104 509 q 136 545 123 524 q 164 589 148 566 q 163 515 163 553 q 163 445 163 477 l 217 445 l 217 651 l 163 651 q 136 611 149 635 q 111 567 123 587 l 111 567 m 1332 522 q 1342 529 1337 525 q 1351 536 1347 533 q 1367 555 1362 544 q 1375 579 1373 567 q 1375 591 1375 585 q 1375 604 1375 598 l 1374 610 q 1369 623 1373 617 q 1362 635 1366 629 q 1352 644 1358 642 q 1341 651 1345 647 q 1323 656 1332 654 q 1305 659 1314 659 q 1259 659 1282 658 q 1214 659 1237 659 l 1206 659 l 1206 446 l 1260 446 l 1260 511 l 1287 511 q 1309 479 1298 495 q 1329 446 1320 463 l 1381 446 q 1356 483 1369 461 q 1332 522 1344 505 l 1332 522 m 1326 576 q 1318 567 1322 571 q 1306 562 1314 563 q 1299 561 1302 562 q 1291 560 1297 560 l 1257 560 l 1257 620 l 1299 620 q 1306 619 1303 620 q 1313 616 1309 618 q 1322 610 1318 614 q 1328 600 1325 605 q 1331 588 1332 593 q 1326 576 1331 583 l 1326 576 m 271 445 l 423 445 l 423 488 l 315 488 l 315 532 l 412 532 l 412 564 l 315 564 l 315 608 l 423 608 l 423 651 l 271 651 l 271 445 m 705 445 l 857 445 l 857 496 l 746 496 l 749 496 l 749 532 l 846 532 l 846 564 l 749 564 l 749 608 l 857 608 l 857 651 l 705 651 l 705 445 m 477 617 l 540 617 q 541 617 540 617 q 543 616 543 617 l 543 458 l 586 458 l 586 609 l 640 609 l 640 652 l 477 652 l 477 617 m 1146 605 q 1150 606 1149 605 q 1152 610 1152 608 q 1152 611 1152 610 q 1150 613 1152 612 l 1078 680 l 1142 608 q 1143 606 1142 606 q 1146 605 1145 605 l 1146 605 m 1160 567 l 1005 709 l 1147 555 q 1150 553 1149 553 q 1153 552 1152 552 q 1160 555 1157 552 q 1162 562 1162 557 q 1162 565 1162 563 q 1160 567 1161 567 l 1160 567 m 867 680 l 1074 453 q 1078 450 1076 452 q 1084 449 1081 449 q 1093 453 1089 449 q 1097 463 1097 457 q 1096 468 1097 465 q 1093 472 1095 471 l 867 680 m 841 766 l 1115 475 q 1120 471 1118 472 q 1124 471 1122 471 q 1133 475 1128 471 q 1137 484 1137 479 q 1136 488 1137 486 q 1135 491 1135 490 q 1089 534 1135 491 q 988 628 1043 576 q 887 723 933 680 q 841 766 841 766 l 841 766 m 929 736 l 1137 511 q 1140 509 1138 510 q 1146 507 1142 507 q 1154 511 1150 507 q 1158 519 1158 514 q 1157 526 1158 524 q 1154 529 1156 528 l 929 736 m 1044 465 l 890 608 l 1032 453 q 1035 451 1034 452 q 1039 450 1036 450 q 1045 453 1043 450 q 1047 458 1047 456 q 1046 463 1047 461 q 1044 465 1046 465 l 1044 465 m 925 537 l 989 465 q 990 464 989 465 q 993 463 991 463 q 997 464 996 463 q 998 468 998 465 q 998 469 998 468 q 997 471 998 471 q 961 505 997 472 q 925 537 925 537 l 925 537 z "},"":{"ha":1389,"x_min":11,"x_max":1378,"o":"m 1305 593 q 1322 599 1316 593 q 1328 616 1328 605 q 1326 623 1328 620 q 1322 629 1325 627 q 1275 674 1322 631 q 1171 770 1227 718 q 1066 865 1114 822 q 1019 909 1019 909 l 1286 605 q 1294 595 1289 598 q 1305 593 1299 593 m 1367 437 l 1364 439 l 705 1042 l 1312 382 q 1324 374 1317 377 q 1339 372 1331 372 q 1367 382 1355 372 q 1378 410 1378 393 q 1375 425 1378 418 q 1367 437 1373 431 m 1076 30 l 121 914 l 1001 -46 q 1018 -60 1008 -54 q 1040 -65 1028 -65 q 1078 -50 1062 -65 q 1093 -12 1093 -34 q 1088 11 1093 0 q 1076 30 1084 22 m 11 1280 l 1180 35 q 1196 24 1187 28 q 1217 20 1206 20 q 1254 36 1238 20 q 1270 73 1270 52 q 1267 90 1270 81 q 1260 104 1264 98 q 1063 290 1259 106 q 634 694 868 475 q 206 1097 400 914 q 11 1280 11 1280 l 11 1280 m 1339 274 l 384 1158 l 1264 198 q 1282 184 1271 190 q 1305 179 1293 179 q 1342 195 1326 179 q 1358 232 1358 210 q 1352 256 1358 245 q 1339 274 1347 266 m 878 4 l 876 7 l 216 609 l 822 -52 q 834 -59 827 -56 q 849 -62 841 -62 q 877 -51 865 -62 q 888 -23 888 -39 q 886 -8 888 -15 q 878 4 883 -1 m 370 307 l 637 3 q 645 -6 640 -3 q 656 -9 650 -9 q 673 -3 666 -9 q 680 14 680 3 q 678 21 680 18 q 674 27 677 24 q 625 72 673 27 q 521 168 578 115 q 418 263 464 220 q 370 307 370 307 l 370 307 z "},"":{"ha":1389,"x_min":22,"x_max":1367,"o":"m 382 198 q 323 194 350 198 q 278 182 297 190 q 267 128 270 156 q 263 69 263 100 q 281 -20 263 12 q 363 -53 298 -53 q 418 -45 393 -53 q 464 -28 444 -38 l 456 11 q 413 -2 437 4 q 366 -8 389 -8 q 327 5 338 -8 q 315 68 316 19 l 477 68 l 477 91 q 456 170 477 141 q 382 198 435 198 l 382 198 m 315 98 q 317 132 316 122 q 320 149 319 141 q 352 153 335 152 q 381 153 369 153 q 416 138 408 153 q 423 98 423 122 l 315 98 l 315 98 m 151 198 q 109 193 129 198 q 65 182 90 187 l 65 293 l 22 293 l 22 -43 l 65 -43 l 65 137 q 107 149 90 145 q 141 153 125 153 q 156 149 149 153 q 163 134 163 144 l 163 -49 l 167 -45 l 217 -45 l 217 127 q 201 178 217 157 q 151 198 186 198 m 1324 195 l 1324 7 q 1278 -5 1299 -1 q 1240 -9 1257 -9 q 1223 -5 1232 -9 q 1215 8 1215 -1 l 1215 195 l 1172 195 l 1172 14 q 1185 -35 1172 -16 q 1233 -54 1198 -54 q 1291 -48 1255 -54 q 1367 -16 1326 -42 l 1367 195 l 1324 195 m 1126 195 l 1067 195 q 1042 142 1057 171 q 1006 98 1027 114 l 987 98 l 987 293 l 933 293 l 933 -43 l 987 -43 l 987 65 l 1010 65 q 1048 11 1034 41 q 1076 -43 1063 -19 l 1137 -43 q 1099 24 1119 -11 q 1053 91 1078 58 q 1093 138 1074 113 q 1126 195 1112 163 l 1126 195 m 521 -43 l 564 -43 l 564 137 q 602 146 581 144 q 640 149 624 149 l 640 193 q 585 184 616 191 q 521 160 553 178 l 521 -43 m 774 198 q 694 169 726 198 q 663 71 663 140 q 690 -24 663 5 q 774 -54 718 -54 q 856 -25 825 -54 q 887 73 887 4 q 860 168 887 138 q 774 198 833 198 m 774 -11 q 728 5 742 -11 q 713 71 713 20 q 729 136 713 117 q 774 155 745 155 q 822 138 807 155 q 837 73 837 122 q 820 8 836 27 q 774 -11 804 -11 m 1074 1191 q 1048 1254 1074 1227 q 985 1280 1021 1280 l 404 1280 q 341 1254 368 1280 q 315 1191 315 1227 l 315 426 q 341 363 315 389 q 404 336 368 336 l 985 336 q 1048 363 1021 336 q 1074 426 1074 389 l 1074 1191 m 347 1185 q 365 1230 347 1211 q 410 1248 382 1248 l 979 1248 q 1023 1230 1005 1248 q 1042 1185 1042 1211 l 1042 431 q 1024 387 1042 406 q 979 368 1006 368 l 410 368 q 365 387 382 368 q 347 431 347 406 l 347 1185 l 347 1185 m 932 1150 l 817 1150 q 793 1101 817 1150 q 739 1020 769 1053 l 852 1020 q 915 1114 898 1077 q 932 1150 932 1150 l 932 1150 m 488 468 l 594 575 l 488 681 l 488 468 m 792 842 l 792 468 l 791 467 l 890 467 l 890 841 q 844 941 890 918 q 744 962 799 964 q 643 945 689 960 q 597 930 597 930 l 597 1153 l 491 1152 q 491 1097 491 1152 q 491 978 491 1043 q 491 859 491 913 q 491 806 491 804 q 764 871 735 899 q 792 842 792 842 z "},"":{"ha":1389,"x_min":152,"x_max":1238,"o":"m 1237 1152 q 1199 1242 1237 1204 q 1108 1280 1161 1280 l 281 1280 q 190 1242 228 1280 q 152 1152 152 1204 l 152 62 q 190 -28 152 9 q 281 -66 228 -66 l 1109 -66 q 1200 -28 1162 -66 q 1238 62 1238 9 l 1238 1152 l 1237 1152 m 1194 1150 l 1194 73 q 1168 6 1194 34 q 1104 -22 1143 -22 l 288 -22 q 222 6 250 -22 q 195 73 195 34 l 195 1150 q 222 1213 195 1188 q 288 1237 250 1237 l 1104 1237 q 1168 1211 1142 1237 q 1195 1147 1195 1185 l 1194 1150 l 1194 1150 m 401 122 l 555 275 l 401 429 l 401 122 m 553 784 l 553 1103 l 403 1101 q 403 1024 403 1101 q 404 852 403 945 q 404 682 404 760 q 404 605 404 605 q 794 700 753 742 q 836 658 836 658 l 836 122 l 834 119 l 977 119 l 977 656 q 910 800 977 766 q 766 830 845 834 q 620 804 686 826 q 553 784 553 784 l 553 784 m 760 911 l 920 911 q 1010 1044 985 993 q 1036 1096 1036 1096 l 871 1096 q 837 1028 871 1096 q 760 911 803 960 z "},"":{"ha":1389,"x_min":22,"x_max":1367,"o":"m 426 336 l 1005 336 q 1068 363 1042 336 q 1095 426 1095 389 l 1095 1191 q 1068 1254 1095 1227 q 1005 1280 1042 1280 l 426 1280 q 363 1254 389 1280 q 336 1191 336 1227 l 336 427 q 363 363 336 389 q 426 336 389 336 m 841 1150 l 958 1150 q 941 1114 958 1150 q 876 1020 924 1077 l 764 1020 q 817 1101 793 1053 q 841 1150 841 1150 l 841 1150 m 618 1154 l 618 930 q 665 945 618 930 q 764 963 709 960 q 865 941 819 966 q 911 841 911 918 l 911 467 l 817 467 l 814 465 l 814 844 q 785 873 814 844 q 513 806 757 902 q 511 860 511 806 q 511 980 511 914 q 511 1100 511 1046 q 511 1154 511 1154 l 618 1154 m 510 681 l 617 574 l 510 467 l 510 681 l 510 681 m 382 187 q 323 183 350 187 q 278 171 297 179 q 267 117 270 145 q 263 58 263 90 q 281 -31 263 1 q 363 -64 298 -64 q 418 -56 393 -64 q 464 -39 444 -49 l 456 0 q 413 -13 437 -7 q 366 -19 389 -19 q 327 -5 338 -19 q 315 57 316 8 l 477 57 l 477 80 q 456 159 477 130 q 382 187 435 187 l 382 187 m 315 87 q 317 121 316 111 q 320 138 319 130 q 352 142 335 141 q 381 142 369 142 q 416 127 408 142 q 423 87 423 111 l 315 87 l 315 87 m 151 187 q 109 182 129 187 q 65 171 90 176 l 65 282 l 22 282 l 22 -54 l 65 -54 l 65 126 q 107 138 90 134 q 141 142 125 142 q 156 138 149 142 q 163 123 163 133 l 163 -60 l 167 -56 l 217 -56 l 217 117 q 201 167 217 146 q 151 187 186 187 m 1324 184 l 1324 -4 q 1278 -16 1299 -12 q 1240 -20 1257 -20 q 1223 -16 1232 -20 q 1215 -3 1215 -12 l 1215 184 l 1172 184 l 1172 3 q 1185 -46 1172 -27 q 1233 -65 1198 -65 q 1291 -59 1255 -65 q 1367 -27 1326 -53 l 1367 184 l 1324 184 m 1126 184 l 1067 184 q 1042 132 1057 160 q 1006 87 1027 103 l 987 87 l 987 282 l 933 282 l 933 -54 l 987 -54 l 987 54 l 1010 54 q 1048 0 1034 30 q 1076 -54 1063 -30 l 1137 -54 q 1099 13 1119 -22 q 1053 80 1078 47 q 1093 127 1074 102 q 1126 184 1112 152 l 1126 184 m 521 -54 l 564 -54 l 564 126 q 602 136 581 133 q 640 138 624 138 l 640 182 q 585 174 616 180 q 521 149 553 167 l 521 -54 m 774 187 q 694 158 726 187 q 663 60 663 129 q 690 -35 663 -5 q 774 -65 718 -65 q 856 -36 825 -65 q 887 62 887 -7 q 860 157 887 127 q 774 187 833 187 m 774 -22 q 728 -6 742 -22 q 713 60 713 9 q 729 125 713 106 q 774 144 745 144 q 822 127 807 144 q 837 62 837 111 q 820 -3 836 16 q 774 -22 804 -22 z "},"":{"ha":1389,"x_min":46,"x_max":1343,"o":"m 149 140 l 236 140 l 236 -49 l 198 -49 l 198 103 l 156 103 q 134 102 142 103 q 125 100 126 102 q 109 93 117 98 q 96 80 102 88 q 87 63 90 72 q 84 45 84 54 q 88 24 84 34 q 100 4 92 14 q 111 -5 106 -1 q 121 -8 117 -8 q 132 -12 125 -11 q 149 -14 138 -14 l 175 -14 l 175 -49 l 144 -49 q 111 -45 126 -49 q 84 -31 96 -41 q 69 -18 75 -24 q 61 -5 64 -11 q 50 18 53 5 q 46 42 46 30 l 46 47 q 52 81 46 65 q 72 110 58 96 q 85 123 79 118 q 96 129 92 127 q 105 133 100 132 q 117 137 110 134 q 130 139 122 138 q 149 140 138 140 l 149 140 m 427 102 q 432 94 430 98 q 435 90 434 91 q 438 81 437 85 q 442 72 439 77 q 445 56 444 65 q 446 35 446 47 l 446 -49 l 408 -49 l 408 39 q 398 77 408 62 q 368 100 388 92 q 358 102 362 102 q 351 103 354 103 q 343 102 347 103 q 335 100 339 102 q 304 77 315 92 q 293 39 293 62 l 293 -49 l 255 -49 l 255 35 q 256 56 255 47 q 259 72 258 65 q 263 81 262 77 q 266 90 264 85 q 269 95 267 92 q 275 102 271 98 q 309 130 290 121 q 351 140 328 140 q 392 130 373 140 q 427 102 411 121 m 533 140 q 563 139 552 140 q 576 138 574 138 q 593 134 585 137 q 612 125 602 130 q 623 117 617 122 q 635 104 628 111 q 650 76 644 91 q 655 45 655 61 q 653 26 655 35 q 648 8 651 16 q 628 -22 640 -9 q 598 -41 616 -34 q 579 -47 591 -45 q 549 -49 567 -49 l 469 -49 l 465 -49 l 465 -12 l 553 -12 q 567 -12 562 -12 q 576 -11 572 -11 q 593 -1 586 -7 q 606 11 601 4 q 614 28 612 19 q 617 45 617 37 q 615 61 617 53 q 608 77 613 69 q 602 85 605 81 q 594 91 598 90 q 577 100 587 98 q 553 103 567 103 l 465 103 l 465 140 l 533 140 l 533 140 m 675 140 l 796 140 q 825 135 812 140 q 846 121 838 130 q 854 113 850 117 q 859 106 857 109 q 863 92 861 99 q 865 77 865 84 l 865 72 q 861 52 865 62 q 848 33 856 42 q 836 22 841 26 q 826 18 831 19 q 844 -12 838 5 q 850 -49 850 -28 l 812 -49 l 812 -46 q 806 -19 812 -31 q 787 3 799 -7 q 770 10 780 8 q 750 12 761 12 l 675 12 l 675 49 l 799 49 q 816 54 808 49 q 826 69 823 60 q 827 73 827 72 q 827 76 827 75 q 825 87 827 81 q 818 96 823 92 q 810 101 814 99 q 802 103 806 103 q 800 103 802 103 q 796 103 799 103 l 675 103 l 675 140 l 675 140 m 979 140 l 981 140 q 1021 131 1002 140 q 1055 103 1039 122 q 1070 76 1065 91 q 1076 46 1076 61 l 1076 45 q 1066 3 1076 22 q 1039 -30 1057 -15 q 1011 -44 1025 -39 q 981 -49 997 -49 l 979 -49 q 939 -40 958 -49 q 905 -14 921 -31 q 896 0 899 -7 q 890 14 892 7 q 886 29 887 22 q 884 45 884 37 l 884 46 q 893 85 884 66 q 920 119 902 103 q 943 132 932 127 q 963 138 954 137 q 970 139 967 138 q 979 140 974 140 l 979 140 m 922 45 q 927 22 922 33 q 941 1 932 11 q 960 -9 951 -5 q 978 -12 968 -12 l 982 -12 q 997 -10 989 -12 q 1013 -3 1005 -8 q 1027 12 1021 4 q 1035 28 1032 19 q 1036 35 1035 30 q 1038 45 1036 39 q 1033 68 1038 57 q 1019 87 1028 79 q 1000 99 1009 95 q 979 103 990 103 q 956 98 967 103 q 936 83 945 92 q 930 73 932 77 q 926 65 928 68 q 924 55 925 60 q 922 45 922 50 l 922 45 m 1095 140 l 1133 140 l 1133 -49 l 1095 -49 l 1095 140 m 1221 140 q 1251 139 1240 140 q 1264 138 1261 138 q 1281 134 1272 137 q 1299 125 1290 130 q 1310 117 1305 122 q 1322 104 1316 111 q 1337 76 1332 91 q 1343 45 1343 61 q 1341 26 1343 35 q 1336 8 1339 16 q 1316 -22 1328 -9 q 1286 -41 1303 -34 q 1266 -47 1278 -45 q 1237 -49 1255 -49 l 1157 -49 l 1153 -49 l 1153 -12 l 1241 -12 q 1255 -12 1249 -12 q 1264 -11 1260 -11 q 1281 -1 1274 -7 q 1294 11 1289 4 q 1302 28 1299 19 q 1305 45 1305 37 q 1303 61 1305 53 q 1295 77 1301 69 q 1289 85 1293 81 q 1282 91 1284 90 q 1265 100 1275 98 q 1241 103 1255 103 l 1153 103 l 1153 140 l 1221 140 l 1221 140 m 316 907 q 271 888 290 907 q 252 844 252 869 l 252 572 q 271 528 252 547 q 317 509 290 509 q 362 528 343 509 q 381 572 381 547 l 381 844 q 362 888 381 869 q 316 907 343 907 l 316 907 m 837 1150 l 882 1232 q 882 1239 883 1236 q 879 1244 882 1242 q 871 1245 875 1246 q 867 1241 868 1244 l 821 1158 q 760 1177 792 1171 q 694 1184 728 1184 q 629 1177 661 1184 q 568 1158 597 1171 l 522 1241 q 517 1245 521 1244 q 510 1244 514 1246 q 506 1239 507 1242 q 507 1232 505 1236 l 552 1150 q 445 1055 486 1116 q 404 918 404 993 l 985 918 q 944 1055 985 993 q 837 1150 903 1116 m 562 1023 q 545 1030 552 1023 q 538 1047 538 1038 q 545 1065 538 1058 q 562 1072 552 1072 q 579 1065 572 1072 q 586 1047 586 1058 q 579 1030 586 1038 q 562 1023 572 1023 m 826 1023 q 810 1030 817 1023 q 803 1047 803 1038 q 810 1065 803 1058 q 826 1072 817 1072 q 844 1065 837 1072 q 850 1047 850 1058 q 844 1030 850 1038 q 826 1023 837 1023 m 406 895 l 407 477 q 427 428 407 448 q 475 408 446 408 l 522 408 l 522 264 q 541 220 522 239 q 586 201 560 201 q 632 220 613 201 q 651 264 651 239 l 651 408 l 738 408 l 738 264 q 757 220 738 239 q 803 201 776 201 q 848 220 829 201 q 867 266 867 239 l 867 408 l 914 408 q 963 429 943 408 q 983 477 983 449 l 983 895 l 406 895 l 406 895 m 1137 844 q 1118 888 1137 869 q 1072 907 1099 907 q 1027 888 1046 907 q 1008 844 1008 869 l 1008 572 q 1027 528 1008 547 q 1073 509 1046 509 q 1118 528 1099 509 q 1137 572 1137 547 l 1137 844 l 1137 844 z "},"":{"ha":1389,"x_min":148,"x_max":1241,"o":"m 228 836 q 172 812 195 836 q 148 755 148 789 l 148 422 q 172 366 148 389 q 228 343 195 343 q 284 366 260 343 q 308 422 308 389 l 308 755 q 284 812 308 789 q 228 836 260 836 m 871 1135 l 926 1237 q 926 1245 928 1241 q 921 1252 925 1249 q 913 1252 917 1253 q 906 1246 909 1251 l 850 1145 q 776 1168 815 1160 q 694 1177 736 1177 q 613 1169 652 1177 q 538 1145 574 1161 l 483 1246 q 476 1252 480 1251 q 468 1252 472 1253 q 463 1245 464 1249 q 463 1237 461 1241 l 518 1135 q 386 1017 437 1093 q 335 848 335 940 l 1053 848 q 1002 1017 1053 940 q 871 1135 952 1093 m 532 978 q 509 987 518 978 q 500 1008 500 996 q 509 1029 500 1020 q 532 1038 518 1039 q 553 1029 544 1039 q 562 1008 562 1020 q 553 987 562 996 q 532 978 544 978 m 857 978 q 836 987 845 978 q 827 1008 827 996 q 836 1029 827 1020 q 857 1039 845 1039 q 880 1029 871 1039 q 888 1008 888 1020 q 880 987 888 996 q 857 978 871 978 l 857 978 m 339 821 l 339 304 q 363 243 339 269 q 423 218 388 218 l 481 218 l 481 42 q 505 -14 481 9 q 562 -38 528 -38 q 617 -14 594 -38 q 640 42 640 9 l 640 218 l 749 218 l 749 42 q 772 -14 749 9 q 827 -38 795 -38 q 884 -14 861 -38 q 907 42 907 9 l 907 218 l 966 218 q 1026 243 1001 218 q 1051 304 1051 269 l 1051 821 l 339 821 l 339 821 m 1241 755 q 1217 812 1241 789 q 1161 836 1194 836 q 1105 812 1128 836 q 1081 755 1081 789 l 1081 422 q 1105 366 1081 389 q 1161 343 1128 343 q 1217 366 1194 343 q 1241 422 1241 389 l 1241 755 z "},"":{"ha":1389,"x_min":152,"x_max":1238,"o":"m 1108 1280 l 281 1280 q 190 1242 228 1280 q 152 1152 152 1204 l 152 62 q 190 -28 152 9 q 281 -66 228 -66 l 1109 -66 q 1200 -28 1162 -66 q 1238 62 1238 9 l 1238 1152 q 1199 1242 1237 1204 q 1108 1280 1161 1280 m 401 122 l 401 429 l 555 275 l 401 122 l 401 122 m 977 119 l 834 119 l 836 122 l 836 658 q 794 699 836 658 q 404 605 753 741 q 404 682 404 605 q 404 852 404 760 q 403 1024 403 945 q 403 1101 403 1101 l 553 1103 l 553 784 q 620 804 553 784 q 764 830 685 826 q 910 800 844 834 q 977 656 977 766 l 977 119 m 920 911 l 760 911 q 837 1028 803 960 q 871 1096 871 1096 l 1036 1096 q 1011 1044 1036 1096 q 920 911 986 993 z "},"":{"ha":1389,"x_min":11,"x_max":1378,"o":"m 235 422 l 659 178 q 677 172 667 174 q 696 171 686 171 q 713 172 704 171 q 730 178 723 174 l 1152 422 q 1174 447 1165 430 q 1183 480 1183 464 l 1183 968 q 1174 1002 1183 985 q 1152 1028 1165 1020 l 730 1272 q 714 1278 723 1276 q 697 1280 705 1280 q 679 1278 688 1280 q 663 1272 670 1276 l 235 1028 q 208 1003 221 1020 q 195 970 195 986 l 195 481 q 208 448 195 465 q 235 422 221 430 l 235 422 m 228 970 q 235 991 228 979 q 251 1006 243 1002 l 675 1251 q 685 1253 680 1252 q 697 1255 690 1255 q 708 1253 703 1255 q 718 1251 713 1252 l 1141 1006 q 1155 990 1149 1001 q 1161 970 1161 979 l 1161 481 q 1155 462 1161 473 q 1141 446 1149 450 l 718 202 q 708 199 713 199 q 697 198 703 198 q 685 199 690 198 q 675 202 680 201 l 251 445 q 235 461 243 450 q 228 480 228 472 l 228 970 m 662 707 q 675 692 667 697 q 694 686 684 686 l 697 686 q 724 696 712 686 q 736 723 736 707 q 736 734 736 728 q 731 746 735 741 q 718 761 727 754 q 699 768 709 768 l 696 770 q 668 758 680 770 q 655 730 656 746 q 658 718 656 724 q 662 707 659 711 l 662 707 m 697 760 q 698 761 697 760 q 699 762 699 762 q 716 757 708 761 q 730 745 724 753 q 733 734 731 739 q 735 724 735 730 q 723 699 734 709 q 697 689 712 689 l 694 689 q 677 695 685 690 q 665 708 669 700 q 661 717 662 712 q 659 727 659 722 q 671 750 661 741 q 697 760 682 760 m 709 726 q 706 717 709 720 q 697 713 703 713 q 688 717 692 713 q 684 726 684 720 q 688 735 684 731 q 697 739 692 739 q 706 735 703 739 q 709 726 709 731 m 708 674 q 703 673 707 673 q 697 673 700 673 l 694 673 q 670 681 681 674 q 652 699 659 688 q 646 714 648 707 q 644 730 644 722 q 649 747 646 739 q 659 762 652 755 l 311 498 l 708 674 l 708 674 m 701 779 q 725 772 713 779 q 743 753 736 765 q 749 739 747 746 q 751 723 751 731 q 746 705 750 713 q 735 689 742 696 l 1086 947 l 684 779 q 692 779 688 779 q 701 779 696 779 m 92 122 q 77 120 83 122 q 65 114 71 118 q 58 107 62 111 q 53 99 53 103 l 53 119 l 11 119 l 11 -22 l 54 -22 l 54 56 q 54 67 54 62 q 57 77 54 72 q 66 89 60 85 q 81 92 72 92 q 94 90 88 92 q 103 81 100 87 q 106 74 104 79 q 107 64 107 69 l 107 -22 l 140 -22 l 140 73 q 136 96 140 87 q 127 111 133 106 q 112 120 121 118 q 92 122 103 122 m 237 123 q 206 118 220 123 q 184 102 193 113 q 171 78 175 91 q 167 50 167 65 q 171 21 167 34 q 184 -3 175 8 q 207 -18 194 -12 q 237 -24 220 -24 q 269 -18 255 -24 q 290 -3 282 -12 q 304 21 300 8 q 308 50 308 34 q 304 78 308 65 q 290 102 300 91 q 269 118 282 113 q 237 123 255 123 m 263 18 q 252 9 259 12 q 237 7 245 7 q 223 9 229 7 q 213 18 217 12 q 205 31 208 23 q 203 50 203 39 q 206 69 203 61 q 213 83 209 77 q 223 91 217 88 q 237 94 229 94 q 252 91 245 94 q 263 83 258 88 q 269 69 267 77 q 271 50 271 61 q 269 31 271 39 q 263 18 267 22 m 423 100 q 418 110 423 106 q 408 117 412 114 q 397 120 403 118 q 387 122 392 122 q 362 117 373 122 q 343 100 351 111 q 331 77 335 91 q 327 45 327 62 q 331 16 327 28 q 343 -7 335 3 q 361 -21 351 -16 q 384 -26 372 -26 q 397 -24 392 -26 q 407 -20 401 -23 q 418 -13 412 -18 q 423 -3 423 -8 l 423 -23 l 467 -23 l 467 161 l 423 161 l 423 100 m 418 18 q 408 9 414 12 q 393 5 401 5 q 380 9 385 5 q 372 18 374 12 q 366 31 368 23 q 363 47 363 39 q 366 64 363 57 q 372 79 368 72 q 381 87 376 84 q 395 90 387 90 q 405 88 400 90 q 414 84 410 87 q 423 68 420 77 q 426 46 426 60 q 424 31 426 38 q 418 18 422 23 l 418 18 m 610 95 q 599 108 605 103 q 586 117 593 113 q 571 121 579 119 q 553 122 563 122 q 526 117 538 122 q 503 103 513 113 q 489 79 494 94 q 484 47 484 65 q 490 14 484 28 q 506 -8 495 0 q 529 -20 517 -16 q 555 -24 541 -24 q 585 -19 571 -24 q 606 -4 598 -14 q 616 8 612 3 q 620 22 620 14 l 583 22 q 579 18 581 22 q 575 12 578 14 q 566 7 571 8 q 555 5 562 5 q 544 7 549 5 q 534 14 538 9 q 524 23 528 18 q 519 45 519 28 l 621 45 q 621 59 621 53 q 620 69 620 65 q 617 83 620 77 q 610 95 614 90 l 610 95 m 522 65 q 525 77 522 73 q 532 85 528 81 q 541 92 536 90 q 553 94 547 94 q 566 92 560 94 q 575 87 571 90 q 582 78 579 83 q 585 65 585 73 l 522 65 l 522 65 m 757 4 l 727 119 l 709 119 l 678 3 l 643 119 l 627 119 l 669 -22 l 688 -22 l 718 98 l 719 98 l 747 -22 l 765 -22 l 808 119 l 792 119 l 757 4 m 930 100 q 911 115 922 110 q 887 119 901 119 q 873 118 879 119 q 860 114 867 117 q 850 107 854 111 q 841 99 845 103 q 833 88 837 94 q 829 76 830 83 q 825 62 826 69 q 825 47 825 56 q 825 33 825 41 q 827 19 826 26 q 833 7 830 14 q 838 -3 836 1 q 848 -12 842 -8 q 859 -19 853 -15 q 871 -22 864 -20 q 887 -24 879 -24 q 899 -23 892 -24 q 909 -20 905 -22 q 918 -16 914 -19 q 925 -11 922 -14 q 932 -5 929 -8 q 937 3 935 -1 q 942 10 940 7 q 945 22 944 14 l 928 22 q 922 8 926 14 q 913 -1 918 3 q 901 -7 907 -5 q 887 -9 894 -9 q 876 -9 880 -9 q 867 -5 871 -8 q 859 0 863 -3 q 853 7 856 3 q 848 14 850 9 q 844 23 846 18 q 842 31 842 27 q 841 43 841 35 l 947 43 q 943 75 947 60 q 930 100 939 90 l 930 100 m 841 54 q 843 66 842 62 q 845 73 844 69 q 849 82 846 77 q 854 90 852 87 q 860 96 856 94 q 868 100 864 99 q 877 104 872 103 q 887 106 882 106 q 896 104 891 106 q 905 102 901 103 q 912 98 909 100 q 918 92 916 95 q 923 85 921 90 q 925 76 925 80 q 928 68 928 72 q 929 57 929 65 l 841 57 l 841 54 m 1088 98 q 1080 106 1084 103 q 1070 113 1076 110 q 1058 117 1065 117 q 1043 118 1051 118 q 1029 117 1035 118 q 1017 111 1024 115 q 1004 104 1010 109 q 998 94 998 99 l 998 163 l 977 163 l 977 -22 l 998 -22 l 998 0 l 996 0 q 999 -3 997 0 q 1004 -9 1001 -7 q 1009 -14 1006 -12 q 1016 -18 1012 -16 q 1022 -20 1019 -19 q 1028 -22 1025 -20 q 1036 -23 1032 -23 q 1042 -23 1039 -23 q 1057 -22 1050 -23 q 1070 -18 1065 -20 q 1080 -11 1076 -15 q 1088 -3 1085 -7 q 1095 8 1092 3 q 1099 20 1097 14 q 1102 35 1101 27 q 1103 49 1103 42 q 1102 62 1103 56 q 1099 76 1101 69 q 1095 87 1097 81 q 1088 98 1092 92 l 1088 98 m 1082 20 q 1079 12 1081 16 q 1073 4 1077 8 q 1067 -1 1070 1 q 1058 -7 1063 -4 q 1049 -9 1054 -8 q 1039 -9 1044 -9 q 1029 -9 1034 -9 q 1020 -5 1024 -8 q 1012 0 1016 -3 q 1006 7 1008 3 q 1000 15 1002 11 q 997 24 998 19 q 995 37 996 31 q 994 47 994 42 q 995 59 994 53 q 997 69 996 65 q 1001 79 998 75 q 1006 88 1004 84 q 1013 95 1009 92 q 1020 100 1016 98 q 1029 103 1024 102 q 1039 104 1034 104 q 1051 103 1046 104 q 1061 100 1057 102 q 1068 94 1065 98 q 1076 87 1072 91 q 1080 78 1078 83 q 1084 68 1082 73 q 1086 56 1085 61 q 1086 43 1086 50 q 1086 31 1086 37 q 1082 20 1085 26 m 1240 119 l 1218 119 l 1150 52 l 1150 163 l 1139 163 l 1139 -22 l 1150 -22 l 1150 31 l 1176 54 l 1227 -22 l 1245 -22 l 1188 68 l 1240 119 m 1270 119 l 1280 119 l 1280 -22 l 1270 -22 l 1270 119 m 1270 163 l 1291 163 l 1291 141 l 1270 141 l 1270 163 m 1370 -9 l 1362 -9 q 1357 -9 1359 -9 q 1354 -8 1355 -9 q 1350 -7 1351 -8 q 1348 -5 1350 -7 q 1348 -3 1348 -4 q 1347 1 1347 -1 q 1346 5 1347 3 q 1345 9 1345 7 l 1345 98 l 1367 98 l 1367 119 l 1345 119 l 1345 152 l 1335 152 l 1335 119 l 1313 119 l 1313 98 l 1335 98 l 1335 3 q 1335 -9 1335 -4 q 1339 -18 1336 -15 q 1346 -22 1343 -20 q 1356 -23 1350 -23 q 1363 -23 1359 -23 q 1369 -22 1367 -23 q 1371 -20 1371 -20 q 1378 -19 1370 -20 l 1378 -7 q 1371 -9 1370 -8 q 1370 -9 1371 -9 l 1370 -9 z "},"":{"ha":1389,"x_min":76,"x_max":1291,"o":"m 1249 994 l 726 1295 q 706 1303 718 1301 q 684 1305 694 1305 q 661 1303 673 1305 q 642 1295 650 1301 l 118 994 q 88 962 100 983 q 76 921 76 941 l 76 317 q 88 275 76 297 q 118 244 100 254 l 642 -58 q 661 -66 650 -64 q 684 -68 673 -68 q 706 -66 694 -68 q 726 -58 718 -64 l 1249 244 q 1278 275 1265 254 q 1291 317 1291 297 l 1291 921 q 1279 962 1291 941 q 1249 994 1267 983 l 1249 994 m 1259 316 q 1251 290 1259 304 q 1233 271 1242 277 l 709 -31 q 698 -35 705 -34 q 684 -37 690 -37 q 669 -35 677 -37 q 658 -31 662 -34 l 134 271 q 117 290 125 277 q 109 316 109 304 l 109 921 q 117 947 109 933 q 134 966 125 960 l 658 1267 q 669 1271 662 1270 q 684 1272 677 1272 q 698 1271 690 1272 q 709 1267 705 1270 l 1233 966 q 1251 947 1242 960 q 1259 921 1259 933 l 1259 316 m 727 643 q 710 662 720 654 q 686 670 700 670 l 684 673 q 650 658 665 673 q 633 624 635 643 q 635 609 633 617 q 640 594 636 601 q 657 578 647 585 q 681 570 667 571 l 684 570 q 718 583 703 570 q 734 616 732 597 q 732 630 734 623 q 727 643 730 637 m 684 572 l 681 572 q 659 578 669 572 q 643 594 648 585 q 637 606 639 601 q 636 620 636 612 q 650 650 637 639 q 682 662 663 662 l 686 665 q 707 658 697 663 q 724 642 718 652 q 728 629 727 636 q 730 616 730 621 q 716 585 730 597 q 684 572 703 572 l 684 572 m 700 618 q 695 607 700 612 q 684 602 690 602 q 672 607 677 602 q 667 618 667 612 q 672 630 667 625 q 684 635 677 635 q 695 630 690 635 q 700 618 700 625 m 684 553 l 680 553 q 649 563 663 555 q 627 586 635 571 q 619 604 621 595 q 617 624 617 613 q 623 646 618 635 q 635 665 628 656 l 206 338 l 699 555 l 699 556 q 691 553 694 553 q 684 553 688 553 l 684 553 m 667 682 q 677 684 673 684 q 688 685 682 685 q 718 675 704 684 q 741 652 732 666 q 748 633 746 643 q 750 614 750 624 q 744 591 749 602 q 731 572 739 581 l 1164 892 l 667 682 l 667 682 z "},"":{"ha":1389,"x_min":11,"x_max":1378,"o":"m 662 728 q 675 715 667 720 q 692 709 682 711 l 693 709 q 719 720 708 709 q 730 745 730 730 q 729 755 730 750 q 724 765 728 761 q 712 777 720 773 q 696 783 704 781 q 694 782 694 783 q 693 781 693 781 q 668 772 678 781 q 656 747 658 762 q 658 737 656 742 q 662 728 659 732 l 662 728 m 696 760 q 705 755 701 760 q 708 746 708 751 q 703 736 708 739 q 693 734 699 732 q 684 738 688 734 q 681 747 681 742 q 686 757 681 753 q 696 760 690 761 m 248 450 l 662 210 q 695 202 675 202 q 728 210 715 202 l 1141 450 q 1163 475 1154 458 q 1172 507 1172 492 l 1172 986 q 1163 1019 1172 1002 q 1141 1044 1154 1036 l 727 1283 q 694 1291 713 1291 q 661 1283 674 1291 l 248 1043 q 226 1018 235 1035 q 217 985 217 1001 l 217 507 q 226 474 217 491 q 248 450 235 457 l 248 450 m 1076 963 l 732 711 q 743 726 739 718 q 746 743 746 734 q 745 759 747 751 q 741 773 743 766 q 722 791 734 784 q 697 799 711 798 q 689 799 693 799 q 681 798 685 799 l 1076 963 m 694 781 l 697 784 q 716 779 708 783 q 730 765 724 774 q 734 754 732 760 q 735 743 735 749 q 722 718 734 728 q 696 707 711 707 l 693 707 q 675 712 684 707 q 662 726 667 718 q 658 735 659 731 q 656 746 656 739 q 668 772 656 762 q 694 781 680 781 m 655 783 q 646 768 650 776 q 642 750 642 760 q 642 734 640 742 q 648 720 644 727 q 665 703 654 709 q 690 694 677 696 l 693 694 q 699 694 697 694 q 704 696 701 694 l 313 524 l 655 783 l 655 783 m 92 122 q 77 120 83 122 q 65 114 71 118 q 58 107 62 111 q 53 99 53 103 l 53 119 l 11 119 l 11 -22 l 54 -22 l 54 56 q 54 67 54 62 q 57 77 54 72 q 66 89 60 85 q 81 92 72 92 q 94 90 88 92 q 103 81 100 87 q 106 74 104 79 q 107 64 107 69 l 107 -22 l 140 -22 l 140 73 q 136 96 140 87 q 127 111 133 106 q 112 120 121 118 q 92 122 103 122 m 237 123 q 206 118 220 123 q 184 102 193 113 q 171 78 175 91 q 167 50 167 65 q 171 21 167 34 q 184 -3 175 8 q 207 -18 194 -12 q 237 -24 220 -24 q 269 -18 255 -24 q 290 -3 282 -12 q 304 21 300 8 q 308 50 308 34 q 304 78 308 65 q 290 102 300 91 q 269 118 282 113 q 237 123 255 123 m 263 18 q 252 9 259 12 q 237 7 245 7 q 223 9 229 7 q 213 18 217 12 q 205 31 208 23 q 203 50 203 39 q 206 69 203 61 q 213 83 209 77 q 223 91 217 88 q 237 94 229 94 q 252 91 245 94 q 263 83 258 88 q 269 69 267 77 q 271 50 271 61 q 269 31 271 39 q 263 18 267 22 m 423 100 q 418 110 423 106 q 408 117 412 114 q 397 120 403 118 q 387 122 392 122 q 362 117 373 122 q 343 100 351 111 q 331 77 335 91 q 327 45 327 62 q 331 16 327 28 q 343 -7 335 3 q 361 -21 351 -16 q 384 -26 372 -26 q 397 -24 392 -26 q 407 -20 401 -23 q 418 -13 412 -18 q 423 -3 423 -8 l 423 -23 l 467 -23 l 467 161 l 423 161 l 423 100 m 418 18 q 408 9 414 12 q 393 5 401 5 q 380 9 385 5 q 372 18 374 12 q 366 31 368 23 q 363 47 363 39 q 366 64 363 57 q 372 79 368 72 q 381 87 376 84 q 395 90 387 90 q 405 88 400 90 q 414 84 410 87 q 423 68 420 77 q 426 46 426 60 q 424 31 426 38 q 418 18 422 23 l 418 18 m 610 95 q 599 108 605 103 q 586 117 593 113 q 571 121 579 119 q 553 122 563 122 q 526 117 538 122 q 503 103 513 113 q 489 79 494 94 q 484 47 484 65 q 490 14 484 28 q 506 -8 495 0 q 529 -20 517 -16 q 555 -24 541 -24 q 585 -19 571 -24 q 606 -4 598 -14 q 616 8 612 3 q 620 22 620 14 l 583 22 q 579 18 581 22 q 575 12 578 14 q 566 7 571 8 q 555 5 562 5 q 544 7 549 5 q 534 14 538 9 q 524 23 528 18 q 519 45 519 28 l 621 45 q 621 59 621 53 q 620 69 620 65 q 617 83 620 77 q 610 95 614 90 l 610 95 m 522 65 q 525 77 522 73 q 532 85 528 81 q 541 92 536 90 q 553 94 547 94 q 566 92 560 94 q 575 87 571 90 q 582 78 579 83 q 585 65 585 73 l 522 65 l 522 65 m 757 4 l 727 119 l 709 119 l 678 3 l 643 119 l 627 119 l 669 -22 l 688 -22 l 718 98 l 719 98 l 747 -22 l 765 -22 l 808 119 l 792 119 l 757 4 m 930 100 q 911 115 922 110 q 887 119 901 119 q 873 118 879 119 q 860 114 867 117 q 850 107 854 111 q 841 99 845 103 q 833 88 837 94 q 829 76 830 83 q 825 62 826 69 q 825 47 825 56 q 825 33 825 41 q 827 19 826 26 q 833 7 830 14 q 838 -3 836 1 q 848 -12 842 -8 q 859 -19 853 -15 q 871 -22 864 -20 q 887 -24 879 -24 q 899 -23 892 -24 q 909 -20 905 -22 q 918 -16 914 -19 q 925 -11 922 -14 q 932 -5 929 -8 q 937 3 935 -1 q 942 10 940 7 q 945 22 944 14 l 928 22 q 922 8 926 14 q 913 -1 918 3 q 901 -7 907 -5 q 887 -9 894 -9 q 876 -9 880 -9 q 867 -5 871 -8 q 859 0 863 -3 q 853 7 856 3 q 848 14 850 9 q 844 23 846 18 q 842 31 842 27 q 841 43 841 35 l 947 43 q 943 75 947 60 q 930 100 939 90 l 930 100 m 841 54 q 843 66 842 62 q 845 73 844 69 q 849 82 846 77 q 854 90 852 87 q 860 96 856 94 q 868 100 864 99 q 877 104 872 103 q 887 106 882 106 q 896 104 891 106 q 905 102 901 103 q 912 98 909 100 q 918 92 916 95 q 923 85 921 90 q 925 76 925 80 q 928 68 928 72 q 929 57 929 65 l 841 57 l 841 54 m 1088 98 q 1080 106 1084 103 q 1070 113 1076 110 q 1058 117 1065 117 q 1043 118 1051 118 q 1029 117 1035 118 q 1017 111 1024 115 q 1004 104 1010 109 q 998 94 998 99 l 998 163 l 977 163 l 977 -22 l 998 -22 l 998 0 l 996 0 q 999 -3 997 0 q 1004 -9 1001 -7 q 1009 -14 1006 -12 q 1016 -18 1012 -16 q 1022 -20 1019 -19 q 1028 -22 1025 -20 q 1036 -23 1032 -23 q 1042 -23 1039 -23 q 1057 -22 1050 -23 q 1070 -18 1065 -20 q 1080 -11 1076 -15 q 1088 -3 1085 -7 q 1095 8 1092 3 q 1099 20 1097 14 q 1102 35 1101 27 q 1103 49 1103 42 q 1102 62 1103 56 q 1099 76 1101 69 q 1095 87 1097 81 q 1088 98 1092 92 l 1088 98 m 1082 20 q 1079 12 1081 16 q 1073 4 1077 8 q 1067 -1 1070 1 q 1058 -7 1063 -4 q 1049 -9 1054 -8 q 1039 -9 1044 -9 q 1029 -9 1034 -9 q 1020 -5 1024 -8 q 1012 0 1016 -3 q 1006 7 1008 3 q 1000 15 1002 11 q 997 24 998 19 q 995 37 996 31 q 994 47 994 42 q 995 59 994 53 q 997 69 996 65 q 1001 79 998 75 q 1006 88 1004 84 q 1013 95 1009 92 q 1020 100 1016 98 q 1029 103 1024 102 q 1039 104 1034 104 q 1051 103 1046 104 q 1061 100 1057 102 q 1068 94 1065 98 q 1076 87 1072 91 q 1080 78 1078 83 q 1084 68 1082 73 q 1086 56 1085 61 q 1086 43 1086 50 q 1086 31 1086 37 q 1082 20 1085 26 m 1240 119 l 1218 119 l 1150 52 l 1150 163 l 1139 163 l 1139 -22 l 1150 -22 l 1150 31 l 1176 54 l 1227 -22 l 1245 -22 l 1188 68 l 1240 119 m 1270 119 l 1280 119 l 1280 -22 l 1270 -22 l 1270 119 m 1270 163 l 1291 163 l 1291 141 l 1270 141 l 1270 163 m 1370 -9 l 1362 -9 q 1357 -9 1359 -9 q 1354 -8 1355 -9 q 1350 -7 1351 -8 q 1348 -5 1350 -7 q 1348 -3 1348 -4 q 1347 1 1347 -1 q 1346 5 1347 3 q 1345 9 1345 7 l 1345 98 l 1367 98 l 1367 119 l 1345 119 l 1345 152 l 1335 152 l 1335 119 l 1313 119 l 1313 98 l 1335 98 l 1335 3 q 1335 -9 1335 -4 q 1339 -18 1336 -15 q 1346 -22 1343 -20 q 1356 -23 1350 -23 q 1363 -23 1359 -23 q 1369 -22 1367 -23 q 1371 -20 1371 -20 q 1378 -19 1370 -20 l 1378 -7 q 1371 -9 1370 -8 q 1370 -9 1371 -9 l 1370 -9 z "},"":{"ha":1389,"x_min":109,"x_max":1322,"o":"m 757 632 q 741 648 750 642 q 719 654 731 654 l 715 654 q 683 642 696 654 q 669 610 670 629 q 669 597 667 604 q 675 583 671 590 q 691 568 681 574 q 713 562 701 562 l 716 562 q 749 574 735 562 q 762 605 762 586 q 762 618 764 612 q 757 632 761 625 l 757 632 m 715 591 q 703 597 708 593 q 700 609 699 602 q 706 621 701 616 q 718 624 711 625 q 729 618 724 623 q 732 606 734 613 q 727 595 732 600 q 715 591 722 590 m 1282 983 l 758 1284 q 717 1294 742 1294 q 675 1284 692 1294 l 151 983 q 121 952 134 974 q 109 910 109 930 l 109 307 q 121 264 109 286 q 151 233 133 243 l 674 -69 q 715 -79 690 -79 q 757 -69 741 -79 l 1280 233 q 1310 264 1298 243 q 1322 307 1322 286 l 1322 910 q 1311 951 1324 930 q 1282 983 1298 972 l 1282 983 m 239 327 l 667 654 l 667 652 q 656 634 661 644 q 650 612 651 624 q 652 593 650 602 q 659 574 654 583 q 681 551 667 559 q 712 541 694 543 l 716 541 q 724 542 720 541 q 730 544 727 543 l 239 327 m 716 557 l 713 557 q 690 565 701 559 q 673 583 680 571 q 667 596 669 589 q 666 610 666 604 q 682 644 667 631 q 716 658 697 658 l 719 658 q 742 650 731 656 q 760 632 753 643 q 765 619 764 627 q 766 605 766 612 q 750 571 765 585 q 716 557 735 557 m 764 562 q 777 581 772 570 q 783 604 781 591 q 781 623 783 613 q 773 642 779 632 q 751 665 765 656 q 720 674 736 673 q 711 673 716 674 q 700 671 705 673 l 1196 882 l 764 562 l 764 562 z "},"":{"ha":1389,"x_min":11,"x_max":1363,"o":"m 266 754 q 246 745 254 754 q 239 724 239 736 l 239 572 l 66 746 q 50 753 60 751 q 31 751 39 755 q 17 741 23 749 q 11 724 11 734 l 11 500 q 21 479 11 488 q 43 471 31 471 q 66 479 56 471 q 76 500 76 488 l 76 654 l 251 480 q 260 473 255 476 q 271 471 266 471 q 275 471 274 471 q 279 473 277 472 q 290 484 288 476 q 293 500 293 491 l 293 724 q 286 745 293 736 q 266 754 278 754 l 266 754 m 480 627 q 459 617 468 627 q 450 595 450 608 q 459 575 450 585 q 480 566 468 566 l 551 562 l 534 521 l 442 521 l 397 606 l 444 694 l 543 694 l 566 651 l 625 651 l 586 736 l 578 749 l 408 749 l 400 735 l 336 624 l 328 610 l 336 595 l 399 484 l 408 467 l 572 467 l 579 486 l 627 583 l 647 629 l 600 629 l 480 627 l 480 627 m 705 754 q 684 745 694 754 q 673 724 673 736 l 673 651 l 738 651 l 738 724 q 727 745 738 736 q 705 754 716 754 m 1035 751 q 1017 753 1027 754 q 1001 745 1008 751 l 825 571 l 825 724 q 817 745 825 736 q 798 753 810 753 q 778 745 785 753 q 770 724 770 736 l 770 499 q 776 482 770 490 q 789 472 781 475 q 794 470 791 471 q 800 469 798 469 q 812 472 806 469 q 822 479 818 475 l 998 652 l 998 499 q 1006 478 998 487 q 1025 469 1013 469 q 1045 478 1038 469 q 1053 499 1053 487 l 1053 724 q 1048 740 1053 732 q 1035 751 1043 747 l 1035 751 m 1272 612 l 1363 703 q 1371 724 1371 712 q 1363 745 1371 736 q 1341 753 1354 753 q 1321 745 1329 753 l 1230 654 l 1139 745 q 1118 753 1130 753 q 1099 745 1107 753 q 1089 723 1089 735 q 1099 703 1089 711 l 1190 612 l 1099 521 q 1089 500 1089 511 q 1099 480 1089 488 q 1108 473 1103 476 q 1119 471 1114 471 q 1130 473 1124 471 q 1139 480 1135 476 l 1230 571 l 1321 480 q 1331 473 1325 476 q 1343 471 1336 471 q 1354 473 1348 471 q 1363 480 1359 476 q 1371 500 1371 488 q 1363 521 1371 513 l 1272 612 l 1272 612 m 673 500 q 683 479 673 488 q 705 471 693 471 q 727 479 716 471 q 738 500 738 488 l 738 629 l 673 629 l 673 500 z "},"":{"ha":1389,"x_min":11,"x_max":1378,"o":"m 198 1206 l 11 1204 l 11 336 l 225 336 l 225 339 q 155 431 186 381 q 102 538 123 481 q 68 659 80 595 q 57 792 57 723 q 66 911 57 854 q 94 1021 76 968 q 138 1119 111 1073 q 198 1206 164 1165 m 1200 1204 q 1277 1050 1251 1139 q 1299 856 1303 960 q 1299 837 1299 846 q 1299 803 1299 827 l 502 803 q 518 642 502 718 q 571 510 536 567 q 663 420 606 453 q 799 388 719 388 q 989 457 909 388 q 1123 616 1069 526 l 1329 510 q 1271 419 1302 461 q 1206 336 1240 377 l 1378 336 l 1378 1204 l 1200 1204 l 1200 1204 m 707 1187 q 578 1139 633 1187 q 515 1009 522 1090 l 879 1009 q 828 1139 876 1090 q 707 1187 780 1187 m 11 22 l 119 22 l 119 54 l 54 54 l 54 109 l 119 109 l 119 141 l 54 141 l 54 195 l 119 195 l 119 228 l 11 228 l 11 22 m 355 165 q 335 214 355 199 q 285 228 315 228 l 228 228 l 228 22 l 271 22 l 271 102 l 320 22 l 372 22 l 312 109 q 344 127 332 111 q 355 165 355 144 m 274 130 l 271 130 l 271 195 l 274 195 q 301 189 290 195 q 312 161 312 182 q 301 136 312 142 q 274 130 290 130 m 499 228 l 456 228 l 456 22 l 564 22 l 564 54 l 499 54 l 499 228 m 719 239 l 635 22 l 678 22 l 697 65 l 770 65 l 789 22 l 833 22 l 751 239 l 719 239 m 708 98 l 731 178 l 760 98 l 708 98 l 708 98 m 1053 85 l 941 239 l 911 239 l 911 22 l 955 22 l 955 160 l 1066 11 l 1096 11 l 1096 228 l 1053 228 l 1053 85 m 1280 130 l 1280 98 l 1324 98 q 1308 60 1322 73 q 1275 47 1294 47 q 1229 71 1244 47 q 1213 122 1214 95 q 1228 174 1213 149 q 1275 199 1244 199 q 1304 190 1291 199 q 1324 165 1317 180 l 1359 184 q 1324 223 1347 210 q 1275 236 1302 236 q 1198 202 1227 236 q 1169 122 1169 168 q 1198 43 1171 77 q 1271 9 1225 9 q 1344 45 1321 11 q 1367 126 1367 80 l 1367 130 l 1280 130 l 1280 130 z "},"":{"ha":1389,"x_min":11,"x_max":1378,"o":"m 198 1040 l 11 1042 l 11 174 l 225 174 l 225 175 q 155 267 186 217 q 102 374 123 316 q 68 495 80 431 q 57 628 57 559 q 66 747 57 689 q 94 856 76 804 q 138 955 111 907 q 198 1040 164 1001 l 198 1040 m 1378 1042 l 1200 1042 q 1277 883 1251 968 q 1299 693 1303 798 q 1299 674 1299 684 q 1299 640 1299 665 l 502 640 q 518 475 502 551 q 571 343 536 399 q 663 255 606 288 q 799 224 719 224 q 989 293 909 224 q 1123 450 1069 362 l 1329 347 q 1271 256 1302 297 q 1206 174 1240 214 l 1378 174 l 1378 1042 l 1378 1042 m 707 1024 q 578 972 633 1024 q 515 846 522 920 l 879 846 q 828 972 876 920 q 707 1024 780 1024 z "},"":{"ha":1389,"x_min":15,"x_max":1371,"o":"m 1090 637 q 1086 676 1089 656 q 1078 716 1084 696 q 1042 807 1066 764 q 981 892 1017 850 q 944 933 963 913 q 907 974 925 954 l 875 1009 l 823 1065 q 748 1147 787 1105 q 671 1229 709 1188 q 650 1251 662 1240 q 627 1272 639 1263 q 576 1296 604 1291 q 518 1291 548 1301 q 501 1284 509 1289 q 486 1278 494 1280 q 475 1269 480 1274 q 465 1260 469 1264 q 445 1221 450 1242 q 442 1172 439 1199 q 453 1137 445 1154 q 476 1104 461 1120 l 549 1024 l 576 994 q 491 945 530 972 q 418 884 452 917 q 368 829 388 857 q 335 773 349 802 q 305 675 313 727 q 301 564 297 624 q 307 519 302 543 q 321 475 312 496 q 354 410 334 441 q 401 350 374 380 q 523 260 456 292 q 669 225 590 229 l 689 224 q 709 224 700 224 q 730 225 719 225 q 768 229 747 225 q 811 237 788 232 q 914 282 867 252 q 998 357 962 312 q 1069 488 1046 418 q 1090 637 1093 559 l 1090 637 m 971 378 q 895 311 937 338 q 800 270 852 283 q 762 262 780 266 q 726 258 743 259 q 697 257 711 258 q 669 258 684 256 q 534 290 595 262 q 425 372 473 319 q 380 428 399 400 q 350 486 362 456 q 338 526 342 506 q 332 567 334 547 q 336 669 328 621 q 363 760 345 718 q 394 810 376 785 q 439 860 412 834 q 513 921 473 894 q 600 970 553 948 l 606 974 q 610 975 609 974 q 613 979 612 977 l 624 990 l 572 1046 l 499 1126 q 482 1150 488 1138 q 475 1175 476 1162 q 476 1211 472 1195 q 490 1240 480 1227 q 495 1244 492 1241 q 502 1249 498 1248 q 513 1255 507 1252 q 525 1261 519 1259 q 541 1264 533 1263 q 555 1265 548 1265 q 581 1261 568 1265 q 604 1246 593 1256 q 625 1227 614 1238 q 644 1207 635 1217 l 848 986 l 880 951 q 917 911 898 930 q 954 871 936 891 q 1010 791 987 831 q 1044 708 1034 750 q 1053 671 1050 689 q 1055 637 1055 654 q 1038 500 1059 564 q 971 378 1017 435 l 971 378 m 884 722 l 817 789 l 784 823 q 755 852 769 837 q 727 880 742 867 q 693 902 711 895 q 656 909 675 909 q 615 897 633 906 q 586 868 597 887 q 578 850 581 860 q 576 831 575 841 q 584 798 576 814 q 605 768 591 783 l 651 723 q 663 711 656 718 q 674 701 669 705 l 510 701 q 493 701 500 701 q 479 700 486 701 q 452 694 465 699 q 431 680 439 689 q 408 642 414 663 q 406 595 401 620 q 425 555 411 571 q 464 534 439 540 q 479 533 472 533 q 494 532 487 533 q 532 530 513 530 q 572 529 552 529 l 674 529 l 628 484 q 604 457 614 471 q 589 430 594 444 q 581 403 582 416 q 583 377 579 389 q 613 339 591 354 q 661 324 635 324 q 684 328 673 324 q 703 338 694 331 q 722 352 713 345 q 738 366 731 359 l 884 505 q 919 545 905 524 q 941 589 933 567 q 945 602 944 595 q 947 616 947 609 q 942 640 947 629 q 932 659 937 651 q 908 695 921 680 q 884 722 895 711 l 884 722 m 911 601 q 892 564 905 582 q 861 529 879 545 q 788 459 825 494 q 715 391 751 425 q 700 376 708 384 q 684 363 692 369 q 673 359 678 361 q 659 357 667 357 q 633 364 647 357 q 613 388 618 372 q 611 401 610 395 q 616 416 612 408 q 631 439 623 429 q 650 463 639 450 q 673 486 662 475 q 697 509 685 498 l 719 529 l 722 534 l 750 564 l 692 564 l 673 563 q 652 563 662 563 q 631 562 642 563 q 620 562 625 562 q 609 562 614 562 l 578 560 l 571 560 q 532 561 551 560 q 494 562 513 562 q 481 562 488 562 q 469 564 475 563 q 448 576 456 567 q 437 600 439 585 q 438 629 434 616 q 453 654 442 643 q 466 662 458 659 q 480 665 473 665 q 493 665 486 665 q 509 665 500 665 l 529 663 q 538 662 533 663 q 549 661 544 661 l 750 663 l 716 701 l 699 720 l 674 745 q 651 766 662 755 q 629 789 640 777 q 615 809 620 799 q 610 831 610 819 q 611 840 610 836 q 616 849 612 845 q 633 867 623 861 q 659 875 644 873 q 683 870 671 875 q 705 854 694 865 q 733 827 719 841 q 761 800 747 814 l 795 766 q 828 732 811 749 q 861 697 845 715 q 883 674 871 688 q 903 643 895 661 q 911 627 909 635 q 914 613 914 620 q 913 608 914 610 q 911 601 913 605 l 911 601 m 141 104 q 119 123 133 117 q 91 129 106 129 q 62 123 75 129 q 37 106 49 118 q 20 76 26 94 q 15 35 15 58 q 21 -5 15 12 q 38 -35 27 -23 q 62 -55 49 -49 q 92 -61 76 -61 q 108 -59 99 -61 q 123 -53 117 -57 q 138 -43 132 -49 q 152 -30 144 -38 l 152 -56 l 195 -56 l 195 194 l 141 194 l 141 104 m 134 -8 q 121 -18 129 -15 q 106 -22 114 -22 q 88 -17 96 -22 q 73 -3 80 -12 q 68 14 69 3 q 66 39 66 24 q 69 63 66 53 q 79 80 72 73 q 91 91 84 87 q 106 95 98 95 q 123 92 115 95 q 136 80 130 88 q 144 62 141 73 q 146 35 146 52 q 143 9 146 20 q 134 -8 140 -1 m 324 130 q 300 127 312 130 q 275 118 288 123 q 256 104 264 113 q 241 84 248 95 q 233 60 236 72 q 231 37 231 49 q 233 8 231 22 q 241 -16 236 -5 q 257 -36 248 -27 q 277 -50 266 -45 q 300 -58 288 -56 q 324 -61 312 -61 q 361 -54 345 -61 q 392 -34 378 -47 q 412 -3 404 -20 q 419 35 419 15 q 412 73 419 56 q 393 102 406 90 q 361 123 378 117 q 324 130 345 130 l 324 130 m 355 -7 q 342 -17 350 -14 q 324 -20 334 -20 q 307 -17 315 -20 q 293 -7 300 -14 q 283 12 286 1 q 279 35 279 22 q 283 58 279 47 q 293 76 286 69 q 308 86 300 83 q 324 90 316 90 q 342 86 334 90 q 355 76 350 83 q 366 59 362 69 q 369 35 369 49 q 366 12 369 22 q 355 -7 362 1 m 557 -14 q 548 -19 553 -18 q 534 -20 543 -20 q 519 -17 526 -20 q 506 -8 511 -14 q 498 10 500 -1 q 495 38 495 22 q 498 63 495 53 q 506 79 500 73 q 518 88 511 85 q 534 91 525 91 q 546 90 540 91 q 556 84 552 88 q 563 75 560 80 q 567 62 566 69 l 614 71 q 603 96 610 85 q 586 114 595 107 q 563 124 576 121 q 533 127 549 127 q 496 121 513 127 q 469 103 480 115 q 451 73 457 91 q 445 33 445 56 q 451 -7 445 11 q 469 -37 457 -24 q 497 -56 481 -49 q 533 -62 513 -62 q 565 -58 551 -62 q 589 -46 579 -54 q 607 -26 600 -38 q 617 3 614 -14 l 570 11 q 565 -3 568 4 q 557 -14 562 -9 l 557 -14 m 715 -20 q 711 -20 712 -20 q 707 -19 709 -19 q 705 -16 705 -18 q 704 -12 704 -15 q 705 -4 704 -11 q 705 14 705 3 l 705 87 l 738 87 l 738 130 l 705 130 l 705 190 l 651 161 l 651 130 l 629 130 l 629 87 l 651 87 l 651 8 q 652 -14 651 -5 q 654 -26 654 -22 q 656 -36 654 -31 q 661 -45 658 -41 q 667 -51 663 -47 q 675 -56 671 -54 q 687 -59 681 -58 q 700 -60 693 -60 q 720 -58 711 -60 q 738 -52 730 -56 l 734 -15 q 724 -19 728 -18 q 715 -20 719 -20 l 715 -20 m 833 123 q 821 115 829 121 q 814 100 814 109 l 814 130 l 770 130 l 770 -54 l 814 -54 l 814 0 q 814 38 814 23 q 818 61 815 53 q 823 73 821 68 q 829 81 826 79 q 837 85 833 84 q 846 87 841 87 q 857 85 852 87 q 869 79 863 83 l 884 122 q 869 128 878 126 q 853 130 861 130 q 842 129 848 130 q 833 123 837 127 m 901 195 l 955 195 l 955 152 l 901 152 l 901 195 m 901 130 l 955 130 l 955 -54 l 901 -54 l 901 130 m 1156 110 q 1147 118 1153 114 q 1137 125 1142 122 q 1121 129 1130 127 q 1104 130 1112 130 q 1072 123 1086 130 q 1042 100 1058 115 l 1042 130 l 998 130 l 998 -54 l 1053 -54 l 1053 26 q 1053 52 1053 42 q 1055 68 1053 62 q 1060 79 1057 75 q 1067 87 1063 84 q 1078 92 1073 90 q 1089 94 1084 94 q 1099 92 1095 94 q 1105 90 1103 91 q 1111 83 1109 87 q 1115 76 1112 80 q 1116 62 1116 72 q 1116 38 1116 53 l 1116 -53 l 1171 -53 l 1171 57 q 1169 76 1171 68 q 1166 90 1168 84 q 1162 100 1165 95 q 1156 110 1158 104 m 1310 -19 q 1301 -23 1306 -22 q 1291 -24 1297 -24 q 1276 -22 1283 -24 q 1263 -14 1268 -19 q 1255 3 1257 -7 q 1251 20 1252 12 l 1371 20 q 1367 67 1373 45 q 1348 102 1360 90 q 1321 122 1337 115 q 1284 129 1305 129 q 1252 123 1267 129 q 1225 103 1237 117 q 1207 72 1213 90 q 1202 33 1202 54 q 1206 -2 1202 14 q 1219 -30 1211 -18 q 1249 -54 1232 -46 q 1290 -62 1267 -62 q 1318 -59 1305 -62 q 1340 -47 1331 -56 q 1357 -31 1350 -41 q 1370 -8 1364 -20 l 1321 0 q 1317 -10 1320 -5 q 1310 -19 1314 -15 l 1310 -19 m 1263 84 q 1274 92 1268 90 q 1289 95 1280 95 q 1303 93 1297 95 q 1314 84 1309 91 q 1322 71 1318 79 q 1325 54 1325 62 l 1253 54 q 1255 70 1252 62 q 1263 84 1259 77 l 1263 84 z "},"":{"ha":1389,"x_min":194,"x_max":1195,"o":"m 1195 450 q 1190 498 1194 473 q 1180 548 1185 522 q 1133 663 1164 608 q 1055 772 1103 718 q 1009 824 1034 798 q 962 876 985 850 q 941 899 951 887 q 920 921 930 910 l 854 993 l 662 1202 q 635 1231 648 1217 q 605 1257 621 1245 q 542 1286 576 1280 q 469 1280 507 1291 q 450 1272 460 1278 q 431 1261 439 1267 q 417 1252 423 1257 q 406 1241 411 1246 q 381 1194 388 1221 q 377 1131 374 1166 q 390 1088 380 1109 q 419 1047 400 1067 l 507 951 l 551 903 q 440 839 492 875 q 345 761 388 803 q 282 691 308 724 q 239 621 256 658 q 201 496 212 562 q 194 355 190 431 q 203 300 195 328 q 220 243 210 271 q 261 162 236 201 q 321 85 286 123 q 474 -27 389 12 q 659 -73 559 -66 q 671 -73 665 -73 q 685 -73 677 -73 q 710 -73 697 -73 q 735 -72 723 -72 q 785 -66 760 -71 q 838 -56 810 -62 q 968 0 909 -38 q 1076 95 1028 38 q 1169 261 1139 172 q 1195 450 1199 350 l 1195 450 m 1051 117 q 952 28 1008 64 q 831 -23 897 -7 q 781 -33 806 -30 q 735 -38 757 -37 q 698 -39 716 -39 q 661 -39 680 -39 q 488 3 567 -34 q 345 110 408 41 q 289 182 312 145 q 251 258 266 218 q 235 310 241 283 q 227 361 228 336 q 232 494 222 433 q 269 610 241 555 q 307 675 283 643 q 366 741 331 707 q 460 817 410 783 q 572 880 511 852 l 582 884 q 586 887 585 886 q 589 890 587 888 l 598 901 l 529 974 l 442 1072 q 419 1104 427 1088 q 410 1137 411 1120 q 412 1184 407 1164 q 430 1221 416 1204 q 437 1228 433 1225 q 448 1234 442 1232 q 463 1243 454 1238 q 480 1251 471 1248 q 500 1255 490 1253 q 518 1256 510 1256 q 553 1250 537 1256 q 585 1232 570 1244 q 612 1207 600 1221 q 637 1180 625 1194 l 830 970 l 897 898 l 939 853 q 985 802 962 827 q 1034 750 1009 776 q 1106 648 1077 700 q 1150 540 1135 595 q 1160 493 1157 515 q 1164 448 1164 471 q 1139 272 1166 355 q 1051 117 1111 189 l 1051 117 m 933 555 q 890 597 911 576 q 848 640 869 618 l 830 658 q 817 671 823 665 q 804 685 811 677 q 768 720 787 703 q 732 757 750 738 q 692 783 713 774 q 647 791 670 792 q 597 777 618 789 q 560 741 575 765 q 550 720 553 731 q 548 697 547 708 q 558 656 549 675 q 583 620 567 636 q 613 591 598 605 q 642 562 628 576 l 673 532 l 678 526 l 458 526 q 437 526 446 526 q 418 525 427 526 q 385 518 400 525 q 359 500 370 511 q 331 454 339 480 q 328 397 323 427 q 353 349 335 368 q 399 323 370 330 q 418 321 408 321 q 437 320 427 320 l 536 317 l 545 317 q 565 317 555 317 q 585 317 575 317 l 677 317 l 673 312 q 643 283 658 298 q 612 252 628 267 q 583 217 595 233 q 562 183 570 201 q 552 151 553 167 q 556 119 551 134 q 593 72 567 90 q 651 54 618 54 q 678 58 665 54 q 703 69 692 62 q 726 87 715 77 q 746 106 736 98 q 842 195 795 151 q 935 283 888 240 q 979 334 960 308 q 1006 389 997 361 q 1010 405 1009 397 q 1012 420 1012 412 q 1006 451 1012 437 q 996 475 1001 465 q 964 520 981 500 q 933 555 948 540 l 933 555 m 975 403 q 950 353 966 377 q 910 308 935 330 q 818 220 865 264 q 724 132 770 176 q 704 113 713 122 q 684 96 694 104 q 669 90 677 92 q 651 87 661 87 q 614 98 633 87 q 587 130 595 109 q 585 149 583 140 q 591 170 586 159 q 609 199 598 184 q 636 229 620 213 q 666 259 651 244 q 697 289 681 274 l 728 320 l 757 350 l 587 350 l 547 349 l 538 349 q 490 349 514 349 q 439 351 465 350 q 423 352 431 351 q 407 355 415 353 q 377 371 388 359 q 362 403 366 382 q 363 444 358 426 q 384 476 369 461 q 404 488 393 486 q 422 491 414 491 q 439 492 430 492 q 460 492 449 492 l 755 492 l 719 529 l 697 553 q 681 569 689 562 q 665 583 673 576 l 608 640 q 589 668 595 654 q 582 697 582 682 q 583 709 582 703 q 589 723 585 716 q 613 747 598 739 q 648 757 628 755 q 681 751 666 758 q 711 731 696 745 q 747 696 728 715 q 783 661 765 678 q 795 648 789 654 q 808 633 802 642 l 826 616 q 868 574 846 595 q 911 530 890 552 q 940 500 925 518 q 966 461 955 483 q 976 439 972 449 q 979 420 979 430 q 978 412 979 416 q 975 403 977 407 l 975 403 z "},"":{"ha":1389,"x_min":37,"x_max":1393,"o":"m 968 361 q 1040 488 1017 419 q 1061 633 1062 556 q 1056 672 1059 654 q 1048 709 1053 690 q 1010 802 1035 760 q 952 882 985 845 q 897 942 925 913 q 844 1001 869 971 l 637 1226 q 616 1248 627 1237 q 594 1268 605 1259 q 547 1289 571 1286 q 496 1284 524 1293 q 482 1279 490 1282 q 469 1272 475 1276 q 460 1265 464 1270 q 453 1257 456 1261 q 434 1221 438 1241 q 433 1180 430 1200 q 442 1149 434 1164 q 463 1120 450 1134 q 507 1072 486 1096 q 552 1023 529 1047 l 578 993 q 577 991 578 991 q 576 990 576 990 l 570 987 q 481 937 524 966 q 401 873 438 909 q 356 824 377 850 q 320 766 335 798 q 290 666 297 718 q 286 562 282 614 q 293 517 288 538 q 307 475 298 495 q 339 410 319 439 q 384 353 359 380 q 502 265 437 296 q 644 231 567 235 q 675 230 659 229 q 705 231 690 231 q 745 235 726 232 q 784 244 765 239 q 886 287 841 258 q 968 361 932 316 l 968 361 m 909 591 q 886 548 901 568 q 854 511 872 528 l 704 370 q 688 355 696 362 q 670 342 680 347 q 616 336 647 326 q 574 376 585 346 q 572 397 571 387 q 578 416 574 407 q 595 444 586 431 q 616 468 605 456 q 651 503 633 486 q 686 537 669 519 q 688 540 686 538 q 690 543 689 541 l 608 543 l 547 541 q 508 542 528 541 q 468 544 488 543 q 453 545 460 544 q 439 545 446 545 q 409 562 420 549 q 393 594 397 575 q 395 633 389 614 q 415 665 400 651 q 433 677 423 673 q 453 681 442 681 q 488 682 471 682 q 524 681 506 681 l 690 681 q 678 694 685 688 q 665 708 671 701 q 628 743 646 726 q 594 779 610 760 q 576 802 583 789 q 568 831 570 815 q 570 846 568 838 q 576 860 572 853 q 601 884 586 876 q 635 892 616 892 q 667 887 652 894 q 694 869 682 880 q 734 831 715 850 q 773 791 753 811 q 814 750 793 770 q 854 708 834 730 q 879 681 867 696 q 899 650 891 666 q 908 631 905 642 q 911 612 911 621 q 912 602 913 606 q 909 591 911 597 m 163 104 q 141 123 155 117 q 113 129 127 129 q 83 123 96 129 q 58 106 71 118 q 42 76 47 94 q 37 35 37 58 q 43 -5 37 12 q 60 -35 49 -23 q 84 -55 71 -49 q 114 -61 98 -61 q 130 -59 121 -61 q 145 -53 138 -57 q 159 -43 153 -49 q 174 -30 165 -38 l 174 -56 l 217 -56 l 217 194 l 163 194 l 163 104 m 156 -8 q 143 -18 151 -15 q 127 -22 136 -22 q 110 -17 118 -22 q 95 -3 102 -12 q 90 14 91 3 q 88 39 88 24 q 91 63 88 53 q 100 80 94 73 q 113 91 106 87 q 127 95 119 95 q 144 92 137 95 q 157 80 152 88 q 165 62 163 73 q 168 35 168 52 q 165 9 168 20 q 156 -8 161 -1 m 346 130 q 321 127 334 130 q 297 118 309 123 q 278 104 286 113 q 263 84 270 95 q 255 60 258 72 q 252 37 252 49 q 255 8 252 22 q 263 -16 258 -5 q 279 -36 270 -27 q 298 -50 288 -45 q 321 -58 309 -56 q 346 -61 334 -61 q 383 -54 366 -61 q 414 -34 400 -47 q 433 -3 426 -20 q 441 35 441 15 q 434 73 441 56 q 415 102 427 90 q 383 123 400 117 q 346 130 366 130 l 346 130 m 377 -7 q 363 -17 372 -14 q 346 -20 355 -20 q 329 -17 336 -20 q 315 -7 321 -14 q 304 12 308 1 q 301 35 301 22 q 304 58 301 47 q 315 76 308 69 q 330 86 321 83 q 346 90 338 90 q 363 86 355 90 q 377 76 372 83 q 387 59 384 69 q 391 35 391 49 q 387 12 391 22 q 377 -7 384 1 m 579 -14 q 570 -19 575 -18 q 556 -20 564 -20 q 541 -17 548 -20 q 528 -8 533 -14 q 519 10 522 -1 q 517 38 517 22 q 519 63 517 53 q 528 79 522 73 q 540 88 533 85 q 556 91 547 91 q 568 90 562 91 q 578 84 574 88 q 585 75 582 80 q 589 62 587 69 l 636 71 q 625 96 632 85 q 608 114 617 107 q 585 124 598 121 q 555 127 571 127 q 518 121 534 127 q 491 103 502 115 q 473 73 479 91 q 467 33 467 56 q 473 -7 467 11 q 491 -37 479 -24 q 519 -56 503 -49 q 555 -62 534 -62 q 587 -58 572 -62 q 610 -46 601 -54 q 629 -26 621 -38 q 639 3 636 -14 l 591 11 q 587 -3 590 4 q 579 -14 583 -9 l 579 -14 m 736 -20 q 732 -20 734 -20 q 728 -19 731 -19 q 726 -16 727 -18 q 726 -12 726 -15 q 726 -4 726 -11 q 727 14 727 3 l 727 87 l 760 87 l 760 130 l 727 130 l 727 190 l 673 161 l 673 130 l 651 130 l 651 87 l 673 87 l 673 8 q 674 -14 673 -5 q 675 -26 675 -22 q 677 -36 675 -31 q 682 -45 680 -41 q 689 -51 685 -47 q 697 -56 693 -54 q 709 -59 703 -58 q 722 -60 715 -60 q 742 -58 732 -60 q 760 -52 751 -56 l 755 -15 q 745 -19 750 -18 q 736 -20 741 -20 l 736 -20 m 854 123 q 843 115 850 121 q 836 100 836 109 l 836 130 l 792 130 l 792 -54 l 836 -54 l 836 0 q 836 38 836 23 q 840 61 837 53 q 845 73 842 68 q 850 81 848 79 q 859 85 854 84 q 868 87 863 87 q 879 85 873 87 q 891 79 884 83 l 906 122 q 891 128 899 126 q 875 130 883 130 q 864 129 869 130 q 854 123 859 127 m 922 130 l 977 130 l 977 -54 l 922 -54 l 922 130 m 922 195 l 977 195 l 977 152 l 922 152 l 922 195 m 1177 110 q 1169 118 1175 114 q 1158 125 1164 122 q 1143 129 1152 127 q 1126 130 1134 130 q 1094 123 1108 130 q 1063 100 1080 115 l 1063 130 l 1020 130 l 1020 -54 l 1074 -54 l 1074 26 q 1074 52 1074 42 q 1077 68 1074 62 q 1082 79 1078 75 q 1089 87 1085 84 q 1100 92 1095 90 q 1111 94 1105 94 q 1120 92 1116 94 q 1127 90 1124 91 q 1133 83 1131 87 q 1137 76 1134 80 q 1138 62 1138 72 q 1138 38 1138 53 l 1138 -53 l 1192 -53 l 1192 57 q 1191 76 1192 68 q 1188 90 1190 84 q 1183 100 1187 95 q 1177 110 1180 104 m 1332 -19 q 1323 -23 1328 -22 q 1313 -24 1318 -24 q 1297 -22 1305 -24 q 1284 -14 1290 -19 q 1276 3 1279 -7 q 1272 20 1274 12 l 1393 20 q 1388 67 1394 45 q 1370 102 1382 90 q 1343 122 1359 115 q 1306 129 1326 129 q 1274 123 1289 129 q 1246 103 1259 117 q 1229 72 1234 90 q 1223 33 1223 54 q 1228 -2 1223 14 q 1241 -30 1233 -18 q 1271 -54 1253 -46 q 1312 -62 1289 -62 q 1339 -59 1326 -62 q 1362 -47 1352 -56 q 1379 -31 1371 -41 q 1392 -8 1386 -20 l 1343 0 q 1339 -10 1341 -5 q 1332 -19 1336 -15 l 1332 -19 m 1284 84 q 1296 92 1290 90 q 1310 95 1302 95 q 1324 93 1318 95 q 1336 84 1331 91 q 1343 71 1340 79 q 1347 54 1347 62 l 1275 54 q 1277 70 1274 62 q 1284 84 1280 77 l 1284 84 z "},"":{"ha":1389,"x_min":12,"x_max":1377,"o":"m 368 533 l 368 674 l 385 674 l 472 560 l 472 674 l 488 674 l 488 533 l 471 533 l 385 647 l 385 533 l 368 533 m 628 538 q 611 534 620 536 q 591 532 602 532 q 534 550 553 532 q 515 605 515 568 q 534 658 515 640 q 589 675 552 675 q 610 673 600 675 q 628 669 620 671 l 628 654 q 610 659 620 656 q 591 661 601 661 q 548 647 563 661 q 533 605 533 633 q 547 562 533 576 q 590 547 562 547 q 600 547 594 547 q 610 549 605 548 l 610 597 l 628 597 l 628 538 l 628 538 l 628 538 m 658 587 l 658 674 l 675 674 l 675 587 q 686 557 675 567 q 716 547 696 547 q 747 557 736 547 q 757 587 757 567 l 757 674 l 774 674 l 774 587 q 760 546 774 560 q 716 532 745 532 q 672 546 686 532 q 658 587 658 560 m 825 674 l 825 548 l 899 548 l 899 533 l 807 533 l 807 674 l 825 674 m 925 533 l 906 533 l 977 693 l 1046 533 l 1025 533 l 1008 578 l 962 578 l 966 593 l 1001 593 l 975 656 l 925 533 m 1065 533 l 1065 674 l 1126 674 q 1155 665 1145 674 q 1165 640 1165 656 q 1156 616 1165 627 q 1126 600 1146 606 l 1175 533 l 1150 533 l 1105 597 l 1105 609 q 1136 619 1126 612 q 1146 639 1146 627 q 1141 654 1146 650 q 1123 659 1135 659 l 1084 659 l 1084 533 l 1065 533 l 1065 533 m 1242 674 l 1242 574 q 1230 543 1242 553 q 1195 533 1218 533 l 1195 548 q 1217 555 1210 548 q 1225 574 1225 562 l 1225 674 l 1242 674 m 1275 538 l 1275 555 q 1298 549 1286 551 q 1322 547 1310 547 q 1350 553 1341 547 q 1359 574 1359 560 q 1352 591 1359 585 q 1332 597 1345 597 l 1314 597 q 1281 606 1293 597 q 1270 635 1270 616 q 1284 665 1270 655 q 1326 675 1298 675 q 1350 673 1339 675 q 1373 669 1362 671 l 1373 652 q 1350 659 1362 656 q 1326 661 1339 661 q 1298 654 1308 661 q 1289 635 1289 647 q 1295 618 1289 624 q 1314 612 1301 612 l 1332 612 q 1366 602 1355 612 q 1377 574 1377 593 q 1363 543 1377 553 q 1322 532 1350 532 q 1298 534 1310 532 q 1275 538 1286 536 l 1275 538 m 175 608 l 210 608 l 176 680 l 145 608 l 175 608 m 176 783 l 12 724 l 38 509 l 176 433 l 315 510 l 342 726 l 176 783 l 176 783 m 133 575 l 113 526 l 75 526 l 175 753 l 282 526 l 245 526 l 224 578 l 176 576 l 133 575 z "},"":{"ha":1389,"x_min":49,"x_max":1340,"o":"m 574 608 l 826 608 l 692 888 l 574 608 m 692 1291 l 49 1065 l 151 222 l 693 -76 l 1238 227 l 1340 1069 l 692 1291 l 692 1291 m 521 488 l 442 292 l 296 290 l 692 1171 l 692 1172 l 690 1172 l 690 1173 l 692 1172 l 693 1172 l 694 1175 l 694 1172 l 693 1172 l 692 1171 l 1107 286 l 964 290 l 878 491 l 692 491 l 521 488 z "},"":{"ha":1389,"x_min":11,"x_max":1379,"o":"m 933 18 q 934 22 933 20 q 933 27 935 24 q 930 31 932 30 q 928 35 929 33 q 920 44 924 39 q 910 53 916 49 l 846 118 l 897 170 l 924 198 q 930 208 926 202 q 933 218 933 213 l 933 222 q 930 234 933 229 q 920 240 926 239 l 921 239 l 914 239 q 898 229 909 239 q 884 216 887 220 q 862 192 872 203 q 836 168 852 180 l 836 297 q 831 311 836 307 q 817 315 826 315 l 814 315 q 798 311 804 315 q 792 297 792 307 l 792 16 q 798 3 792 7 q 814 0 804 0 l 817 0 q 831 4 826 0 q 836 16 836 8 l 836 66 l 868 35 q 882 22 875 27 q 897 9 890 16 q 905 3 899 7 q 916 0 911 0 l 920 0 q 930 4 928 0 q 936 14 933 8 l 933 14 l 933 18 l 933 18 m 1358 239 l 1354 239 q 1318 234 1335 239 q 1289 218 1302 229 q 1251 176 1264 201 q 1237 122 1237 152 l 1237 15 q 1240 3 1237 7 q 1253 0 1244 0 l 1256 0 q 1273 3 1265 0 q 1280 15 1280 7 l 1280 115 q 1284 146 1280 132 q 1301 174 1289 161 q 1322 191 1310 183 q 1348 198 1335 198 q 1369 201 1359 198 q 1379 218 1379 205 q 1373 233 1379 228 q 1358 239 1366 239 l 1358 239 m 1191 184 q 1169 210 1181 199 q 1142 229 1157 221 q 1084 243 1114 243 q 1027 228 1054 244 l 1021 225 q 1000 210 1009 218 q 983 191 990 202 q 960 126 962 160 q 977 60 958 92 l 979 56 q 998 31 987 42 q 1023 12 1008 19 q 1082 -5 1051 -4 q 1142 9 1114 -7 l 1146 12 q 1156 24 1154 16 q 1153 41 1157 33 q 1149 46 1152 43 q 1142 50 1146 49 l 1141 50 q 1123 46 1135 50 q 1104 39 1111 42 q 1081 37 1093 38 q 1057 41 1069 37 l 1139 113 q 1158 130 1149 121 q 1177 145 1168 138 q 1191 161 1185 152 q 1191 182 1196 170 l 1191 184 m 1115 145 l 1023 66 q 1019 72 1021 69 q 1016 77 1017 75 q 1008 95 1010 85 q 1005 114 1005 104 q 1013 158 1004 138 q 1044 190 1023 178 q 1078 201 1061 199 q 1115 197 1096 203 q 1133 187 1123 193 q 1147 174 1142 182 q 1131 160 1139 167 q 1115 145 1123 153 l 1115 145 m 239 315 l 236 315 q 222 311 227 315 q 217 298 217 308 l 217 210 q 181 231 201 225 q 138 237 161 237 l 130 237 q 100 235 115 237 q 72 224 85 232 q 26 181 42 206 q 11 122 11 156 l 11 113 q 15 84 11 98 q 27 57 19 71 q 71 12 45 27 q 130 -3 96 -3 l 138 -3 q 170 1 155 -3 q 198 11 186 4 q 244 54 228 28 q 260 111 260 79 l 260 296 q 254 311 260 307 q 239 315 248 315 m 205 79 q 175 47 193 58 q 133 35 157 35 q 114 38 123 35 q 96 46 104 41 q 64 75 76 57 q 52 118 52 94 q 54 136 52 127 q 60 152 56 144 q 90 188 71 175 q 134 201 109 201 q 159 197 148 201 q 180 186 171 193 q 206 157 197 174 q 216 119 216 141 q 214 98 217 109 q 205 79 210 88 m 408 239 l 401 239 q 371 236 387 239 q 343 225 355 233 q 298 182 313 208 q 282 122 282 157 l 282 114 q 286 85 282 99 q 298 57 290 72 q 342 14 316 28 q 403 -1 369 -1 l 411 -1 q 442 1 427 -1 q 471 12 457 4 q 517 54 500 28 q 533 113 533 80 l 533 122 q 528 149 533 136 q 518 174 524 161 q 471 222 499 206 q 408 239 444 239 l 408 239 m 477 79 q 448 47 465 58 q 407 35 430 35 q 386 38 396 35 q 366 46 376 41 q 334 76 346 58 q 323 117 323 94 q 325 134 323 126 q 331 151 327 142 q 361 187 342 175 q 406 199 380 199 q 429 196 418 199 q 449 187 439 193 q 477 157 467 175 q 487 118 487 140 q 486 98 488 109 q 477 79 483 88 l 477 79 m 743 224 l 742 222 q 713 235 728 232 q 681 239 697 239 l 673 239 q 642 236 658 239 q 614 225 627 233 q 569 182 585 208 q 553 123 553 157 l 553 115 q 555 100 553 107 q 557 84 556 92 q 604 16 571 39 q 685 -5 637 -8 q 723 2 697 -4 q 749 27 749 8 l 749 31 q 744 45 749 39 q 732 52 739 50 l 731 54 l 724 54 l 722 52 q 704 43 715 47 q 685 38 693 38 q 665 39 675 38 q 646 45 655 39 q 609 75 623 56 q 595 119 595 94 q 597 137 595 129 q 604 153 600 145 q 633 189 614 176 q 678 202 652 202 q 691 200 684 202 q 703 195 699 198 q 715 189 707 194 q 730 184 724 184 l 731 184 l 732 187 q 745 194 739 189 q 750 206 750 199 l 750 210 q 749 216 750 214 q 746 221 747 218 l 743 224 l 743 224 m 62 562 l 64 560 q 140 467 96 506 q 235 402 183 427 q 345 365 286 377 q 464 354 401 354 q 689 381 582 354 q 886 462 796 407 q 1046 600 977 517 q 1161 795 1116 682 q 1277 812 1221 791 q 1363 891 1333 833 l 1373 910 l 1354 921 q 1275 945 1318 941 q 1192 936 1232 948 q 1163 1015 1188 979 q 1105 1077 1138 1050 l 1088 1090 l 1074 1073 q 1045 1010 1053 1048 q 1040 940 1038 972 q 1050 892 1043 916 q 1073 849 1058 869 q 1050 836 1062 844 q 1027 823 1038 827 q 979 808 1004 815 q 930 802 955 802 l 857 802 l 857 955 l 716 955 l 716 1226 l 553 1226 l 553 1096 l 282 1096 l 282 955 l 141 955 l 141 803 l 19 803 l 18 787 q 21 684 14 735 q 50 586 28 633 l 62 562 l 62 562 m 716 922 l 836 922 l 836 803 l 716 803 l 716 922 m 575 1204 l 694 1204 l 694 1085 l 575 1085 l 575 1204 m 575 1063 l 694 1063 l 694 944 l 575 944 l 575 1063 m 575 922 l 694 922 l 694 803 l 575 803 l 575 922 m 434 1063 l 553 1063 l 553 944 l 434 944 l 434 1063 m 434 922 l 553 922 l 553 803 l 434 803 l 434 922 m 446 583 q 436 560 446 570 q 412 551 426 551 q 389 560 399 551 q 378 583 378 570 q 389 608 378 598 q 412 617 399 617 q 436 608 426 617 q 446 583 446 598 m 304 1063 l 412 1063 l 412 944 l 304 944 l 304 1063 m 304 922 l 412 922 l 412 803 l 304 803 l 304 922 m 163 922 l 282 922 l 282 803 l 163 803 l 163 922 m 189 510 q 215 510 202 510 q 240 511 228 510 q 299 517 271 513 q 350 528 327 521 q 404 446 368 484 q 502 377 441 407 l 464 377 q 258 416 335 377 q 123 511 180 454 q 157 510 141 510 q 189 510 174 510 l 189 510 m 412 560 q 429 567 422 560 q 437 583 437 574 q 436 589 437 586 q 434 593 435 591 q 431 589 433 590 q 426 587 429 587 q 418 590 422 587 q 415 597 415 593 q 416 602 415 600 q 420 605 418 604 q 417 607 419 606 q 412 608 415 608 q 395 601 403 608 q 388 583 388 594 q 396 567 389 574 q 412 560 403 560 z "},"":{"ha":1389,"x_min":18,"x_max":1371,"o":"m 1354 736 q 1276 760 1320 757 q 1194 751 1233 764 q 1164 830 1188 795 q 1107 892 1139 865 l 1089 906 l 1074 888 q 1045 826 1053 864 q 1040 755 1038 788 q 1050 708 1043 731 q 1073 665 1058 685 q 1050 651 1062 659 q 1027 639 1038 643 q 979 624 1004 631 q 930 617 955 617 l 857 617 l 857 770 l 716 770 l 716 1042 l 553 1042 l 553 911 l 282 911 l 282 770 l 141 770 l 141 618 l 19 618 l 18 602 q 21 500 14 551 q 50 401 28 449 l 62 376 q 138 282 95 321 q 233 218 182 243 q 343 180 285 193 q 463 170 400 170 q 688 197 581 170 q 885 277 795 222 q 1046 415 975 332 q 1160 610 1115 498 q 1276 627 1221 606 q 1362 707 1332 648 l 1371 726 l 1354 736 l 1354 736 m 304 879 l 412 879 l 412 760 l 304 760 l 304 879 m 446 399 q 436 376 446 385 q 412 366 426 366 q 389 376 399 366 q 378 399 378 385 q 389 423 378 414 q 412 433 399 433 q 436 423 426 433 q 446 399 446 414 m 304 738 l 412 738 l 412 618 l 304 618 l 304 738 m 163 738 l 282 738 l 282 618 l 163 618 l 163 738 m 464 193 q 258 233 335 194 q 123 328 180 271 q 157 326 141 327 q 187 326 174 326 q 214 326 201 326 q 239 327 227 326 q 298 332 270 328 q 349 343 326 336 q 404 261 368 300 q 500 193 439 222 l 464 193 m 553 618 l 434 618 l 434 738 l 553 738 l 553 618 m 553 760 l 434 760 l 434 879 l 553 879 l 553 760 m 694 618 l 575 618 l 575 738 l 694 738 l 694 618 m 694 760 l 575 760 l 575 879 l 694 879 l 694 760 m 694 901 l 575 901 l 575 1020 l 694 1020 l 694 901 m 836 618 l 716 618 l 716 738 l 836 738 l 836 618 m 420 420 q 417 422 419 422 q 412 423 415 423 q 395 416 403 423 q 388 399 388 410 q 395 382 388 389 q 412 376 403 376 q 429 382 422 376 q 437 399 437 389 q 436 404 437 401 q 434 408 435 407 q 431 404 433 406 q 426 403 429 403 q 418 406 422 403 q 415 412 415 408 q 418 418 416 415 q 420 420 419 420 l 420 420 z "},"":{"ha":1389,"x_min":27,"x_max":1362,"o":"m 1362 88 l 735 1173 q 718 1191 728 1184 q 694 1198 707 1198 q 671 1191 682 1198 q 654 1173 661 1184 l 27 88 q 22 66 22 77 q 27 43 22 54 q 45 27 34 33 q 68 22 56 22 l 1321 22 q 1344 27 1333 22 q 1362 43 1355 33 q 1367 66 1367 54 q 1362 88 1367 77 m 963 176 l 964 222 l 784 191 l 776 198 l 777 260 l 773 260 q 734 220 773 260 q 613 179 696 179 q 504 212 552 179 q 456 343 456 244 q 519 482 456 444 q 661 521 582 521 l 770 521 l 770 575 q 745 637 770 616 q 669 659 719 659 q 559 653 613 659 q 506 647 506 647 l 499 656 l 499 746 q 559 751 499 746 q 692 757 618 757 q 825 729 760 757 q 890 602 890 701 l 890 297 l 951 309 l 935 353 l 1085 286 l 963 176 l 963 176 m 570 353 q 596 292 570 307 q 654 277 623 277 q 714 288 682 277 q 770 336 746 300 l 770 434 l 692 434 q 601 417 632 434 q 570 353 570 400 l 570 353 z "},"":{"ha":1389,"x_min":16,"x_max":1373,"o":"m 1180 365 l 718 1166 q 705 1179 712 1175 q 688 1184 697 1184 q 670 1179 678 1184 q 658 1166 662 1175 l 195 365 q 190 349 190 358 q 195 331 190 339 q 208 319 199 323 q 225 315 216 315 l 1150 315 q 1167 319 1160 315 q 1180 331 1175 323 q 1184 349 1184 339 q 1180 365 1184 358 m 886 430 l 887 465 l 753 441 l 747 445 l 749 488 l 746 488 q 718 459 746 488 q 628 430 689 430 q 547 454 583 430 q 511 552 511 479 q 558 654 511 625 q 662 684 605 684 l 749 684 l 749 726 q 728 770 749 754 q 671 787 708 787 q 590 783 631 787 q 549 779 549 779 l 543 784 l 543 850 q 588 855 543 850 q 688 860 633 860 q 786 839 736 860 q 836 745 836 818 l 836 519 l 879 529 l 865 560 l 977 513 l 886 430 l 886 430 m 595 559 q 616 515 595 525 q 661 505 637 505 q 703 513 681 505 q 749 548 724 522 l 749 618 l 685 618 q 618 606 640 618 q 595 559 595 594 m 118 79 l 92 79 l 91 80 l 91 95 l 91 95 q 81 85 91 95 q 53 76 72 76 q 28 83 39 76 q 16 114 16 91 q 31 147 16 138 q 64 156 46 156 l 91 156 l 91 168 q 85 183 91 178 q 66 189 79 189 q 41 187 53 189 q 28 186 28 186 l 26 187 l 26 209 q 40 210 26 209 q 72 212 54 212 q 102 205 87 212 q 118 175 118 198 l 118 79 l 118 79 m 91 136 l 72 136 q 50 132 57 136 q 43 117 43 127 q 50 102 43 106 q 62 99 56 99 q 77 102 69 99 q 91 113 84 104 l 91 136 l 91 136 m 155 209 l 180 209 l 182 206 l 182 191 l 182 191 q 191 201 182 191 q 220 212 201 212 q 245 203 235 212 q 255 172 255 195 l 255 115 q 239 84 255 92 q 206 76 222 76 q 193 76 198 76 q 182 77 187 76 l 182 31 l 155 31 l 155 209 l 155 209 m 182 100 q 194 99 187 99 q 208 100 201 99 q 222 105 216 100 q 228 122 228 110 l 228 171 q 224 184 228 180 q 212 189 220 189 q 197 185 205 189 q 182 171 190 182 l 182 100 l 182 100 m 289 209 l 313 209 l 316 206 l 315 191 l 316 191 q 325 201 316 191 q 354 212 334 212 q 379 203 369 212 q 389 172 389 195 l 389 115 q 373 84 389 92 q 339 76 357 76 q 327 76 332 76 q 316 77 321 76 l 316 31 l 289 31 l 289 209 l 289 209 m 316 100 q 328 99 321 99 q 340 100 335 99 q 356 105 350 100 q 362 122 362 110 l 362 171 q 357 184 362 180 q 346 189 353 189 q 331 185 338 189 q 316 171 324 182 l 316 100 l 316 100 m 509 184 q 498 186 509 184 q 475 187 488 187 q 455 184 464 187 q 446 165 446 180 l 446 122 q 455 103 446 107 q 475 99 464 99 q 498 100 488 99 q 509 102 509 102 l 510 100 l 510 79 q 498 77 510 79 q 468 76 486 76 q 435 83 452 76 q 419 114 419 91 l 419 172 q 435 203 419 195 q 468 212 452 212 q 498 210 486 212 q 510 209 510 209 l 510 186 l 509 184 m 632 136 l 563 136 l 563 122 q 571 103 563 107 q 591 99 579 99 q 614 100 604 99 q 625 102 625 102 l 628 100 l 628 79 q 615 77 628 79 q 585 76 602 76 q 551 83 567 76 q 536 114 536 91 l 536 170 q 552 203 536 194 q 586 212 568 212 q 621 203 605 212 q 637 170 637 195 q 636 149 637 159 q 635 138 635 140 l 632 136 l 632 136 m 563 172 l 563 156 l 608 156 q 609 163 609 159 q 609 172 609 167 q 603 184 609 180 q 586 189 597 189 q 570 184 576 189 q 563 172 563 180 l 563 172 m 696 260 l 696 79 l 669 79 l 669 260 l 696 260 m 825 136 l 755 136 l 755 122 q 764 103 755 107 q 784 99 773 99 q 808 100 798 99 q 819 102 819 102 l 821 100 l 821 79 q 808 77 821 79 q 777 76 795 76 q 745 83 761 76 q 728 114 728 91 l 728 170 q 745 203 728 194 q 780 212 761 212 q 814 203 798 212 q 830 170 830 195 q 829 149 830 159 q 827 138 829 140 l 825 136 l 825 136 m 755 172 l 755 156 l 802 156 q 802 163 802 159 q 803 172 803 167 q 795 184 802 180 q 780 189 789 189 q 762 184 769 189 q 755 172 755 180 m 929 184 q 909 182 920 184 q 888 171 899 180 l 888 79 l 861 79 l 861 209 l 887 209 l 888 206 l 888 191 l 888 191 q 899 202 887 191 q 930 212 910 213 l 930 186 l 929 184 l 929 184 m 1048 79 l 1024 79 l 1023 80 l 1023 95 l 1021 95 q 1013 85 1021 95 q 985 76 1004 76 q 958 83 970 76 q 947 114 947 91 q 962 147 947 138 q 996 156 977 156 l 1023 156 l 1023 168 q 1016 183 1023 178 q 998 189 1009 189 q 972 187 985 189 q 959 186 959 186 l 958 187 l 958 209 q 971 210 958 209 q 1002 212 985 212 q 1034 205 1019 212 q 1048 175 1048 198 l 1048 79 l 1048 79 m 1023 136 l 1002 136 q 981 132 989 136 q 974 117 974 127 q 981 102 974 106 q 994 99 987 99 q 1008 102 1001 99 q 1023 113 1016 104 l 1023 136 l 1023 136 m 1088 187 l 1074 187 l 1074 209 l 1088 209 l 1088 236 l 1115 236 l 1115 209 l 1146 209 l 1146 187 l 1115 187 l 1115 114 q 1119 102 1115 106 q 1130 99 1123 99 q 1142 100 1137 99 q 1147 100 1147 100 l 1149 98 l 1149 79 q 1142 77 1149 79 q 1124 76 1135 76 q 1097 85 1107 76 q 1088 114 1088 95 l 1088 187 l 1088 187 m 1270 117 q 1254 83 1270 91 q 1219 76 1238 76 q 1184 84 1200 76 q 1168 117 1168 92 l 1168 170 q 1184 203 1168 194 q 1219 212 1200 212 q 1254 203 1238 212 q 1270 170 1270 195 l 1270 117 m 1244 167 q 1237 183 1244 178 q 1219 189 1230 189 q 1201 183 1207 189 q 1195 167 1195 178 l 1195 121 q 1202 104 1195 109 q 1219 99 1208 99 q 1238 104 1232 99 q 1244 121 1244 110 l 1244 167 m 1371 184 q 1352 182 1363 184 q 1331 171 1341 180 l 1331 79 l 1303 79 l 1303 209 l 1329 209 l 1331 206 l 1331 191 l 1331 191 q 1341 202 1331 191 q 1373 212 1352 213 l 1373 186 l 1371 184 l 1371 184 z "},"":{"ha":1389,"x_min":149,"x_max":1244,"o":"m 1062 566 q 1153 353 1063 412 q 1244 293 1242 293 q 1221 231 1242 289 q 1150 100 1199 172 q 1061 -12 1108 39 q 944 -65 1013 -64 q 838 -39 876 -66 q 722 -11 799 -11 q 604 -37 644 -11 q 500 -66 564 -64 q 382 -13 434 -69 q 288 104 330 43 q 209 252 244 167 q 157 429 174 336 q 149 614 141 522 q 202 784 157 707 q 321 905 247 860 q 481 952 395 951 q 605 924 547 954 q 704 894 663 894 q 813 929 743 894 q 962 956 883 964 q 1072 932 994 955 q 1208 822 1149 909 q 1132 756 1203 819 q 1062 566 1061 693 l 1062 566 m 892 1066 q 949 1166 928 1109 q 963 1282 970 1222 q 856 1251 911 1279 q 764 1180 800 1222 q 708 1086 731 1142 q 693 971 685 1029 q 804 996 750 967 q 892 1066 857 1024 l 892 1066 z "},"":{"ha":1389,"x_min":38,"x_max":1355,"o":"m 538 724 l 551 724 l 640 491 l 629 491 l 600 570 l 490 570 l 460 491 l 449 491 l 538 724 m 595 581 l 545 712 l 494 581 l 595 581 m 736 715 l 663 715 l 663 724 l 821 724 l 821 715 l 747 715 l 747 491 l 736 491 l 736 715 l 736 715 m 898 693 q 931 721 911 712 q 977 730 951 730 q 1023 721 1002 730 q 1057 693 1043 712 q 1075 655 1069 677 q 1081 608 1081 633 q 1075 559 1081 581 q 1057 521 1069 537 q 1023 494 1043 503 q 977 486 1002 486 q 931 494 951 486 q 898 521 911 503 q 880 559 886 537 q 873 608 873 581 q 880 655 873 633 q 898 693 886 677 l 898 693 m 906 529 q 936 503 918 511 q 977 495 954 495 q 1018 503 1000 495 q 1048 529 1036 511 q 1063 564 1058 544 q 1069 608 1069 583 q 1063 652 1069 632 q 1047 686 1058 671 q 1017 711 1035 703 q 977 720 1000 720 q 936 711 954 720 q 906 686 918 703 q 890 652 895 671 q 884 608 884 632 q 890 564 884 583 q 906 529 895 544 m 1157 724 l 1172 724 l 1257 560 l 1340 724 l 1355 724 l 1355 491 l 1345 491 l 1345 711 l 1260 547 l 1255 547 l 1166 711 l 1166 491 l 1157 491 l 1157 724 l 1157 724 m 144 600 l 137 586 q 125 555 130 571 q 115 522 119 538 q 113 503 114 513 q 115 486 113 494 q 122 473 118 477 q 134 468 126 468 q 140 469 137 468 q 146 471 144 469 q 163 477 156 472 q 178 486 171 481 q 181 488 179 487 q 184 488 183 488 q 190 482 189 486 q 187 476 191 479 q 163 461 176 468 q 136 454 151 454 q 115 460 123 453 q 103 477 106 467 q 99 496 99 487 q 100 513 99 505 q 113 564 103 540 q 134 613 122 589 q 136 616 136 614 q 134 620 136 618 q 129 638 132 629 q 123 656 126 647 q 121 659 122 658 q 119 659 121 659 q 96 652 107 656 q 73 642 84 648 q 65 637 69 640 q 57 631 61 633 q 52 618 52 624 q 56 605 52 612 q 65 595 60 600 q 76 587 71 591 l 84 583 q 87 579 87 582 q 87 574 88 576 q 83 570 85 571 q 77 570 80 568 q 62 580 69 575 q 47 593 54 585 q 41 602 43 597 q 38 612 39 606 q 39 626 37 620 q 45 637 41 632 q 55 648 49 643 q 66 655 61 652 q 91 666 79 662 q 115 673 103 670 l 119 673 q 117 680 118 677 q 117 686 117 684 q 114 713 114 700 q 117 739 114 726 q 120 749 118 745 q 126 758 122 754 q 142 770 133 768 q 161 769 152 772 q 181 761 172 766 q 198 749 190 755 q 200 745 199 747 q 198 739 201 742 q 194 737 197 738 q 189 738 191 736 q 180 744 184 741 q 172 749 176 747 q 162 754 167 753 q 151 755 157 755 q 142 753 146 755 q 136 749 138 751 q 132 738 133 743 q 129 727 130 732 q 129 703 127 715 q 133 678 130 690 q 134 676 133 677 q 136 675 134 675 q 155 677 145 677 q 174 680 164 678 q 178 680 176 680 q 180 684 179 681 q 207 713 193 699 q 237 741 221 728 q 256 753 247 747 q 277 762 266 758 q 290 764 283 764 q 304 762 297 765 q 318 753 313 760 q 326 738 323 746 q 328 720 328 728 q 327 701 328 711 q 327 696 327 699 q 326 692 327 694 q 323 688 326 689 q 317 686 321 686 q 313 688 315 686 q 312 694 312 690 q 313 703 312 699 q 313 712 313 707 q 313 722 313 716 q 312 732 313 727 q 302 747 309 743 q 285 749 296 751 q 269 744 277 747 q 255 735 262 741 q 229 715 241 726 q 206 690 217 704 q 201 686 203 689 q 198 681 199 684 l 197 680 l 201 680 q 258 676 231 680 q 315 665 286 673 q 340 656 327 661 q 363 643 353 651 q 376 635 370 639 q 387 624 381 631 q 394 600 395 612 q 382 576 393 587 q 367 564 376 570 q 350 556 358 559 q 345 556 347 555 q 340 560 342 557 q 340 566 339 563 q 345 570 342 568 q 353 573 349 571 q 362 578 358 575 q 368 583 365 581 q 374 587 372 585 q 380 601 380 594 q 376 614 380 608 q 367 623 372 620 q 357 631 362 627 q 330 644 345 639 q 301 652 316 648 q 271 659 286 656 q 239 663 255 662 q 214 665 227 665 q 189 666 201 666 q 186 665 187 666 q 183 663 184 665 q 169 641 176 652 q 153 617 161 629 q 153 616 153 617 q 153 613 153 614 q 182 556 165 583 q 218 505 198 529 q 237 485 228 494 q 259 468 247 476 q 270 463 264 465 q 282 460 275 460 q 292 461 288 458 q 300 469 297 464 q 304 479 302 473 q 305 490 305 484 q 305 524 308 507 q 297 557 302 541 q 286 591 293 575 q 271 624 279 608 q 271 627 271 625 q 270 629 270 628 q 273 633 271 632 q 277 636 274 635 q 281 635 279 636 q 283 632 283 633 q 289 620 286 625 q 294 608 292 614 q 309 571 302 590 q 317 532 315 552 q 321 505 320 518 q 317 477 321 491 q 316 471 317 473 q 313 465 315 468 q 298 448 308 453 q 275 446 288 444 q 256 453 264 448 q 239 465 247 458 q 212 490 224 476 q 189 521 199 505 q 165 557 175 538 q 145 595 155 575 l 144 600 l 144 600 m 136 662 l 145 633 l 167 665 l 136 662 m 217 587 q 203 593 209 587 q 197 608 197 600 q 203 622 197 616 q 217 628 209 628 q 233 622 227 628 q 239 608 239 616 q 233 593 239 600 q 217 587 227 587 l 217 587 z "},"":{"ha":1389,"x_min":18,"x_max":1340,"o":"m 419 575 q 407 550 412 562 q 396 526 401 538 q 347 408 369 468 q 313 283 326 347 q 306 213 308 248 q 313 141 304 178 q 338 96 320 111 q 382 79 355 80 q 408 80 396 77 q 433 85 420 83 q 493 111 465 95 q 548 146 521 127 q 562 153 555 151 q 576 152 568 155 q 595 132 591 146 q 586 107 598 117 q 495 50 543 75 q 391 24 448 26 q 312 47 345 23 q 264 114 279 71 q 251 182 252 148 q 254 250 250 216 q 302 444 266 351 q 385 627 338 537 q 389 642 389 635 q 387 656 389 648 q 363 724 374 690 q 342 792 353 758 q 337 801 340 799 q 327 802 334 803 q 236 777 281 791 q 151 739 191 762 q 120 718 134 730 q 92 693 106 707 q 71 647 72 671 q 87 598 69 623 q 122 559 102 575 q 164 530 142 544 q 179 522 172 526 q 193 514 186 518 q 207 497 203 507 q 205 477 210 487 q 189 464 199 467 q 167 467 178 461 q 107 502 136 481 q 56 548 79 522 q 31 584 41 566 q 18 624 22 602 q 21 675 14 651 q 45 722 28 700 q 83 760 61 743 q 129 789 104 777 q 218 827 172 812 q 311 853 263 842 q 318 855 315 854 q 326 857 321 856 q 321 882 323 869 q 317 906 319 894 q 307 1008 309 958 q 319 1108 305 1058 q 331 1147 323 1128 q 353 1181 339 1165 q 414 1221 380 1213 q 488 1221 449 1230 q 561 1191 528 1211 q 625 1146 594 1171 q 634 1127 633 1138 q 627 1108 635 1116 q 610 1099 620 1100 q 590 1104 600 1097 q 559 1126 574 1115 q 528 1146 544 1137 q 490 1164 510 1157 q 448 1171 471 1171 q 416 1163 430 1171 q 392 1141 401 1156 q 373 1102 378 1123 q 365 1059 368 1081 q 364 966 359 1012 q 378 875 369 921 q 381 869 378 871 q 388 867 384 867 q 463 874 426 871 q 536 880 499 878 q 549 884 544 882 q 560 894 555 887 q 661 1010 608 955 q 776 1111 713 1065 q 846 1158 810 1137 q 925 1192 883 1180 q 977 1202 951 1200 q 1031 1194 1004 1203 q 1082 1159 1063 1183 q 1111 1103 1101 1135 q 1122 1034 1122 1069 q 1118 964 1122 998 q 1115 946 1116 955 q 1111 928 1114 937 q 1101 911 1109 917 q 1081 906 1092 905 q 1063 916 1070 907 q 1058 936 1057 924 q 1062 969 1059 952 q 1065 1002 1065 986 q 1065 1042 1066 1023 q 1059 1082 1063 1062 q 1024 1137 1051 1122 q 956 1143 997 1153 q 898 1123 925 1137 q 844 1093 871 1109 q 745 1015 791 1058 q 656 924 699 971 q 640 906 648 916 q 625 888 632 897 q 625 886 625 887 q 624 883 624 886 l 639 883 q 854 868 747 882 q 1067 823 962 854 q 1164 790 1116 810 q 1257 743 1213 770 q 1301 711 1280 728 q 1340 671 1322 693 q 1373 577 1375 625 q 1329 488 1370 529 q 1270 443 1302 461 q 1200 411 1237 425 q 1181 412 1191 408 q 1168 427 1172 416 q 1168 447 1164 437 q 1183 463 1172 457 q 1216 478 1199 471 q 1248 495 1233 486 q 1273 513 1261 503 q 1295 533 1284 522 q 1318 581 1317 556 q 1301 632 1320 606 q 1269 666 1287 651 q 1230 693 1251 681 q 1128 745 1181 724 q 1019 780 1074 765 q 901 806 960 795 q 783 821 842 817 q 687 825 735 823 q 591 829 639 827 q 579 827 585 829 q 571 819 574 825 q 514 732 543 776 q 458 646 486 689 q 455 638 456 643 q 456 629 454 633 q 506 519 480 574 q 564 413 533 465 q 629 312 595 361 q 704 216 665 262 q 775 141 738 176 q 856 79 812 106 q 899 56 876 65 q 945 45 921 46 q 985 53 968 43 q 1013 81 1002 62 q 1029 119 1024 99 q 1036 160 1034 138 q 1031 291 1042 227 q 1004 419 1020 355 q 960 547 985 484 q 907 670 936 609 q 903 680 905 674 q 902 690 901 686 q 909 707 902 700 q 925 715 916 713 q 941 712 933 716 q 954 699 949 708 q 974 654 963 677 q 994 609 985 632 q 1046 468 1023 540 q 1081 321 1069 396 q 1092 216 1089 269 q 1082 111 1095 164 q 1076 89 1080 100 q 1066 66 1072 77 q 1006 2 1046 22 q 918 -7 967 -18 q 846 21 879 1 q 781 65 812 41 q 677 164 724 110 q 587 277 629 218 q 500 414 540 343 q 426 562 460 486 q 423 567 425 564 q 419 575 422 570 l 419 575 m 392 814 l 426 703 q 466 765 446 735 q 507 826 486 795 l 392 814 m 700 529 q 644 552 667 529 q 621 608 620 575 q 644 663 621 640 q 700 686 667 686 q 756 663 732 686 q 780 608 780 640 q 756 552 780 575 q 700 529 732 529 z "},"":{"ha":1389,"x_min":216,"x_max":1218,"o":"m 1218 444 q 1214 494 1218 469 q 1203 541 1210 518 q 1154 661 1187 605 q 1078 765 1122 716 q 1009 842 1044 804 q 939 920 974 880 l 671 1210 q 645 1238 659 1225 q 616 1265 631 1252 q 556 1293 587 1289 q 491 1287 525 1297 q 471 1279 480 1283 q 453 1270 463 1275 q 442 1262 448 1267 q 431 1251 437 1257 q 409 1204 414 1229 q 407 1152 404 1179 q 420 1109 410 1128 q 445 1074 430 1090 q 504 1011 475 1043 q 562 947 533 979 l 594 910 l 593 909 l 583 903 q 469 839 524 875 q 366 757 414 803 q 307 691 334 726 q 260 616 279 656 q 221 487 231 553 q 216 351 212 420 q 225 295 218 323 q 241 240 232 267 q 285 157 259 195 q 343 83 311 118 q 496 -31 411 9 q 681 -76 581 -71 q 720 -77 700 -77 q 758 -75 739 -76 q 810 -69 784 -73 q 861 -58 836 -65 q 992 -3 933 -41 q 1099 92 1051 35 q 1193 256 1164 168 q 1218 444 1222 345 l 1218 444 m 1024 389 q 995 334 1013 359 q 952 285 977 308 q 857 195 905 240 q 760 103 808 149 q 738 84 749 94 q 716 66 727 75 q 646 58 686 45 q 591 110 605 71 q 588 136 586 122 q 597 163 590 149 q 618 198 606 182 q 646 229 631 214 q 690 274 667 252 q 735 319 713 296 l 742 326 l 635 326 q 596 325 616 326 q 556 324 576 324 q 505 325 530 324 q 453 328 479 326 q 435 329 445 328 q 416 331 426 330 q 377 353 392 336 q 358 393 362 369 q 359 444 353 420 q 385 486 366 467 q 409 500 396 495 q 435 506 422 505 q 481 507 458 506 q 528 507 505 507 l 742 507 q 726 524 734 515 q 709 541 718 533 q 663 587 686 564 q 617 632 640 609 q 595 665 604 647 q 585 703 586 682 q 587 721 585 712 q 594 739 590 730 q 627 770 608 760 q 670 783 646 781 q 712 775 693 784 q 747 751 731 766 q 798 701 773 727 q 849 650 823 675 q 901 597 875 623 q 954 544 928 571 q 986 507 971 526 q 1013 468 1001 488 q 1025 444 1020 456 q 1029 418 1029 431 q 1028 402 1029 410 q 1024 389 1027 395 l 1024 389 z "},"":{"ha":1389,"x_min":19,"x_max":1367,"o":"m 1364 662 l 1363 663 l 1363 667 l 1362 671 l 1359 675 l 1355 677 l 1351 681 l 1348 684 l 1343 685 l 1343 685 l 1337 688 l 1332 692 l 1326 694 l 1320 697 l 1318 697 l 1313 703 l 1306 707 l 1299 709 l 1294 712 l 1293 712 l 1286 716 l 1278 719 l 1272 720 l 1267 724 l 1261 726 l 1261 726 l 1251 728 l 1245 728 l 1237 727 l 1234 732 l 1226 738 l 1217 741 l 1207 741 l 1196 738 l 1192 736 l 1185 741 l 1176 742 l 1168 743 l 1158 743 l 1150 742 l 1149 742 l 1130 749 l 1120 750 l 1114 750 l 1104 758 l 1095 765 l 1086 769 l 1077 772 l 1069 772 l 1063 770 l 1058 774 l 1050 779 l 1042 779 l 1036 779 l 1028 781 l 1020 783 l 1012 784 l 1009 784 l 998 788 l 985 792 l 971 792 l 959 799 l 947 802 l 937 802 l 918 806 l 906 807 l 901 807 l 894 814 l 886 819 l 876 822 l 865 821 l 860 818 l 850 819 l 836 819 l 836 821 l 817 823 l 800 826 l 787 827 l 781 827 l 760 829 l 758 829 l 747 836 l 735 838 l 724 840 l 716 840 l 705 845 l 696 848 l 686 849 l 684 849 l 671 856 l 662 860 l 654 860 l 646 865 l 633 868 l 623 868 l 610 873 l 600 876 l 594 876 l 583 882 l 572 886 l 562 887 l 559 887 l 543 894 l 532 898 l 519 899 l 518 899 l 511 905 l 505 909 l 498 910 l 491 911 l 484 910 l 476 916 l 469 920 l 458 920 l 450 920 l 441 918 l 439 917 l 429 921 l 418 925 l 408 925 l 399 930 l 389 933 l 381 935 l 373 933 l 366 930 l 359 937 l 353 941 l 345 943 l 336 941 l 330 937 l 326 941 l 323 943 l 319 944 l 315 945 l 309 945 l 307 944 l 301 941 l 300 940 l 290 941 l 281 941 l 274 940 l 269 933 l 263 928 l 260 920 l 258 911 l 255 903 l 254 894 l 252 876 l 256 863 l 259 854 l 258 876 l 259 892 l 260 902 l 264 917 l 269 924 l 273 929 l 278 933 l 285 936 l 292 936 l 297 935 l 290 925 l 285 914 l 279 897 l 271 871 l 267 852 l 260 854 l 260 853 q 250 856 252 854 q 243 859 247 857 l 241 865 l 241 871 l 243 898 l 243 905 l 241 918 l 241 924 l 235 940 l 232 944 l 229 948 l 220 955 l 220 956 l 220 963 l 224 974 l 218 977 l 213 970 l 206 955 l 203 940 l 203 932 l 205 925 l 202 929 l 198 939 l 195 944 l 194 951 l 193 963 l 183 955 l 180 948 l 178 941 l 178 935 l 179 928 l 182 921 l 184 914 l 183 914 l 176 916 l 176 911 l 180 909 l 195 898 l 198 895 l 222 868 l 224 867 q 129 906 179 884 q 19 956 79 928 q 66 916 31 936 q 121 882 102 897 q 163 861 140 872 q 210 842 187 850 l 186 837 l 171 833 l 155 827 l 148 825 l 141 822 l 134 818 l 129 814 l 123 808 l 119 803 l 117 796 l 114 789 l 118 787 l 127 796 l 138 803 l 148 808 l 152 810 l 155 811 l 171 814 l 176 817 l 209 836 l 214 838 l 217 838 l 216 841 q 219 840 217 840 q 221 838 221 840 l 220 838 l 194 825 l 180 817 l 167 806 l 160 800 l 155 795 l 152 788 l 149 781 l 149 773 l 149 766 l 155 754 l 160 768 l 165 773 l 170 779 l 174 784 l 178 787 l 189 793 l 189 792 l 187 784 l 187 773 l 189 762 l 193 751 l 197 751 l 198 757 l 202 773 l 203 779 l 210 793 l 221 812 l 235 833 q 240 831 237 833 q 245 829 243 830 l 236 811 l 232 804 l 228 798 l 224 783 l 222 774 l 222 768 l 224 761 l 227 754 l 232 747 l 241 742 l 248 741 l 251 735 l 255 730 l 259 724 l 263 722 l 273 718 l 282 716 l 285 716 l 289 709 l 296 704 l 302 701 l 312 701 l 319 703 l 320 701 l 327 694 l 334 690 l 339 686 l 349 686 l 355 686 l 361 681 l 369 678 l 377 675 l 384 670 l 393 666 l 404 665 l 415 663 l 416 662 l 425 655 l 433 651 l 441 648 l 450 647 l 458 648 l 469 643 l 476 643 l 483 643 l 490 643 l 492 642 l 503 637 l 515 637 l 529 637 l 533 636 l 543 632 l 553 632 l 568 632 l 578 629 l 589 628 l 601 629 l 605 627 l 616 621 l 628 621 l 640 621 l 640 623 l 647 621 l 658 621 l 670 624 l 675 621 l 685 620 l 693 618 l 704 618 l 707 617 l 718 614 l 728 612 l 741 610 l 751 612 l 751 613 l 758 610 l 779 609 l 779 610 l 784 608 l 798 606 l 811 608 l 827 606 l 829 605 l 838 604 l 848 602 l 857 602 l 859 601 l 867 598 l 876 597 l 876 597 l 869 600 l 860 605 l 852 610 l 834 625 l 833 627 l 803 666 l 784 686 l 773 697 l 769 700 l 773 700 l 796 696 l 811 682 l 833 661 l 852 642 l 860 633 l 868 627 l 886 613 l 901 605 l 902 605 l 898 602 l 890 597 l 898 598 l 906 602 l 916 600 l 928 597 l 941 597 l 944 595 l 956 594 l 968 594 l 979 600 l 990 598 l 1004 598 l 1013 600 l 1020 598 l 1028 598 l 1044 600 l 1050 598 l 1055 597 l 1062 598 l 1067 601 l 1069 601 l 1077 598 l 1086 597 l 1095 597 l 1104 600 l 1114 604 l 1123 610 l 1131 610 l 1141 610 l 1149 612 l 1154 610 l 1172 608 l 1180 609 l 1190 610 l 1194 608 l 1203 606 l 1213 608 l 1213 608 l 1204 609 l 1195 612 l 1175 623 l 1165 629 l 1115 669 l 1143 666 l 1152 662 l 1156 659 l 1192 633 l 1198 631 l 1221 616 l 1225 612 l 1227 610 l 1225 609 l 1219 608 l 1227 606 l 1233 610 l 1236 608 l 1241 605 l 1246 605 l 1252 605 l 1257 605 l 1261 606 l 1270 605 l 1278 606 l 1286 610 l 1294 610 l 1299 610 l 1306 614 l 1312 618 l 1318 618 l 1325 620 l 1331 623 l 1337 627 l 1336 627 l 1332 628 l 1332 629 l 1326 631 l 1316 633 l 1313 635 l 1305 639 l 1302 642 l 1301 643 l 1299 643 l 1291 651 l 1305 650 l 1308 647 l 1312 643 l 1318 639 l 1324 640 l 1326 637 l 1336 632 l 1340 631 l 1341 629 l 1340 628 l 1344 627 l 1348 627 l 1348 628 l 1352 629 l 1355 632 l 1358 636 l 1359 640 l 1360 640 l 1364 643 l 1366 647 l 1367 647 l 1367 658 l 1364 662 m 187 827 l 174 819 l 168 817 l 160 817 l 145 811 l 134 806 l 125 800 l 123 799 l 127 806 l 133 811 l 144 821 l 156 827 l 171 831 l 198 838 l 187 827 l 187 827 m 174 789 l 165 781 l 160 776 l 156 769 l 155 766 l 155 768 l 153 773 l 155 779 l 156 784 l 160 789 l 164 795 l 170 800 l 182 811 l 197 819 l 218 831 l 217 827 l 209 822 l 203 819 l 195 811 l 193 806 l 190 800 l 174 789 l 174 789 m 212 819 l 206 811 l 198 806 l 199 807 l 203 811 l 208 817 l 212 819 m 220 822 l 208 800 l 198 780 l 193 764 l 193 762 l 190 773 l 190 783 l 191 789 l 193 796 l 199 800 l 209 808 l 220 822 l 221 826 l 222 827 l 220 822 l 220 822 m 222 943 l 225 924 l 225 926 l 221 937 l 220 945 l 220 954 l 222 943 l 222 943 m 191 913 l 186 924 l 183 930 l 182 936 l 182 941 l 183 947 l 187 952 l 187 954 l 187 951 l 189 943 l 191 936 l 197 925 l 199 921 l 208 911 l 208 910 l 209 903 l 210 901 l 206 906 l 202 909 l 197 911 l 191 913 l 191 913 m 218 882 l 209 892 l 202 898 l 197 906 l 203 903 l 210 898 l 214 894 l 220 887 l 222 876 l 218 882 l 218 882 m 224 898 l 221 903 l 214 911 l 213 913 l 209 925 l 206 933 l 206 941 l 210 954 l 214 963 l 214 952 l 216 940 l 217 936 l 220 925 l 222 918 l 224 916 l 225 913 l 225 906 l 227 894 l 227 888 l 225 891 l 224 898 l 224 898 m 225 833 l 227 837 l 228 837 l 225 833 l 225 833 m 233 861 l 232 865 l 233 865 l 233 879 l 236 860 q 234 861 235 860 q 233 861 233 861 l 233 861 m 237 875 l 235 898 l 233 903 l 231 920 l 231 925 l 228 937 l 227 943 l 231 937 l 233 933 l 236 928 l 237 917 l 239 898 l 237 875 l 237 875 m 1313 692 l 1317 692 l 1324 689 l 1329 686 l 1332 686 l 1321 686 l 1313 684 l 1312 684 l 1306 681 l 1305 681 l 1302 681 l 1297 678 l 1289 670 l 1286 666 l 1278 667 l 1272 667 l 1264 669 l 1261 669 l 1256 670 l 1257 671 l 1261 675 l 1265 681 l 1270 684 l 1275 686 l 1280 689 l 1283 690 l 1290 692 l 1294 693 l 1305 693 l 1313 692 l 1313 692 m 1286 708 l 1293 708 l 1298 707 l 1303 703 l 1309 699 l 1310 697 l 1299 697 l 1286 696 l 1283 694 l 1280 694 l 1276 693 l 1267 689 l 1264 686 l 1261 686 l 1261 685 l 1257 681 l 1256 680 l 1253 674 l 1251 670 l 1227 674 l 1222 675 l 1221 675 l 1227 680 l 1229 681 l 1246 692 l 1255 697 l 1267 704 l 1274 707 l 1280 708 l 1286 708 l 1286 708 m 1256 715 l 1263 716 l 1268 716 l 1276 715 l 1283 713 l 1282 713 l 1271 711 l 1265 708 l 1255 703 l 1245 697 l 1237 692 l 1232 688 l 1219 680 l 1215 675 l 1213 674 l 1185 677 l 1185 678 l 1206 692 l 1213 697 l 1226 705 l 1241 712 l 1249 713 l 1256 715 l 1256 715 m 1150 736 l 1158 738 l 1168 738 l 1176 736 l 1184 735 l 1185 734 l 1176 730 l 1153 719 l 1130 707 l 1109 694 l 1103 689 l 1101 688 l 1069 692 l 1077 699 l 1090 709 l 1107 720 l 1123 730 l 1131 732 l 1141 735 l 1150 736 l 1150 736 m 1114 745 l 1118 745 l 1126 743 l 1137 741 l 1138 741 l 1130 736 l 1115 730 l 1107 726 l 1100 722 l 1088 713 l 1074 701 l 1070 697 l 1063 693 l 1063 694 l 1023 697 l 1024 697 l 1034 708 l 1046 722 l 1053 727 l 1067 735 l 1076 739 l 1081 741 l 1090 743 l 1100 745 l 1114 745 l 1114 745 m 1061 766 l 1066 768 l 1074 768 l 1082 765 l 1092 761 l 1100 754 l 1104 750 l 1099 750 l 1090 749 l 1082 746 l 1080 746 l 1078 746 l 1073 743 l 1066 741 l 1061 738 l 1055 735 l 1048 730 l 1035 719 l 1028 713 l 1023 705 l 1021 703 l 1017 697 l 996 701 l 986 703 l 1005 724 l 1017 739 l 1025 746 l 1031 750 l 1042 757 l 1055 764 l 1061 766 l 1061 766 m 1035 773 l 1042 773 l 1048 773 l 1054 772 l 1055 769 l 1050 768 l 1042 762 l 1034 757 l 1025 751 l 1015 741 l 1009 734 l 1001 727 l 996 720 l 979 701 l 952 704 l 955 705 l 966 715 l 990 741 l 1002 751 l 1019 764 l 1031 770 l 1035 773 l 1035 773 m 1005 779 l 1012 779 l 1012 779 l 1012 779 l 1019 779 l 1027 776 l 1028 774 l 1027 773 l 1019 769 l 1017 768 l 1009 764 l 1005 760 l 1001 757 l 997 754 l 991 750 l 987 745 l 978 735 l 963 719 l 952 708 l 947 705 l 922 708 l 913 709 l 929 730 l 937 741 l 947 749 l 955 757 l 960 761 l 967 765 l 974 769 l 975 769 l 982 773 l 983 773 l 985 774 l 991 777 l 1000 779 l 1005 779 l 1005 779 m 974 788 l 985 787 l 997 784 l 990 781 l 985 779 l 985 779 l 983 779 l 982 779 l 981 777 l 970 772 l 963 766 l 960 765 l 959 764 l 952 757 l 937 745 l 920 724 l 909 711 l 867 715 l 864 716 l 860 716 l 865 719 l 872 726 l 887 738 l 898 750 l 916 765 l 925 772 l 933 777 l 936 779 l 943 781 l 952 784 l 962 788 l 967 789 l 974 788 m 935 798 l 945 798 l 958 795 l 963 792 l 962 792 l 951 789 l 940 785 l 930 780 l 929 780 l 924 777 l 910 768 l 905 762 l 892 751 l 876 736 l 860 723 l 850 716 l 841 716 l 827 719 l 817 720 l 821 722 l 827 726 l 833 731 l 844 741 l 876 769 l 887 779 l 899 785 l 911 792 l 924 796 l 935 798 l 935 798 m 833 817 l 852 817 l 846 814 l 837 807 l 826 800 l 818 793 l 817 792 l 808 785 l 772 754 l 758 743 l 746 735 l 741 731 l 741 731 l 719 736 l 718 736 l 722 746 l 728 757 l 735 766 l 743 774 l 751 784 l 762 791 l 779 802 l 793 810 l 802 812 l 804 814 l 811 817 l 822 818 l 833 817 l 833 817 m 777 822 l 788 823 l 800 822 l 815 821 l 821 819 l 811 817 l 803 815 l 800 814 l 789 810 l 779 804 l 776 803 l 774 802 l 768 798 l 758 792 l 751 787 l 745 781 l 738 774 l 724 760 l 719 751 l 713 743 l 709 735 l 705 735 l 699 738 l 694 738 l 690 739 l 688 739 l 692 747 l 705 770 l 708 776 l 722 793 l 730 800 l 736 807 l 746 812 l 751 817 l 761 819 l 770 822 l 777 822 l 777 822 m 757 826 l 766 826 l 762 825 l 751 821 l 750 819 l 742 817 l 723 803 l 718 798 l 713 792 l 704 779 l 693 758 l 690 751 l 684 741 l 665 745 l 662 745 l 665 751 l 670 768 l 675 774 l 680 781 l 690 795 l 703 806 l 719 814 l 726 817 l 735 821 l 743 822 l 751 823 l 757 826 l 757 826 m 724 836 l 735 834 l 746 831 l 747 830 l 741 829 l 730 827 l 720 823 l 712 819 l 694 808 l 686 802 l 681 795 l 673 785 l 662 766 l 658 755 l 655 747 l 628 751 l 632 761 l 636 772 l 642 783 l 648 792 l 654 800 l 661 808 l 669 817 l 675 822 l 682 827 l 684 827 l 692 831 l 700 833 l 703 834 l 713 836 l 724 836 l 724 836 m 686 844 l 694 842 l 703 840 l 704 838 l 703 838 l 692 836 l 684 833 l 681 831 l 674 827 l 666 822 l 659 817 l 648 804 l 640 791 l 633 779 l 627 762 l 623 753 l 605 757 l 597 758 l 600 762 l 602 770 l 609 784 l 617 799 l 618 800 l 624 807 l 631 815 l 637 822 l 646 829 l 654 834 l 661 838 l 669 841 l 677 844 l 686 844 l 686 844 m 656 854 l 656 854 l 661 854 l 670 852 l 675 849 l 665 845 l 656 842 l 648 838 l 643 833 l 636 827 l 629 822 l 618 808 l 616 803 l 613 800 l 606 792 l 595 769 l 591 760 l 575 765 l 589 793 l 598 808 l 606 822 l 612 829 l 629 846 l 636 850 l 643 853 l 648 854 l 656 854 l 656 854 m 623 863 l 633 863 l 643 860 l 646 860 l 643 859 l 633 854 l 625 849 l 617 842 l 602 825 l 595 815 l 594 811 l 591 807 l 578 784 l 568 766 l 540 772 l 543 777 l 545 784 l 556 800 l 562 811 l 567 818 l 572 825 l 583 838 l 590 844 l 597 849 l 604 854 l 608 857 l 613 860 l 623 863 l 623 863 m 600 871 l 609 868 l 614 865 l 601 860 l 591 852 l 582 844 l 564 823 l 563 822 l 562 821 l 551 806 l 547 798 l 540 784 l 536 777 l 534 773 l 513 779 l 517 788 l 528 810 l 533 819 l 543 836 l 548 844 l 551 846 l 557 854 l 566 860 l 572 865 l 581 869 l 589 871 l 600 871 l 600 871 m 560 882 l 570 882 l 579 878 l 585 876 l 579 875 l 568 871 l 563 867 l 557 863 l 553 856 l 548 850 l 545 846 l 540 841 l 534 831 l 518 802 l 510 789 l 507 779 l 480 784 l 486 799 l 491 807 l 500 827 l 506 838 l 513 848 l 518 856 l 526 864 l 534 871 l 541 875 l 543 876 l 551 879 l 560 882 l 560 882 m 511 892 l 519 892 l 529 892 l 540 888 l 549 884 l 541 880 l 540 880 l 540 879 l 538 879 l 532 875 l 525 869 l 519 864 l 510 852 l 505 846 l 492 826 l 477 793 l 475 787 l 468 788 l 450 792 l 449 792 l 472 849 l 477 859 l 480 864 l 484 868 l 488 875 l 498 884 l 503 887 l 511 892 l 511 892 m 491 903 l 496 903 l 503 902 l 509 899 l 510 898 l 502 894 l 495 890 l 494 888 l 491 887 l 486 880 l 479 871 l 476 867 l 475 865 l 471 857 l 458 833 l 442 795 l 411 806 l 404 806 l 410 822 l 420 844 l 430 860 l 441 875 l 453 887 l 460 892 l 468 898 l 473 901 l 477 903 l 486 905 l 491 903 l 491 903 m 444 913 l 449 914 l 458 914 l 467 913 l 475 909 l 477 907 l 471 903 l 467 903 l 458 899 l 449 892 l 441 886 l 434 876 l 426 865 l 419 853 l 411 838 l 404 822 l 401 812 l 399 807 l 372 815 l 373 826 l 376 834 l 378 845 l 381 850 l 387 861 l 393 872 l 399 882 l 407 891 l 415 898 l 425 905 l 431 909 l 444 913 m 407 920 l 415 920 l 426 917 l 431 914 l 430 914 l 426 911 l 415 906 l 407 899 l 399 892 l 393 884 l 387 876 l 377 859 l 374 849 l 372 840 l 370 836 l 370 834 l 369 827 l 368 822 l 366 818 l 366 817 l 362 817 l 346 822 l 349 827 l 355 848 l 362 867 l 369 882 l 372 888 l 381 902 l 385 907 l 389 911 l 393 914 l 399 916 l 407 920 l 407 920 m 368 925 l 376 928 l 382 929 l 389 928 l 396 925 l 399 924 l 391 920 l 389 920 l 382 914 l 377 907 l 372 899 l 366 890 l 366 886 l 361 879 l 345 840 l 343 833 l 340 827 l 336 827 l 334 829 l 326 833 l 317 834 l 317 844 l 320 854 l 323 865 l 332 884 l 336 892 l 345 903 l 353 913 l 362 921 l 363 921 l 368 925 l 368 925 m 331 933 l 338 936 l 345 937 l 350 936 l 355 933 l 361 928 l 358 926 l 357 926 l 350 921 l 343 914 l 336 907 l 330 898 l 328 895 l 327 890 l 323 883 l 317 871 l 313 856 l 311 841 l 309 836 l 301 838 l 288 844 l 289 849 l 289 850 l 294 871 l 296 878 l 301 890 l 307 901 l 309 906 l 316 916 l 320 920 l 328 929 l 331 933 l 331 933 m 274 856 l 277 871 l 279 884 l 285 898 l 289 910 l 293 920 l 297 928 l 301 933 l 305 936 l 309 939 l 312 940 l 317 940 l 324 937 l 327 936 l 323 932 l 316 925 l 311 917 l 304 907 l 298 898 l 294 887 l 290 876 l 286 868 l 285 859 l 283 852 l 282 846 l 279 846 l 274 849 l 273 849 l 274 856 l 274 856 m 250 808 l 247 792 l 247 779 l 247 768 l 247 757 l 250 747 l 251 746 l 247 746 l 239 751 l 235 757 l 228 768 l 228 773 l 229 780 l 231 788 l 236 802 l 240 808 l 243 814 l 248 825 l 252 823 l 255 822 l 254 817 l 254 815 l 250 808 l 250 808 m 275 723 l 271 724 l 264 728 l 262 731 l 258 735 l 255 746 l 252 755 l 252 761 l 252 772 l 254 795 l 256 806 l 258 811 l 260 821 l 279 814 l 277 803 l 274 789 l 274 777 l 274 770 l 274 757 l 277 743 l 278 741 l 281 730 l 283 723 l 275 723 l 275 723 m 312 707 l 305 707 l 298 708 l 293 713 l 289 719 l 285 726 l 281 735 l 279 743 l 279 745 l 277 764 l 277 774 l 278 795 l 279 803 l 281 811 l 282 815 l 302 807 l 301 803 l 300 789 l 298 776 l 298 762 l 301 743 l 305 730 l 311 719 l 315 711 l 315 709 l 312 707 m 351 692 l 345 692 l 338 696 l 331 700 l 326 705 l 321 712 l 312 730 l 309 738 l 307 747 l 305 768 l 305 777 l 307 787 l 308 796 l 311 803 l 335 795 l 336 750 l 338 743 l 338 736 l 339 719 l 345 704 l 347 697 l 350 692 l 351 692 l 351 692 m 366 686 l 366 688 l 368 688 l 358 693 l 355 696 l 351 701 l 347 712 l 345 719 l 343 735 l 342 746 l 342 760 l 340 789 l 340 796 l 346 795 l 350 793 l 361 789 l 361 772 l 358 747 l 358 743 l 361 732 l 362 723 l 363 716 l 363 713 l 366 703 l 366 701 l 368 694 l 372 688 l 373 685 l 366 686 l 366 686 m 408 670 l 399 673 l 389 675 l 384 681 l 382 682 l 377 688 l 373 696 l 370 703 l 366 715 l 366 723 l 366 746 l 366 762 l 366 773 l 365 787 l 382 781 l 381 772 l 380 760 l 380 745 l 381 735 l 382 726 l 388 707 l 392 701 l 399 688 l 404 678 l 411 670 l 412 669 l 408 670 l 408 670 m 453 655 l 445 655 l 437 658 l 430 662 l 412 680 l 404 689 l 399 700 l 397 705 l 393 713 l 391 726 l 388 738 l 385 749 l 385 761 l 387 773 l 388 780 l 411 773 l 411 757 l 412 742 l 415 724 l 418 716 l 420 708 l 423 705 l 425 703 l 429 692 l 430 689 l 431 686 l 434 681 l 437 677 l 439 673 l 446 665 l 453 659 l 456 656 l 453 655 l 453 655 m 486 650 l 480 650 l 475 651 l 468 654 l 461 658 l 450 669 l 444 675 l 442 680 l 439 684 l 437 689 l 434 693 l 429 707 l 426 712 l 426 718 l 423 730 l 420 743 l 420 758 l 420 772 l 446 762 l 458 760 l 460 760 l 463 731 l 464 726 l 464 724 l 465 704 l 467 693 l 469 684 l 472 674 l 476 665 l 481 658 l 486 654 l 487 654 l 486 650 l 486 650 m 518 643 l 507 644 l 498 648 l 491 652 l 488 655 l 486 659 l 480 665 l 477 670 l 475 677 l 471 692 l 469 700 l 468 716 l 467 724 l 467 736 l 465 755 l 465 760 l 469 758 l 473 757 l 491 753 l 492 730 l 496 708 l 499 693 l 503 681 l 505 678 l 509 669 l 514 659 l 521 652 l 526 647 l 518 643 l 518 643 m 557 637 l 548 637 l 540 642 l 534 644 l 524 654 l 515 667 l 510 678 l 507 686 l 507 688 l 502 708 l 499 728 l 496 750 l 506 747 l 513 746 l 515 746 l 519 745 l 522 745 l 524 735 l 525 723 l 525 722 l 526 719 l 529 703 l 532 694 l 534 686 l 536 682 l 536 681 l 537 678 l 537 677 l 540 671 l 543 665 l 545 658 l 553 648 l 557 643 l 562 640 l 564 637 l 557 637 l 557 637 m 594 632 l 583 633 l 575 637 l 567 642 l 560 648 l 553 655 l 548 665 l 544 673 l 543 675 l 538 684 l 534 692 l 532 703 l 528 719 l 526 723 l 524 742 l 547 735 l 547 731 l 549 719 l 553 703 l 560 686 l 563 678 l 567 670 l 581 648 l 586 642 l 589 637 l 590 636 l 595 632 l 594 632 l 594 632 m 632 625 l 621 627 l 612 629 l 604 635 l 597 642 l 594 646 l 585 659 l 576 673 l 574 677 l 570 684 l 566 694 l 562 705 l 559 715 l 555 735 l 555 735 l 572 731 l 583 730 l 590 704 l 595 686 l 598 680 l 606 659 l 610 654 l 614 646 l 618 639 l 624 632 l 629 627 l 632 625 l 632 625 l 632 625 m 661 629 l 643 629 l 636 632 l 629 637 l 623 644 l 617 654 l 612 665 l 602 690 l 597 709 l 590 727 l 609 724 l 610 719 l 610 711 l 614 697 l 618 681 l 621 675 l 625 670 l 628 663 l 628 661 l 632 654 l 633 652 l 637 646 l 651 632 l 654 632 l 661 629 l 661 629 m 689 623 l 681 625 l 673 628 l 665 632 l 661 636 l 659 637 l 654 642 l 648 647 l 644 652 l 640 655 l 639 656 l 633 665 l 631 670 l 629 674 l 624 684 l 621 693 l 614 715 l 613 723 l 629 719 l 633 719 l 637 718 l 639 716 l 642 708 l 642 705 l 643 694 l 647 684 l 648 681 l 648 678 l 654 665 l 662 652 l 666 646 l 671 639 l 678 633 l 682 629 l 692 623 l 694 621 l 697 620 l 689 623 l 689 623 m 745 616 l 734 616 l 723 618 l 713 621 l 703 627 l 697 629 l 689 636 l 681 642 l 673 650 l 666 659 l 661 667 l 656 677 l 654 686 l 647 708 l 644 716 l 670 712 l 670 705 l 670 701 l 671 697 l 673 696 l 674 694 l 673 694 l 673 690 l 677 682 l 682 673 l 688 665 l 694 655 l 701 648 l 708 640 l 716 633 l 734 623 l 736 621 l 738 621 l 745 617 l 745 616 l 745 616 m 764 616 l 754 617 l 745 621 l 739 623 l 724 632 l 704 648 l 693 661 l 689 667 l 685 675 l 684 685 l 681 692 l 678 703 l 678 705 l 677 712 l 697 708 l 705 690 l 709 681 l 715 671 l 723 656 l 731 644 l 742 633 l 746 632 l 749 628 l 757 621 l 768 616 l 770 616 l 764 616 l 764 616 m 817 610 l 803 610 l 791 613 l 780 616 l 773 618 l 765 623 l 757 627 l 751 632 l 736 647 l 730 655 l 724 665 l 722 670 l 703 708 l 719 705 l 730 704 l 734 694 l 736 688 l 746 671 l 757 658 l 762 651 l 769 644 l 776 639 l 789 628 l 798 623 l 806 618 l 811 616 l 817 613 l 819 612 l 822 610 l 817 610 l 817 610 m 772 692 l 784 681 l 795 667 l 814 647 l 841 620 l 854 608 l 856 606 l 845 608 l 837 610 l 821 616 l 811 620 l 808 621 l 799 627 l 789 633 l 772 648 l 762 658 l 755 666 l 742 686 l 736 696 l 735 697 l 734 703 l 753 701 l 760 700 l 772 692 l 772 692 m 762 728 l 747 730 l 749 730 l 753 734 l 774 751 l 806 777 l 819 789 l 836 800 l 844 806 l 852 811 l 860 815 l 867 817 l 876 818 l 883 817 l 891 815 l 894 815 l 883 810 l 883 807 l 882 806 l 865 800 l 857 795 l 849 789 l 836 779 l 800 746 l 784 734 l 776 728 l 762 728 m 789 726 l 785 724 l 780 724 l 795 735 l 811 750 l 829 766 l 846 780 l 854 787 l 865 792 l 875 796 l 884 800 l 892 800 l 906 802 l 918 800 l 922 800 l 918 799 l 897 788 l 876 774 l 868 768 l 852 753 l 834 738 l 833 736 l 826 730 l 818 724 l 812 723 l 811 724 l 806 727 l 803 727 l 789 726 l 789 726 m 918 604 l 907 606 l 898 610 l 892 613 l 890 614 l 876 623 l 864 635 l 838 659 l 823 675 l 817 685 l 807 692 l 806 694 l 825 692 l 826 692 l 833 690 l 833 690 l 838 686 l 853 673 l 879 643 l 888 633 l 910 614 l 921 606 l 930 602 l 918 604 l 918 604 m 968 600 l 958 600 l 947 601 l 940 605 l 932 608 l 913 621 l 895 636 l 887 643 l 873 659 l 867 666 l 854 680 l 849 685 l 844 689 l 842 690 l 860 688 l 869 688 l 876 681 l 884 674 l 914 640 l 924 632 l 936 621 l 936 620 l 939 618 l 948 612 l 958 606 l 968 602 l 972 601 l 968 600 l 968 600 m 991 604 l 981 605 l 975 605 l 970 608 l 962 612 l 947 621 l 941 625 l 926 637 l 924 640 l 913 652 l 894 674 l 887 681 l 878 689 l 883 689 l 890 688 l 903 686 l 907 686 l 918 685 l 924 685 l 930 673 l 940 662 l 947 651 l 955 642 l 968 627 l 977 620 l 985 614 l 989 610 l 990 609 l 996 605 l 1001 604 l 991 604 l 991 604 m 1028 604 l 1021 604 l 1017 605 l 1017 605 l 1013 605 l 1008 606 l 1001 609 l 996 612 l 993 614 l 986 618 l 979 624 l 966 637 l 959 643 l 941 665 l 937 671 l 930 685 l 955 684 l 966 684 l 970 678 l 989 656 l 993 650 l 1001 639 l 1020 618 l 1036 605 l 1028 604 l 1028 604 m 1063 604 l 1058 602 l 1053 604 l 1046 605 l 1039 610 l 1034 616 l 1027 621 l 1020 629 l 1006 644 l 986 669 l 975 681 l 1001 680 l 1025 647 l 1028 643 l 1028 643 l 1029 640 l 1031 639 l 1040 627 l 1055 613 l 1063 608 l 1066 606 l 1063 604 l 1063 604 m 1114 608 l 1104 604 l 1096 601 l 1088 601 l 1081 602 l 1073 605 l 1069 606 l 1061 613 l 1044 627 l 1034 640 l 1028 647 l 1006 681 l 1020 684 l 1023 684 l 1029 680 l 1035 670 l 1047 654 l 1069 632 l 1074 627 l 1077 627 l 1080 624 l 1089 618 l 1092 617 l 1104 613 l 1109 610 l 1115 610 l 1116 610 l 1114 608 l 1114 608 m 1134 614 l 1116 616 l 1101 621 l 1093 624 l 1082 632 l 1069 642 l 1063 643 l 1058 648 l 1053 655 l 1040 670 l 1039 675 l 1072 671 l 1082 659 l 1101 640 l 1124 624 l 1133 618 l 1141 614 l 1142 613 l 1134 614 l 1134 614 m 1116 659 l 1123 654 l 1131 648 l 1150 633 l 1161 627 l 1171 620 l 1176 616 l 1183 612 l 1175 610 l 1158 613 l 1157 614 l 1147 618 l 1139 621 l 1126 631 l 1119 635 l 1100 650 l 1095 655 l 1080 671 l 1092 671 l 1105 670 l 1107 670 l 1112 665 l 1116 659 l 1116 659 m 1143 682 l 1134 684 l 1116 685 l 1109 686 l 1131 701 l 1153 713 l 1164 719 l 1175 724 l 1187 728 l 1196 731 l 1202 732 l 1207 734 l 1217 734 l 1223 732 l 1229 730 l 1232 726 l 1229 724 l 1223 723 l 1215 719 l 1210 716 l 1200 712 l 1171 696 l 1158 689 l 1143 682 l 1143 682 m 1171 690 l 1183 697 l 1192 703 l 1217 713 l 1227 719 l 1238 722 l 1244 723 l 1252 723 l 1251 722 l 1240 718 l 1223 708 l 1207 699 l 1187 686 l 1179 678 l 1164 681 l 1157 681 l 1171 690 m 1248 610 l 1244 610 l 1238 612 l 1233 614 l 1227 617 l 1225 618 l 1196 637 l 1177 650 l 1175 652 l 1166 656 l 1158 662 l 1154 669 l 1156 673 l 1161 673 l 1176 667 l 1180 663 l 1196 646 l 1211 633 l 1227 621 l 1236 616 l 1245 612 l 1249 610 l 1251 610 l 1253 610 l 1248 610 l 1248 610 m 1271 613 l 1261 613 l 1256 616 l 1251 616 l 1245 618 l 1240 621 l 1225 631 l 1206 644 l 1191 658 l 1185 662 l 1198 661 l 1217 659 l 1240 639 l 1256 625 l 1265 620 l 1275 616 l 1278 614 l 1271 613 m 1299 618 l 1294 617 l 1289 617 l 1283 618 l 1272 623 l 1267 627 l 1259 629 l 1246 639 l 1223 659 l 1236 659 l 1249 658 l 1251 655 l 1253 650 l 1255 648 l 1263 639 l 1268 635 l 1274 632 l 1276 631 l 1278 629 l 1279 628 l 1280 627 l 1287 624 l 1291 623 l 1301 621 l 1305 621 l 1299 618 l 1299 618 m 1294 644 l 1298 642 l 1303 637 l 1306 635 l 1316 631 l 1318 629 l 1328 627 l 1326 627 l 1321 628 l 1314 628 l 1310 627 l 1305 625 l 1301 625 l 1289 628 l 1282 632 l 1278 632 l 1272 636 l 1272 636 l 1261 644 l 1260 648 l 1259 650 l 1256 654 l 1256 654 l 1263 654 l 1283 652 l 1286 648 l 1289 644 l 1294 644 l 1294 644 m 1310 665 l 1308 665 l 1306 663 l 1305 663 l 1291 665 l 1297 670 l 1299 673 l 1306 675 l 1312 678 l 1321 681 l 1332 681 l 1336 681 l 1341 681 l 1348 678 l 1340 678 l 1335 677 l 1333 677 l 1331 675 l 1322 674 l 1318 671 l 1310 665 l 1310 665 m 1316 663 l 1335 670 l 1339 670 l 1344 671 l 1354 671 l 1356 670 l 1358 669 l 1359 665 l 1359 663 l 1354 663 l 1348 662 l 1332 658 l 1332 656 l 1316 659 l 1316 663 l 1316 663 m 1355 637 l 1354 635 l 1354 633 l 1351 633 l 1344 636 l 1337 639 l 1326 646 l 1316 654 l 1331 651 l 1354 639 l 1355 637 l 1356 637 l 1355 637 l 1355 637 m 1362 644 l 1360 643 l 1358 643 l 1350 646 l 1343 648 l 1356 648 l 1358 648 l 1363 647 l 1362 644 l 1362 644 m 1363 652 l 1358 654 l 1343 656 l 1354 659 l 1359 659 l 1362 658 l 1364 654 l 1363 652 m 160 532 l 80 315 l 137 315 l 152 358 l 233 358 l 248 315 l 307 315 l 227 532 l 160 532 l 160 532 m 165 401 l 193 480 l 220 401 l 165 401 m 442 486 q 427 484 434 486 q 415 480 420 483 q 404 472 408 476 q 391 464 399 468 l 391 477 l 336 477 l 336 260 l 391 260 l 391 324 q 397 319 391 321 q 410 316 404 317 q 420 313 414 315 q 431 312 426 312 q 446 314 439 312 q 460 317 453 316 q 473 325 467 320 q 484 335 479 330 q 492 347 488 340 q 500 362 496 354 q 505 380 503 370 q 507 399 507 389 q 503 435 507 419 q 490 461 498 450 q 469 479 480 472 q 442 486 458 486 l 442 486 m 442 362 q 430 353 438 355 q 411 350 422 350 q 406 351 408 350 q 400 351 404 351 q 394 352 397 351 q 391 354 391 353 l 391 437 q 395 440 391 438 q 404 442 400 442 q 412 444 408 444 q 420 445 416 445 q 435 442 429 445 q 446 434 442 439 q 452 420 450 429 q 453 399 453 411 q 450 378 453 387 q 442 362 448 369 l 442 362 m 675 472 q 650 482 666 479 q 612 486 633 486 q 592 485 602 486 q 572 483 582 484 q 556 480 562 481 q 543 477 551 479 l 543 434 l 552 434 q 562 437 556 434 q 574 442 567 441 q 589 446 582 445 q 602 448 595 448 q 620 447 613 448 q 632 444 627 446 q 640 436 639 441 q 640 426 640 431 l 640 425 q 621 422 632 423 q 598 420 609 422 q 579 416 587 418 q 563 410 571 414 q 551 402 556 407 q 541 392 545 397 q 536 379 537 387 q 534 362 534 372 q 538 342 534 351 q 551 326 543 332 q 568 315 559 319 q 589 312 578 312 q 599 313 594 312 q 608 313 604 313 q 616 316 612 315 q 624 319 620 317 q 629 322 627 320 q 633 327 631 324 q 640 331 637 330 q 642 334 642 332 l 642 315 l 696 315 l 696 429 q 690 454 694 444 q 675 472 686 465 l 675 472 m 640 359 q 636 355 640 357 q 628 350 632 353 q 621 348 624 349 q 613 347 617 347 q 604 347 608 347 q 600 349 601 347 q 595 350 597 349 q 591 353 593 351 q 589 356 590 354 q 587 359 587 358 q 586 363 586 361 q 586 368 586 365 q 587 375 586 372 q 590 381 587 378 q 595 385 593 384 q 602 388 598 387 q 608 390 605 389 q 618 392 612 391 l 639 393 l 639 359 l 640 359 m 830 486 q 812 485 821 486 q 795 481 803 484 q 778 475 785 479 q 764 467 770 472 q 751 454 757 461 q 742 438 746 448 q 736 420 738 430 q 735 399 735 410 q 736 378 735 388 q 742 361 738 369 q 751 346 746 353 q 762 334 757 339 q 777 323 769 327 q 795 317 785 320 q 813 313 803 315 q 833 312 823 312 q 849 313 841 312 q 864 315 857 313 q 877 319 871 316 q 891 324 883 321 l 891 369 l 882 369 q 879 366 880 369 q 876 362 878 363 q 871 359 873 361 q 867 355 869 358 q 861 353 864 354 q 854 350 859 353 q 846 349 850 350 q 836 349 841 349 q 817 351 825 349 q 803 361 808 354 q 794 376 798 366 q 791 396 791 385 q 793 416 791 407 q 802 433 796 426 q 815 443 807 439 q 834 446 823 446 q 844 446 840 446 q 850 444 848 445 q 857 441 854 444 q 864 438 860 439 q 869 434 867 437 q 875 430 872 431 q 879 429 878 429 q 882 420 880 429 l 890 420 l 890 469 q 876 475 882 473 q 863 480 869 477 q 848 484 856 483 q 830 486 840 486 l 830 486 m 1032 486 q 1017 484 1024 486 q 1004 480 1010 483 q 991 473 997 477 q 977 464 985 469 l 977 543 l 922 543 l 922 315 l 977 315 l 977 433 q 987 437 985 435 q 993 441 989 439 q 1000 441 997 441 q 1006 442 1004 442 q 1016 441 1012 442 q 1023 441 1020 441 q 1028 437 1025 439 q 1032 433 1031 435 q 1033 427 1034 430 q 1034 419 1032 423 q 1033 409 1034 414 q 1032 399 1032 404 l 1032 315 l 1086 315 l 1086 423 q 1084 450 1086 438 q 1073 469 1081 461 q 1055 481 1065 477 q 1032 486 1046 486 l 1032 486 m 1219 486 q 1181 480 1198 486 q 1152 463 1164 475 q 1133 434 1139 450 q 1126 397 1126 418 q 1133 361 1126 377 q 1153 334 1139 345 q 1185 316 1165 321 q 1229 311 1204 311 q 1249 311 1238 311 q 1267 313 1259 312 q 1281 317 1275 315 q 1303 324 1287 320 l 1303 368 l 1293 368 q 1281 358 1287 359 q 1267 355 1275 357 q 1251 350 1259 351 q 1234 349 1242 349 q 1212 351 1222 349 q 1195 359 1202 354 q 1184 372 1188 363 q 1180 389 1180 381 l 1302 389 l 1302 406 q 1297 439 1302 425 q 1280 464 1291 454 q 1255 481 1271 476 q 1219 486 1240 486 l 1219 486 m 1179 423 q 1181 437 1179 431 q 1190 448 1184 444 q 1200 453 1194 452 q 1214 454 1207 454 q 1228 453 1222 454 q 1238 448 1234 452 q 1244 437 1242 444 q 1246 423 1246 431 l 1179 423 z "},"":{"ha":1389,"x_min":19,"x_max":1369,"o":"m 1369 518 l 1364 524 l 1363 525 l 1363 529 l 1362 534 l 1359 537 l 1355 540 l 1351 544 l 1348 545 l 1343 547 l 1343 547 l 1337 551 l 1332 553 l 1326 556 l 1320 559 l 1318 559 l 1313 564 l 1306 568 l 1299 572 l 1294 574 l 1293 574 l 1286 578 l 1278 582 l 1272 583 l 1267 586 l 1261 589 l 1251 590 l 1245 590 l 1240 589 l 1236 594 l 1229 600 l 1218 601 l 1208 601 l 1198 600 l 1195 598 l 1187 601 l 1179 604 l 1169 605 l 1161 605 l 1153 604 l 1152 604 l 1131 610 l 1122 610 l 1115 610 l 1107 620 l 1097 627 l 1088 631 l 1080 632 l 1072 632 l 1066 632 l 1061 636 l 1050 640 l 1042 642 l 1035 640 l 1028 643 l 1012 646 l 1009 646 l 998 650 l 985 654 l 974 654 l 971 654 l 959 662 l 947 665 l 937 665 l 918 670 l 906 670 l 901 670 l 894 677 l 886 682 l 876 684 l 865 682 l 860 681 l 850 681 l 836 681 l 836 682 l 817 686 l 800 688 l 787 689 l 781 689 l 760 692 l 758 692 l 746 696 l 735 699 l 724 700 l 715 700 l 705 708 l 696 709 l 686 711 l 684 711 l 671 719 l 662 722 l 654 723 l 646 727 l 633 730 l 623 730 l 610 735 l 600 738 l 594 738 l 583 745 l 572 747 l 562 749 l 559 749 l 543 757 l 532 760 l 519 761 l 518 761 l 511 766 l 505 769 l 498 770 l 491 772 l 484 770 l 476 776 l 469 779 l 458 781 l 449 781 l 439 779 l 438 779 l 427 783 l 416 785 l 407 785 l 397 792 l 389 795 l 381 796 l 373 795 l 366 792 l 359 799 l 351 803 l 343 804 l 336 803 l 330 800 l 326 803 l 323 806 l 319 806 l 315 807 l 309 807 l 307 806 l 301 803 l 300 802 l 290 803 l 282 803 l 274 800 l 269 795 l 263 789 l 260 781 l 256 764 l 255 755 l 254 738 l 258 724 l 260 716 l 260 715 q 250 718 252 716 q 243 720 247 719 l 241 727 l 241 734 l 243 761 l 243 768 l 241 780 l 241 785 l 235 802 l 228 811 l 220 818 l 220 819 l 220 827 l 224 837 l 220 838 l 214 833 l 209 825 l 206 817 l 205 810 l 203 803 l 203 795 l 205 788 l 206 784 l 205 787 l 202 791 l 198 800 l 195 806 l 194 812 l 193 826 l 183 817 l 180 811 l 178 803 l 178 796 l 179 789 l 182 784 l 184 777 l 183 777 l 176 779 l 176 773 l 180 772 l 195 761 l 198 757 l 222 730 l 224 730 q 127 770 178 747 q 19 821 77 792 q 66 781 31 800 q 119 746 100 761 q 163 726 138 736 q 209 707 187 715 l 184 701 l 170 697 l 155 692 l 146 689 l 141 684 l 134 680 l 129 675 l 123 670 l 119 665 l 117 658 l 114 650 l 118 648 l 127 658 l 138 665 l 148 670 l 152 670 l 155 671 l 171 675 l 176 677 l 209 697 l 214 699 l 217 700 l 216 703 q 219 701 217 701 q 221 700 221 701 l 220 699 l 195 686 l 182 677 l 168 667 l 160 662 l 155 655 l 152 648 l 149 643 l 149 635 l 149 627 l 155 616 l 160 628 l 165 635 l 170 640 l 174 644 l 178 648 l 189 654 l 189 654 l 187 644 l 187 635 l 189 624 l 193 612 l 197 612 l 198 617 l 202 633 l 203 639 l 210 654 l 221 674 l 235 694 q 240 692 237 693 q 245 690 243 692 l 236 671 l 232 665 l 228 659 l 224 644 l 222 637 l 222 629 l 224 623 l 227 616 l 232 610 l 241 605 l 248 602 l 251 597 l 255 591 l 259 587 l 263 583 l 269 582 l 273 578 l 282 575 l 285 575 l 285 576 l 289 571 l 296 567 l 304 564 l 312 564 l 320 567 l 321 564 l 328 557 l 334 553 l 340 551 l 350 549 l 355 549 l 362 545 l 370 541 l 378 540 l 385 534 l 393 529 l 404 528 l 416 526 l 418 525 l 426 518 l 434 514 l 442 511 l 452 510 l 460 513 l 471 507 l 477 506 l 484 506 l 491 507 l 494 505 l 505 502 l 517 500 l 530 502 l 534 499 l 544 496 l 555 495 l 570 496 l 579 492 l 590 491 l 602 492 l 606 490 l 617 486 l 629 484 l 642 486 l 642 486 l 648 486 l 659 486 l 670 487 l 677 486 l 686 483 l 694 481 l 705 481 l 708 480 l 719 477 l 730 475 l 741 475 l 753 475 l 753 476 l 760 475 l 779 472 l 779 473 l 785 471 l 799 469 l 812 468 l 827 469 l 836 467 l 845 464 l 854 464 l 864 464 l 865 463 l 873 458 l 882 456 l 891 456 l 899 458 l 907 464 l 917 458 l 929 456 l 941 456 l 941 458 l 945 458 l 958 457 l 968 458 l 981 463 l 991 461 l 1005 461 l 1015 464 l 1021 463 l 1028 463 l 1044 464 l 1050 463 l 1057 461 l 1063 463 l 1069 465 l 1070 465 l 1078 461 l 1088 458 l 1096 458 l 1105 461 l 1115 467 l 1124 473 l 1131 473 l 1142 475 l 1150 475 l 1156 473 l 1173 471 l 1181 472 l 1191 475 l 1192 473 l 1202 471 l 1211 469 l 1219 469 l 1227 471 l 1233 475 l 1236 475 l 1241 472 l 1246 471 l 1252 471 l 1257 472 l 1261 475 l 1270 473 l 1278 475 l 1286 477 l 1294 477 l 1299 479 l 1306 481 l 1312 486 l 1318 486 l 1325 487 l 1331 490 l 1337 492 l 1344 492 l 1348 494 l 1348 495 l 1352 496 l 1355 498 l 1358 502 l 1359 505 l 1360 505 l 1364 509 l 1366 513 l 1367 513 l 1369 518 l 1369 518 m 187 689 l 174 681 l 168 680 l 160 678 l 145 673 l 134 667 l 125 661 l 123 659 l 127 667 l 133 673 l 144 681 l 156 688 l 171 692 l 198 699 l 187 689 l 187 689 m 1326 500 l 1336 495 l 1340 492 l 1341 491 l 1340 488 l 1337 488 l 1333 491 l 1332 491 l 1328 492 l 1317 496 l 1314 498 l 1306 502 l 1302 507 l 1299 507 l 1293 515 l 1305 514 l 1309 511 l 1313 507 l 1322 502 l 1326 500 l 1326 500 m 1308 538 l 1313 540 l 1321 543 l 1332 544 l 1337 544 l 1343 543 l 1348 540 l 1341 540 l 1336 540 l 1335 540 l 1332 538 l 1324 536 l 1313 530 l 1310 529 l 1309 529 l 1308 529 l 1294 530 l 1299 536 l 1302 538 l 1306 540 l 1308 538 l 1308 538 m 1363 514 l 1358 515 l 1343 518 l 1354 521 l 1359 521 l 1362 519 l 1364 517 l 1363 514 m 1359 526 l 1354 526 l 1348 525 l 1332 521 l 1332 519 l 1316 524 l 1317 524 l 1335 532 l 1339 533 l 1344 534 l 1354 534 l 1356 533 l 1358 530 l 1359 528 l 1359 526 m 1328 549 l 1331 548 l 1320 548 l 1312 545 l 1310 545 l 1305 544 l 1305 544 l 1301 543 l 1295 540 l 1291 537 l 1289 534 l 1286 530 l 1278 532 l 1272 532 l 1264 533 l 1261 533 l 1256 534 l 1257 536 l 1261 540 l 1265 545 l 1270 548 l 1275 551 l 1280 553 l 1283 555 l 1290 556 l 1294 557 l 1305 557 l 1313 556 l 1317 556 l 1324 553 l 1328 549 l 1328 549 m 1308 562 l 1298 562 l 1284 559 l 1282 557 l 1279 557 l 1275 556 l 1267 552 l 1263 551 l 1261 549 l 1260 548 l 1256 544 l 1256 543 l 1252 537 l 1251 534 l 1226 537 l 1221 538 l 1219 538 l 1226 543 l 1227 544 l 1245 556 l 1253 562 l 1267 567 l 1272 570 l 1286 572 l 1293 572 l 1298 571 l 1303 567 l 1308 562 l 1308 562 m 1280 575 l 1270 572 l 1264 571 l 1253 566 l 1244 559 l 1236 553 l 1230 551 l 1218 541 l 1214 538 l 1211 536 l 1184 540 l 1185 540 l 1204 555 l 1211 559 l 1225 567 l 1240 572 l 1248 575 l 1256 575 l 1263 574 l 1268 574 l 1276 575 l 1283 572 l 1280 575 m 1244 586 l 1259 586 l 1240 579 l 1230 576 l 1222 572 l 1206 562 l 1185 549 l 1177 541 l 1162 544 l 1156 545 l 1171 552 l 1183 559 l 1192 564 l 1217 576 l 1227 581 l 1238 583 l 1244 586 l 1244 586 m 1207 597 l 1217 597 l 1223 595 l 1229 593 l 1232 589 l 1229 589 l 1223 586 l 1215 583 l 1210 579 l 1200 575 l 1171 559 l 1145 545 l 1135 547 l 1118 548 l 1109 549 l 1133 564 l 1153 576 l 1165 582 l 1176 587 l 1188 591 l 1198 594 l 1202 595 l 1207 597 l 1207 597 m 1158 600 l 1168 600 l 1176 600 l 1184 597 l 1185 595 l 1176 593 l 1153 582 l 1130 568 l 1109 556 l 1103 551 l 1101 551 l 1069 553 l 1077 562 l 1090 572 l 1107 583 l 1123 591 l 1131 594 l 1149 600 l 1158 600 l 1158 600 m 1126 605 l 1137 604 l 1138 602 l 1130 600 l 1115 593 l 1107 589 l 1100 583 l 1088 575 l 1074 563 l 1070 559 l 1063 553 l 1023 559 l 1024 560 l 1034 571 l 1046 583 l 1053 589 l 1067 598 l 1076 601 l 1081 604 l 1090 605 l 1100 606 l 1116 606 l 1126 605 l 1126 605 m 1066 629 l 1074 629 l 1082 627 l 1092 623 l 1100 616 l 1104 612 l 1099 612 l 1090 610 l 1082 609 l 1080 608 l 1078 608 l 1073 605 l 1066 604 l 1061 600 l 1055 597 l 1048 593 l 1035 582 l 1028 575 l 1023 567 l 1021 564 l 1017 559 l 996 562 l 986 563 l 1005 586 l 1017 600 l 1025 606 l 1031 610 l 1042 618 l 1055 625 l 1061 627 l 1066 629 l 1066 629 m 1054 633 l 1055 632 l 1050 629 l 1042 625 l 1034 620 l 1025 613 l 1015 602 l 1009 595 l 1004 590 l 998 583 l 981 564 l 955 567 l 956 568 l 967 578 l 991 604 l 1004 614 l 1020 627 l 1032 633 l 1038 636 l 1044 637 l 1050 637 l 1054 633 l 1054 633 m 1019 640 l 1027 637 l 1028 637 l 1027 636 l 1019 632 l 1017 631 l 1009 627 l 1005 623 l 1001 621 l 997 617 l 991 613 l 987 606 l 978 597 l 963 582 l 952 570 l 947 566 l 922 571 l 913 572 l 929 593 l 937 602 l 947 610 l 955 618 l 960 623 l 967 627 l 974 632 l 975 632 l 982 635 l 983 636 l 985 637 l 991 639 l 1000 640 l 1006 642 l 1012 640 l 1012 642 l 1013 642 l 1019 640 l 1019 640 m 996 646 l 989 643 l 985 642 l 983 642 l 982 640 l 979 640 l 968 635 l 962 629 l 959 628 l 958 627 l 951 621 l 936 608 l 918 589 l 907 574 l 865 578 l 863 579 l 860 579 l 864 583 l 871 589 l 886 601 l 898 613 l 914 628 l 924 635 l 932 640 l 935 642 l 941 644 l 951 648 l 960 651 l 966 652 l 974 652 l 986 651 l 996 646 l 996 646 m 958 656 l 963 654 l 962 654 l 951 651 l 940 647 l 930 642 l 929 642 l 924 637 l 910 629 l 905 624 l 892 612 l 876 598 l 860 583 l 852 578 l 842 578 l 829 581 l 818 583 l 822 583 l 827 589 l 834 594 l 845 604 l 878 632 l 888 640 l 901 648 l 913 654 l 925 659 l 936 661 l 947 661 l 958 656 l 958 656 m 906 665 l 918 665 l 922 663 l 918 662 l 897 651 l 876 637 l 868 631 l 852 616 l 834 601 l 833 600 l 826 594 l 818 589 l 812 586 l 803 586 l 789 587 l 780 587 l 795 597 l 811 612 l 829 628 l 846 643 l 854 648 l 865 654 l 875 659 l 884 662 l 892 663 l 906 665 l 906 665 m 883 677 l 891 675 l 894 673 l 883 669 l 883 667 l 882 667 l 865 661 l 849 652 l 836 642 l 800 609 l 784 595 l 776 590 l 762 590 l 747 591 l 749 593 l 753 595 l 774 613 l 806 639 l 819 651 l 836 662 l 844 667 l 852 671 l 860 675 l 867 678 l 876 680 l 883 677 l 883 677 m 833 678 l 852 678 l 846 675 l 837 670 l 826 662 l 818 655 l 817 654 l 810 648 l 773 616 l 760 605 l 747 597 l 742 594 l 741 594 l 722 597 l 716 597 l 720 605 l 727 616 l 735 627 l 742 635 l 751 643 l 761 651 l 777 662 l 792 670 l 800 673 l 803 674 l 811 675 l 821 678 l 833 678 l 833 678 m 787 686 l 800 685 l 814 684 l 819 682 l 800 675 l 789 671 l 779 666 l 774 665 l 773 663 l 766 659 l 751 648 l 743 642 l 731 629 l 720 614 l 715 605 l 711 598 l 707 598 l 699 600 l 694 600 l 690 601 l 688 601 l 692 610 l 705 632 l 708 637 l 722 655 l 730 663 l 736 670 l 746 675 l 751 678 l 761 681 l 770 684 l 777 685 l 787 686 l 787 686 m 766 688 l 762 686 l 751 682 l 750 681 l 742 678 l 730 670 l 724 665 l 719 659 l 713 654 l 704 640 l 693 621 l 690 613 l 684 604 l 665 606 l 662 606 l 665 614 l 670 629 l 675 637 l 680 643 l 690 656 l 703 667 l 719 675 l 726 680 l 735 682 l 743 685 l 751 686 l 764 686 l 766 688 l 766 688 m 735 697 l 746 693 l 747 692 l 741 692 l 730 689 l 720 686 l 712 681 l 694 670 l 686 665 l 681 656 l 673 648 l 662 628 l 658 617 l 655 610 l 628 614 l 632 623 l 636 633 l 642 644 l 648 654 l 654 663 l 661 670 l 669 678 l 675 685 l 682 689 l 684 689 l 692 693 l 700 696 l 703 697 l 713 697 l 724 697 l 735 697 l 735 697 m 703 703 l 704 701 l 703 701 l 692 697 l 684 694 l 681 693 l 674 689 l 666 684 l 659 678 l 648 666 l 640 654 l 633 640 l 627 625 l 623 616 l 605 618 l 597 621 l 600 625 l 602 632 l 609 647 l 617 661 l 618 663 l 624 670 l 631 677 l 637 685 l 646 692 l 654 697 l 661 701 l 669 703 l 677 705 l 686 707 l 694 705 l 703 703 l 703 703 m 670 713 l 675 711 l 665 708 l 656 704 l 648 700 l 642 694 l 635 689 l 629 684 l 618 670 l 616 665 l 613 663 l 606 654 l 595 631 l 593 621 l 575 627 l 589 655 l 598 670 l 606 684 l 612 692 l 625 704 l 632 709 l 637 713 l 644 716 l 651 718 l 659 718 l 659 719 l 663 719 l 670 713 l 670 713 m 643 723 l 646 722 l 643 720 l 633 716 l 625 711 l 617 704 l 610 696 l 604 686 l 597 677 l 593 673 l 590 670 l 576 646 l 567 628 l 540 633 l 541 639 l 545 646 l 555 663 l 562 673 l 567 681 l 571 686 l 583 700 l 589 707 l 595 712 l 602 716 l 606 719 l 612 722 l 621 724 l 632 724 l 643 723 l 643 723 m 614 728 l 601 722 l 591 713 l 582 705 l 564 686 l 563 684 l 562 682 l 551 667 l 547 659 l 540 646 l 536 639 l 534 635 l 513 640 l 518 650 l 529 671 l 534 681 l 544 697 l 549 705 l 551 708 l 559 716 l 567 723 l 574 728 l 582 731 l 590 734 l 600 734 l 610 731 l 614 728 m 560 743 l 570 743 l 579 741 l 585 738 l 579 736 l 568 732 l 563 727 l 557 723 l 548 713 l 545 708 l 540 703 l 534 692 l 529 684 l 518 665 l 510 652 l 507 642 l 480 647 l 486 661 l 491 670 l 500 690 l 506 700 l 513 709 l 518 719 l 526 726 l 534 732 l 541 736 l 543 738 l 551 741 l 560 743 l 560 743 m 540 751 l 549 746 l 541 742 l 540 742 l 538 741 l 532 736 l 525 731 l 519 726 l 510 713 l 506 708 l 494 686 l 477 655 l 475 648 l 468 650 l 450 654 l 449 654 l 472 711 l 477 720 l 480 726 l 484 730 l 488 736 l 498 746 l 503 750 l 511 753 l 519 754 l 529 753 l 540 751 l 540 751 m 496 766 l 503 764 l 509 762 l 510 761 l 502 757 l 495 751 l 494 751 l 491 750 l 486 742 l 479 734 l 475 727 l 471 719 l 458 696 l 442 658 l 411 667 l 404 669 l 410 685 l 420 707 l 430 722 l 441 736 l 453 750 l 460 755 l 467 760 l 472 762 l 476 765 l 484 768 l 491 768 l 496 766 l 496 766 m 449 776 l 458 776 l 467 774 l 475 772 l 477 769 l 471 766 l 467 765 l 458 761 l 449 754 l 441 746 l 434 738 l 426 727 l 419 715 l 411 701 l 404 685 l 401 675 l 399 670 l 372 677 l 373 688 l 376 697 l 378 708 l 381 713 l 387 724 l 393 735 l 399 745 l 407 753 l 415 761 l 425 768 l 431 772 l 444 776 l 449 776 m 426 779 l 431 776 l 430 774 l 426 773 l 416 768 l 408 762 l 400 754 l 393 746 l 387 738 l 377 720 l 374 712 l 372 703 l 370 697 l 370 697 l 369 690 l 368 685 l 366 681 l 366 678 l 362 680 l 353 684 l 346 686 l 349 692 l 355 711 l 362 730 l 369 746 l 372 751 l 381 765 l 385 770 l 389 774 l 393 777 l 399 779 l 406 780 l 415 780 l 426 779 l 426 779 m 374 789 l 381 791 l 388 789 l 395 788 l 399 785 l 392 783 l 391 781 l 389 781 l 382 776 l 377 769 l 372 762 l 366 753 l 366 749 l 362 741 l 346 703 l 345 694 l 342 689 l 336 690 l 334 692 l 324 694 l 316 697 l 317 705 l 319 716 l 326 738 l 330 747 l 334 755 l 342 766 l 350 776 l 361 784 l 361 784 l 368 788 l 374 789 l 374 789 m 338 799 l 345 800 l 350 799 l 355 795 l 361 789 l 358 788 l 357 788 l 350 783 l 343 776 l 336 768 l 331 760 l 328 757 l 326 751 l 323 746 l 317 732 l 312 719 l 309 703 l 308 697 l 301 700 l 286 705 l 288 711 l 288 713 l 293 734 l 296 741 l 300 751 l 305 762 l 308 768 l 315 779 l 319 783 l 327 791 l 331 795 l 338 799 l 338 799 m 308 800 l 312 802 l 317 802 l 323 800 l 326 798 l 321 795 l 315 788 l 309 779 l 298 760 l 294 750 l 290 739 l 286 730 l 285 719 l 283 713 l 282 708 l 279 708 l 274 711 l 273 711 l 274 718 l 277 732 l 279 746 l 285 760 l 289 772 l 293 781 l 297 789 l 301 795 l 308 800 l 308 800 m 259 755 l 260 764 l 264 779 l 271 792 l 277 796 l 283 799 l 290 799 l 296 798 l 290 789 l 285 779 l 278 760 l 271 734 l 267 713 l 260 716 l 259 738 l 259 755 l 259 755 m 202 760 l 197 768 l 203 764 l 210 758 l 214 755 l 220 747 l 222 738 l 218 743 l 209 754 l 202 760 l 202 760 m 232 727 l 232 741 l 236 723 l 233 724 l 232 727 m 231 799 l 233 795 l 236 789 l 237 779 l 239 760 l 237 735 l 233 760 l 232 765 l 231 781 l 231 788 l 227 804 l 231 799 l 231 799 m 222 804 l 225 784 l 225 788 l 221 799 l 220 806 l 220 815 l 222 804 l 222 804 m 209 788 l 206 795 l 206 803 l 210 817 l 214 825 l 214 814 l 216 802 l 217 798 l 220 787 l 222 780 l 224 779 l 225 774 l 225 768 l 227 757 l 227 751 l 225 753 l 224 760 l 221 765 l 214 773 l 213 774 l 209 788 l 209 788 m 183 791 l 182 796 l 182 803 l 183 808 l 187 814 l 187 815 l 187 811 l 189 804 l 191 798 l 197 787 l 199 783 l 208 773 l 208 772 l 209 764 l 210 762 l 206 768 l 201 770 l 195 773 l 191 774 l 186 785 l 183 791 l 183 791 m 174 652 l 165 643 l 160 637 l 156 632 l 155 628 l 155 629 l 153 636 l 155 642 l 156 647 l 160 652 l 164 658 l 170 663 l 182 673 l 197 681 l 218 693 l 217 690 l 209 685 l 203 681 l 195 673 l 193 667 l 190 662 l 174 652 l 174 652 m 212 681 l 206 674 l 198 667 l 199 670 l 203 674 l 208 678 l 212 681 l 212 681 m 220 682 l 208 662 l 198 642 l 193 625 l 193 624 l 190 635 l 190 643 l 191 651 l 193 658 l 199 662 l 209 670 l 220 682 l 221 686 l 222 688 l 220 682 l 220 682 m 225 696 l 227 699 l 228 699 l 225 696 l 225 696 m 237 613 l 233 618 l 231 624 l 228 629 l 228 636 l 229 643 l 231 650 l 236 665 l 240 670 l 243 675 l 248 686 l 252 686 l 255 685 l 254 678 l 254 677 l 250 670 l 247 655 l 245 643 l 245 631 l 247 620 l 248 610 l 250 609 l 245 610 l 237 613 l 237 613 m 275 583 l 266 590 l 263 594 l 259 598 l 256 608 l 252 618 l 251 624 l 251 635 l 252 658 l 255 669 l 258 675 l 259 684 l 279 677 l 275 666 l 274 654 l 273 640 l 273 633 l 274 621 l 275 606 l 277 604 l 279 593 l 282 586 l 275 583 l 275 583 m 317 570 l 312 568 l 305 568 l 298 571 l 294 575 l 290 581 l 285 589 l 281 605 l 281 606 l 279 627 l 279 637 l 279 656 l 281 665 l 283 673 l 285 677 l 305 670 l 304 665 l 301 651 l 300 637 l 300 624 l 302 605 l 307 591 l 312 579 l 316 572 l 317 570 l 317 570 m 351 553 l 345 555 l 338 557 l 331 562 l 326 567 l 321 572 l 312 590 l 309 600 l 307 610 l 305 629 l 305 639 l 307 648 l 308 659 l 311 665 l 335 658 l 336 612 l 338 605 l 338 600 l 339 582 l 345 567 l 347 560 l 350 555 l 351 553 m 366 549 l 366 551 l 368 551 l 358 556 l 355 557 l 351 563 l 347 574 l 345 582 l 343 597 l 342 608 l 342 621 l 340 651 l 340 658 l 346 655 l 350 654 l 361 651 l 361 632 l 358 609 l 358 605 l 361 594 l 362 583 l 363 578 l 363 574 l 366 564 l 366 562 l 368 556 l 372 549 l 373 545 l 366 549 l 366 549 m 408 533 l 399 534 l 389 538 l 384 543 l 382 545 l 377 551 l 373 557 l 372 564 l 368 576 l 366 583 l 366 608 l 368 624 l 368 633 l 366 648 l 384 643 l 382 632 l 381 621 l 381 605 l 382 597 l 382 587 l 389 567 l 393 562 l 399 549 l 406 540 l 412 530 l 414 529 l 408 533 l 408 533 m 453 518 l 445 518 l 437 521 l 430 525 l 423 529 l 420 532 l 412 541 l 404 551 l 399 562 l 396 567 l 393 575 l 389 587 l 388 600 l 387 610 l 387 623 l 388 635 l 388 643 l 412 635 l 412 620 l 414 605 l 416 587 l 419 578 l 422 570 l 423 568 l 425 566 l 429 555 l 430 552 l 431 549 l 434 545 l 437 540 l 439 536 l 446 529 l 453 522 l 456 519 l 453 518 l 453 518 m 486 513 l 480 513 l 475 513 l 468 515 l 461 519 l 456 524 l 450 529 l 444 537 l 442 540 l 439 545 l 437 551 l 434 556 l 429 568 l 426 575 l 426 581 l 423 593 l 420 606 l 420 621 l 420 635 l 446 627 l 458 623 l 460 623 l 463 594 l 464 589 l 464 589 l 465 567 l 467 556 l 469 547 l 472 537 l 476 529 l 481 521 l 486 518 l 487 517 l 486 513 l 486 513 m 507 507 l 498 510 l 491 514 l 488 518 l 486 522 l 480 528 l 477 533 l 475 540 l 471 555 l 469 562 l 468 578 l 467 586 l 467 600 l 465 617 l 465 621 l 469 621 l 473 620 l 491 616 l 492 593 l 496 570 l 499 556 l 503 543 l 505 540 l 509 530 l 514 522 l 521 514 l 526 509 l 518 509 l 507 507 l 507 507 m 557 499 l 548 500 l 540 503 l 534 507 l 524 517 l 515 529 l 510 540 l 507 549 l 507 551 l 502 570 l 499 590 l 496 612 l 506 610 l 513 608 l 515 608 l 519 606 l 522 606 l 521 597 l 524 585 l 524 583 l 524 581 l 528 566 l 529 556 l 533 548 l 534 545 l 534 544 l 534 540 l 534 540 l 537 534 l 540 526 l 544 519 l 551 510 l 556 506 l 560 502 l 562 500 l 557 499 l 557 499 m 594 495 l 583 496 l 575 499 l 567 503 l 560 510 l 553 518 l 548 526 l 544 534 l 543 538 l 536 553 l 533 564 l 529 581 l 528 585 l 524 605 l 548 598 l 548 594 l 551 581 l 555 566 l 562 549 l 564 540 l 568 532 l 582 510 l 587 503 l 589 500 l 591 498 l 597 494 l 594 495 l 594 495 m 632 487 l 621 488 l 612 491 l 604 496 l 597 503 l 594 507 l 583 521 l 574 534 l 568 545 l 564 556 l 562 567 l 557 578 l 555 597 l 555 598 l 572 594 l 583 591 l 590 567 l 595 549 l 598 541 l 606 522 l 610 515 l 614 507 l 618 502 l 624 495 l 629 490 l 632 487 l 632 487 l 632 487 m 661 488 l 651 488 l 643 490 l 636 492 l 628 499 l 621 506 l 616 514 l 610 525 l 601 551 l 595 571 l 591 590 l 608 586 l 609 581 l 610 572 l 613 559 l 617 544 l 621 537 l 624 532 l 627 525 l 627 524 l 632 517 l 632 514 l 637 507 l 650 495 l 652 494 l 659 490 l 661 488 l 661 488 m 689 486 l 681 487 l 673 491 l 665 495 l 661 498 l 659 499 l 654 503 l 648 509 l 644 514 l 640 518 l 639 518 l 633 526 l 631 533 l 629 536 l 625 545 l 621 555 l 616 576 l 614 583 l 631 581 l 635 579 l 637 578 l 640 578 l 643 568 l 643 567 l 644 556 l 648 545 l 648 543 l 650 540 l 655 526 l 663 513 l 667 507 l 673 500 l 680 495 l 684 491 l 692 484 l 696 481 l 689 486 l 689 486 m 745 477 l 734 479 l 723 480 l 713 484 l 703 488 l 697 491 l 689 498 l 681 503 l 673 513 l 666 521 l 661 529 l 656 540 l 654 548 l 647 570 l 644 578 l 670 574 l 670 567 l 670 563 l 671 560 l 675 553 l 673 553 l 673 552 l 677 545 l 682 534 l 688 526 l 694 518 l 701 510 l 708 502 l 716 496 l 734 486 l 736 483 l 738 483 l 745 480 l 745 477 l 745 477 m 754 480 l 745 483 l 739 486 l 724 494 l 704 510 l 693 524 l 692 532 l 686 540 l 684 547 l 681 553 l 680 559 l 677 564 l 677 567 l 675 572 l 697 570 l 704 551 l 708 541 l 713 533 l 722 518 l 730 506 l 741 495 l 745 492 l 747 490 l 757 483 l 766 477 l 769 476 l 764 477 l 754 480 l 754 480 m 817 472 l 803 473 l 791 475 l 780 479 l 774 480 l 766 486 l 758 490 l 751 495 l 749 496 l 736 509 l 730 518 l 724 526 l 720 532 l 703 570 l 719 567 l 728 567 l 732 556 l 735 551 l 746 534 l 757 519 l 762 513 l 768 507 l 774 502 l 789 491 l 796 486 l 804 480 l 810 479 l 815 475 l 818 475 l 821 473 l 817 472 l 817 472 m 845 469 l 837 472 l 821 477 l 811 481 l 808 484 l 799 490 l 789 496 l 772 511 l 762 519 l 755 529 l 749 537 l 742 547 l 736 556 l 735 557 l 734 564 l 753 562 l 760 562 l 772 551 l 784 540 l 795 528 l 814 507 l 841 480 l 854 468 l 856 467 l 845 469 l 845 469 m 898 460 l 890 456 l 882 456 l 875 460 l 865 465 l 857 472 l 840 487 l 840 488 l 803 529 l 784 549 l 773 559 l 769 562 l 773 562 l 796 557 l 811 545 l 833 524 l 852 503 l 860 496 l 868 488 l 886 475 l 901 468 l 902 467 l 898 460 l 898 460 m 918 465 l 907 469 l 898 473 l 892 475 l 890 476 l 876 486 l 864 496 l 838 522 l 823 538 l 817 547 l 807 555 l 806 556 l 825 555 l 826 555 l 833 552 l 833 552 l 838 549 l 853 534 l 879 506 l 888 496 l 910 476 l 921 469 l 930 464 l 918 465 l 918 465 m 968 463 l 958 461 l 947 464 l 940 467 l 932 471 l 913 484 l 895 499 l 873 521 l 867 529 l 854 543 l 849 548 l 844 552 l 842 553 l 860 551 l 869 551 l 876 545 l 884 537 l 914 503 l 924 495 l 936 484 l 936 483 l 939 481 l 948 475 l 958 469 l 968 465 l 972 464 l 968 463 l 968 463 m 991 465 l 981 467 l 975 468 l 970 469 l 962 475 l 952 477 l 945 481 l 940 486 l 925 498 l 922 502 l 911 513 l 892 534 l 887 541 l 876 551 l 882 551 l 888 549 l 903 548 l 906 545 l 917 544 l 920 544 l 922 545 l 930 534 l 939 524 l 954 503 l 968 488 l 975 481 l 983 476 l 987 473 l 990 471 l 996 468 l 1000 465 l 991 465 l 991 465 m 1028 465 l 1021 465 l 1017 467 l 1017 468 l 1013 468 l 1008 469 l 1001 471 l 996 475 l 993 476 l 987 480 l 981 486 l 966 499 l 959 506 l 941 528 l 937 534 l 930 545 l 955 543 l 966 543 l 970 538 l 989 518 l 1001 502 l 1020 480 l 1036 467 l 1028 465 l 1028 465 m 1066 467 l 1063 465 l 1058 464 l 1053 465 l 1046 468 l 1039 472 l 1034 477 l 1027 484 l 1020 491 l 1006 507 l 986 530 l 975 544 l 1001 541 l 1025 509 l 1028 506 l 1028 505 l 1029 502 l 1031 502 l 1040 490 l 1055 475 l 1063 469 l 1066 467 l 1066 467 m 1114 469 l 1104 465 l 1096 464 l 1088 464 l 1081 464 l 1073 467 l 1069 469 l 1061 475 l 1044 490 l 1034 502 l 1006 541 l 1020 543 l 1023 543 l 1029 540 l 1035 530 l 1047 514 l 1069 492 l 1074 488 l 1077 487 l 1080 486 l 1089 480 l 1092 479 l 1104 475 l 1109 472 l 1115 471 l 1116 471 l 1114 469 l 1114 469 m 1124 476 l 1115 477 l 1100 481 l 1093 486 l 1081 492 l 1072 499 l 1066 502 l 1058 511 l 1053 518 l 1040 533 l 1039 537 l 1072 534 l 1082 522 l 1101 502 l 1124 486 l 1133 480 l 1141 476 l 1142 475 l 1134 475 l 1124 476 l 1124 476 m 1175 473 l 1158 475 l 1157 476 l 1147 480 l 1139 484 l 1126 492 l 1119 496 l 1100 513 l 1095 518 l 1080 534 l 1092 534 l 1105 533 l 1107 533 l 1116 524 l 1123 518 l 1131 511 l 1150 496 l 1161 490 l 1171 483 l 1176 480 l 1183 475 l 1175 473 l 1175 473 m 1226 469 l 1221 467 l 1213 467 l 1204 469 l 1195 475 l 1175 486 l 1165 491 l 1115 530 l 1143 529 l 1152 524 l 1156 522 l 1192 496 l 1198 492 l 1221 477 l 1225 475 l 1227 472 l 1226 469 l 1226 469 m 1248 472 l 1244 473 l 1238 475 l 1233 476 l 1227 480 l 1225 480 l 1196 500 l 1177 513 l 1175 514 l 1166 518 l 1158 524 l 1154 529 l 1156 532 l 1161 532 l 1176 529 l 1180 525 l 1196 509 l 1211 496 l 1227 486 l 1236 480 l 1245 476 l 1249 475 l 1251 475 l 1253 475 l 1248 472 l 1248 472 m 1271 475 l 1261 475 l 1256 476 l 1251 477 l 1245 480 l 1240 483 l 1225 491 l 1206 506 l 1191 518 l 1185 524 l 1198 522 l 1217 521 l 1240 500 l 1256 486 l 1265 480 l 1275 476 l 1278 475 l 1271 475 l 1271 475 m 1299 480 l 1294 479 l 1289 479 l 1283 480 l 1272 484 l 1267 487 l 1261 491 l 1249 502 l 1226 522 l 1237 521 l 1251 519 l 1251 518 l 1255 513 l 1256 510 l 1264 502 l 1270 496 l 1275 494 l 1278 492 l 1278 491 l 1280 491 l 1282 490 l 1289 486 l 1293 486 l 1302 483 l 1305 483 l 1299 480 l 1299 480 m 1326 488 l 1301 488 l 1289 491 l 1282 495 l 1278 496 l 1272 499 l 1272 499 l 1261 507 l 1260 511 l 1259 513 l 1256 517 l 1256 518 l 1263 517 l 1283 515 l 1286 513 l 1289 507 l 1297 500 l 1302 496 l 1305 494 l 1316 490 l 1317 488 l 1326 486 l 1326 488 l 1326 488 m 1355 499 l 1354 496 l 1354 496 l 1351 496 l 1344 498 l 1337 502 l 1326 507 l 1316 515 l 1331 513 l 1354 502 l 1355 500 l 1356 500 l 1355 499 l 1355 499 m 1362 507 l 1360 506 l 1358 506 l 1350 507 l 1343 511 l 1356 510 l 1358 510 l 1363 509 l 1362 507 l 1362 507 z "},"":{"ha":1389,"x_min":14,"x_max":1385,"o":"m 160 532 l 80 315 l 137 315 l 152 358 l 233 358 l 248 315 l 307 315 l 227 532 l 160 532 l 160 532 m 165 401 l 193 480 l 220 401 l 165 401 m 442 486 q 427 484 434 486 q 415 480 420 483 q 404 472 408 476 q 391 464 399 468 l 391 477 l 336 477 l 336 260 l 391 260 l 391 324 q 397 319 391 321 q 410 316 404 317 q 420 313 414 315 q 431 312 426 312 q 446 314 439 312 q 460 317 453 316 q 473 325 467 320 q 484 335 479 330 q 492 347 488 340 q 500 362 496 354 q 505 380 503 370 q 507 399 507 389 q 503 435 507 419 q 490 461 498 450 q 469 479 480 472 q 442 486 458 486 l 442 486 m 442 362 q 430 353 438 355 q 411 350 422 350 q 406 351 408 350 q 400 351 404 351 q 394 352 397 351 q 391 354 391 353 l 391 437 q 395 440 391 438 q 404 442 400 442 q 412 444 408 444 q 420 445 416 445 q 435 442 429 445 q 446 434 442 439 q 452 420 450 429 q 453 399 453 411 q 450 378 453 387 q 442 362 448 369 l 442 362 m 675 472 q 650 482 666 479 q 612 486 633 486 q 592 485 602 486 q 572 483 582 484 q 556 480 562 481 q 543 477 551 479 l 543 434 l 552 434 q 562 437 556 434 q 574 442 567 441 q 589 446 582 445 q 602 448 595 448 q 620 447 613 448 q 632 444 627 446 q 640 436 639 441 q 640 426 640 431 l 640 425 q 621 422 632 423 q 598 420 609 422 q 579 416 587 418 q 563 410 571 414 q 551 402 556 407 q 541 392 545 397 q 536 379 537 387 q 534 362 534 372 q 538 342 534 351 q 551 326 543 332 q 568 315 559 319 q 589 312 578 312 q 599 313 594 312 q 608 313 604 313 q 616 316 612 315 q 624 319 620 317 q 629 322 627 320 q 633 327 631 324 q 640 331 637 330 q 642 334 642 332 l 642 315 l 696 315 l 696 429 q 690 454 694 444 q 675 472 686 465 l 675 472 m 640 359 q 636 355 640 357 q 628 350 632 353 q 621 348 624 349 q 613 347 617 347 q 604 347 608 347 q 600 349 601 347 q 595 350 597 349 q 591 353 593 351 q 589 356 590 354 q 587 359 587 358 q 586 363 586 361 q 586 368 586 365 q 587 375 586 372 q 590 381 587 378 q 595 385 593 384 q 602 388 598 387 q 608 390 605 389 q 618 392 612 391 l 639 393 l 639 359 l 640 359 m 830 486 q 812 485 821 486 q 795 481 803 484 q 778 475 785 479 q 764 467 770 472 q 751 454 757 461 q 742 438 746 448 q 736 420 738 430 q 735 399 735 410 q 736 378 735 388 q 742 361 738 369 q 751 346 746 353 q 762 334 757 339 q 777 323 769 327 q 795 317 785 320 q 813 313 803 315 q 833 312 823 312 q 849 313 841 312 q 864 315 857 313 q 877 319 871 316 q 891 324 883 321 l 891 369 l 882 369 q 879 366 880 369 q 876 362 878 363 q 871 359 873 361 q 867 355 869 358 q 861 353 864 354 q 854 350 859 353 q 846 349 850 350 q 836 349 841 349 q 817 351 825 349 q 803 361 808 354 q 794 376 798 366 q 791 396 791 385 q 793 416 791 407 q 802 433 796 426 q 815 443 807 439 q 834 446 823 446 q 844 446 840 446 q 850 444 848 445 q 857 441 854 444 q 864 438 860 439 q 869 434 867 437 q 875 430 872 431 q 879 429 878 429 q 882 420 880 429 l 890 420 l 890 469 q 876 475 882 473 q 863 480 869 477 q 848 484 856 483 q 830 486 840 486 l 830 486 m 1032 486 q 1017 484 1024 486 q 1004 480 1010 483 q 991 473 997 477 q 977 464 985 469 l 977 543 l 922 543 l 922 315 l 977 315 l 977 433 q 987 437 985 435 q 993 441 989 439 q 1000 441 997 441 q 1006 442 1004 442 q 1016 441 1012 442 q 1023 441 1020 441 q 1028 437 1025 439 q 1032 433 1031 435 q 1033 427 1034 430 q 1034 419 1032 423 q 1033 409 1034 414 q 1032 399 1032 404 l 1032 315 l 1086 315 l 1086 423 q 1084 450 1086 438 q 1073 469 1081 461 q 1055 481 1065 477 q 1032 486 1046 486 l 1032 486 m 1219 486 q 1181 480 1198 486 q 1152 463 1164 475 q 1133 434 1139 450 q 1126 397 1126 418 q 1133 361 1126 377 q 1153 334 1139 345 q 1185 316 1165 321 q 1229 311 1204 311 q 1249 311 1238 311 q 1267 313 1259 312 q 1281 317 1275 315 q 1303 324 1287 320 l 1303 368 l 1293 368 q 1281 358 1287 359 q 1267 355 1275 357 q 1251 350 1259 351 q 1234 349 1242 349 q 1212 351 1222 349 q 1195 359 1202 354 q 1184 372 1188 363 q 1180 389 1180 381 l 1302 389 l 1302 406 q 1297 439 1302 425 q 1280 464 1291 454 q 1255 481 1271 476 q 1219 486 1240 486 l 1219 486 m 1179 423 q 1181 437 1179 431 q 1190 448 1184 444 q 1200 453 1194 452 q 1214 454 1207 454 q 1228 453 1222 454 q 1238 448 1234 452 q 1244 437 1242 444 q 1246 423 1246 431 l 1179 423 m 1381 669 l 1379 670 l 1379 674 l 1378 678 l 1375 681 l 1371 684 l 1370 684 l 1370 686 l 1363 690 l 1359 692 l 1356 692 l 1352 696 l 1347 699 l 1340 703 l 1333 704 l 1332 704 l 1326 711 l 1320 715 l 1313 719 l 1306 720 l 1305 720 l 1299 724 l 1290 728 l 1284 730 l 1279 734 l 1274 735 l 1263 738 l 1257 738 l 1251 736 l 1251 736 l 1245 743 l 1240 747 l 1230 750 l 1221 750 l 1210 747 l 1206 746 l 1196 750 l 1188 751 l 1160 751 l 1149 757 l 1139 760 l 1130 761 l 1123 761 l 1115 769 l 1104 776 l 1096 780 l 1088 783 l 1078 783 l 1074 779 l 1069 784 l 1062 787 l 1055 788 l 1048 787 l 1040 789 l 1034 792 l 1023 792 l 1010 796 l 997 800 l 985 800 l 983 800 l 970 808 l 958 811 l 947 811 l 928 817 l 916 817 l 910 817 l 903 825 l 894 830 l 884 833 l 875 831 l 868 829 l 860 830 l 840 830 l 840 833 l 825 836 l 810 838 l 795 838 l 789 838 l 789 838 l 768 841 l 768 841 l 755 846 l 743 849 l 732 850 l 724 850 l 712 854 l 703 857 l 692 857 l 680 865 l 670 869 l 662 871 l 654 875 l 640 876 l 628 876 l 616 882 l 605 884 l 600 884 l 586 891 l 575 894 l 564 895 l 562 894 l 562 894 l 547 903 l 534 907 l 524 909 l 524 909 l 515 914 l 509 917 l 502 920 l 495 920 l 487 920 l 479 925 l 471 929 l 461 930 l 453 930 l 442 928 l 441 926 l 430 932 l 419 936 l 410 936 l 400 941 l 393 944 l 384 944 l 377 943 l 369 941 l 368 941 l 361 948 l 354 952 l 346 954 l 339 952 l 332 949 l 330 951 l 327 952 l 320 955 l 312 955 l 309 954 l 304 951 l 302 949 l 293 952 l 285 952 l 277 949 l 270 944 l 266 939 l 263 930 l 259 922 l 258 914 l 256 905 l 255 887 l 256 868 l 256 865 q 248 868 252 867 q 239 871 244 869 l 239 876 l 240 882 l 241 897 l 241 909 l 241 922 l 240 929 l 237 940 l 236 945 l 233 949 l 227 958 l 220 963 l 222 954 l 225 941 l 225 936 l 227 929 l 228 924 l 224 936 l 220 947 l 220 951 l 217 964 l 217 968 l 218 977 l 220 979 l 221 987 l 220 987 l 214 981 l 208 966 l 206 959 l 206 944 l 209 929 l 208 930 l 201 939 l 194 955 l 193 963 l 193 974 l 184 967 l 182 960 l 179 954 l 179 947 l 180 941 l 182 935 l 187 925 l 184 924 l 178 925 l 176 922 l 182 920 l 186 917 l 197 909 l 199 905 l 205 898 l 220 883 l 224 879 l 225 876 q 129 918 179 895 q 19 968 79 940 l 14 971 l 16 967 q 45 939 24 954 q 85 913 65 925 q 104 901 95 907 q 119 891 113 895 q 163 869 138 880 q 210 849 187 859 l 209 849 l 187 845 l 171 842 l 156 837 l 149 833 l 141 831 l 134 827 l 129 822 l 123 817 l 119 811 l 117 806 l 114 798 l 117 796 l 126 806 l 138 815 l 145 818 l 149 819 l 153 821 l 160 822 l 168 823 l 175 826 l 189 833 l 202 842 l 208 845 l 212 848 l 214 849 l 221 846 l 195 833 l 182 825 l 174 819 l 160 808 l 155 802 l 152 796 l 149 789 l 149 784 l 149 776 l 155 766 l 160 777 l 164 784 l 168 789 l 172 793 l 176 796 l 187 803 l 191 806 l 187 792 l 187 783 l 189 772 l 193 760 l 194 760 l 197 772 l 199 783 l 202 788 l 206 798 l 212 807 l 220 822 l 232 842 q 239 840 236 841 q 245 838 241 838 l 236 821 l 232 814 l 229 806 l 228 799 l 225 791 l 225 784 l 225 776 l 225 769 l 229 762 l 235 757 l 241 753 l 251 750 l 254 743 l 258 738 l 263 734 l 267 730 l 271 728 l 275 727 l 286 727 l 286 726 l 290 719 l 297 713 l 305 711 l 313 711 l 323 713 l 331 704 l 338 700 l 345 697 l 354 696 l 361 696 l 366 692 l 374 688 l 382 686 l 389 681 l 399 675 l 410 674 l 420 673 l 423 673 l 431 666 l 439 662 l 448 659 l 456 658 l 465 659 l 476 654 l 483 654 l 490 654 l 496 654 l 499 652 l 510 648 l 522 648 l 536 648 l 540 647 l 551 643 l 562 643 l 576 643 l 578 643 l 587 640 l 598 639 l 610 640 l 614 637 l 625 632 l 636 632 l 648 632 l 648 633 l 654 632 l 665 632 l 677 633 l 685 632 l 693 632 l 703 632 l 713 631 l 718 628 l 728 625 l 739 623 l 751 621 l 762 623 l 762 624 l 769 621 l 789 620 l 789 621 l 808 614 l 822 610 l 838 614 l 838 616 l 840 616 l 849 613 l 859 612 l 868 612 l 869 610 l 878 605 l 887 600 l 901 600 l 909 605 l 917 610 l 926 610 l 939 610 l 952 610 l 952 610 l 955 608 l 967 605 l 979 606 l 990 612 l 1001 612 l 1015 610 l 1025 612 l 1032 610 l 1047 610 l 1057 612 l 1062 610 l 1069 609 l 1076 610 l 1082 613 l 1082 612 l 1092 610 l 1119 610 l 1127 614 l 1139 618 l 1157 618 l 1165 620 l 1171 617 l 1180 616 l 1188 614 l 1196 616 l 1207 617 l 1208 616 l 1218 612 l 1227 609 l 1236 609 l 1242 612 l 1248 617 l 1251 616 l 1261 614 l 1267 614 l 1272 616 l 1278 617 l 1286 616 l 1294 617 l 1302 621 l 1310 621 l 1316 621 l 1322 625 l 1328 629 l 1329 631 l 1336 629 l 1343 631 l 1348 629 l 1358 629 l 1362 632 l 1364 635 l 1366 637 l 1367 637 l 1370 637 l 1374 640 l 1375 646 l 1377 652 l 1379 652 l 1382 654 l 1383 656 l 1385 655 l 1385 665 l 1381 669 l 1381 669 m 227 842 l 224 840 l 225 845 l 229 844 l 227 842 m 232 873 l 231 876 l 228 880 l 228 906 l 229 914 l 231 914 l 233 898 l 236 880 l 239 872 q 235 873 236 872 q 232 873 233 873 l 232 873 z "},"":{"ha":1389,"x_min":14,"x_max":1385,"o":"m 1385 479 l 1381 484 l 1379 486 l 1379 490 l 1378 494 l 1375 496 l 1371 499 l 1370 499 l 1370 502 l 1363 506 l 1359 507 l 1356 507 l 1352 511 l 1347 514 l 1340 518 l 1333 519 l 1332 519 l 1326 526 l 1320 530 l 1313 534 l 1306 536 l 1305 536 l 1299 540 l 1290 544 l 1284 545 l 1279 549 l 1274 551 l 1263 553 l 1257 553 l 1251 552 l 1251 552 l 1245 559 l 1240 563 l 1230 566 l 1221 566 l 1210 563 l 1206 562 l 1196 566 l 1188 567 l 1160 567 l 1149 572 l 1139 575 l 1130 576 l 1123 576 l 1115 585 l 1104 591 l 1096 595 l 1088 598 l 1078 598 l 1074 594 l 1069 600 l 1062 602 l 1055 604 l 1048 602 l 1040 605 l 1034 608 l 1023 608 l 1010 612 l 997 616 l 985 616 l 983 616 l 970 624 l 958 627 l 947 627 l 928 632 l 916 632 l 910 632 l 903 640 l 894 646 l 884 648 l 875 647 l 868 644 l 860 646 l 840 646 l 840 648 l 825 651 l 810 654 l 795 654 l 789 654 l 789 654 l 768 656 l 768 656 l 755 662 l 743 665 l 732 666 l 724 666 l 712 670 l 703 673 l 692 673 l 680 681 l 670 685 l 662 686 l 654 690 l 640 692 l 628 692 l 616 697 l 605 700 l 600 700 l 586 707 l 575 709 l 564 711 l 562 709 l 562 709 l 547 719 l 534 723 l 524 724 l 524 724 l 515 730 l 509 732 l 502 735 l 495 735 l 487 735 l 479 741 l 471 745 l 461 746 l 453 746 l 442 743 l 441 742 l 430 747 l 419 751 l 410 751 l 400 757 l 393 760 l 384 760 l 377 758 l 369 757 l 368 757 l 361 764 l 354 768 l 346 769 l 339 768 l 332 765 l 330 766 l 327 768 l 320 770 l 312 770 l 309 769 l 304 766 l 302 765 l 293 768 l 285 768 l 277 765 l 270 760 l 266 754 l 263 746 l 259 738 l 258 730 l 256 720 l 255 703 l 256 684 l 256 681 q 248 684 252 682 q 239 686 244 685 l 239 692 l 240 697 l 241 712 l 241 724 l 241 738 l 240 745 l 237 755 l 236 761 l 233 765 l 227 773 l 220 779 l 222 769 l 225 757 l 225 751 l 227 745 l 228 739 l 224 751 l 220 762 l 220 766 l 217 780 l 217 784 l 218 792 l 220 795 l 221 803 l 220 803 l 214 796 l 208 781 l 206 774 l 206 760 l 209 745 l 208 746 l 201 754 l 194 770 l 193 779 l 193 789 l 184 783 l 182 776 l 179 769 l 179 762 l 180 757 l 182 750 l 187 741 l 184 739 l 178 741 l 176 738 l 182 735 l 186 732 l 197 724 l 199 720 l 205 713 l 220 699 l 224 694 l 225 692 q 129 733 179 711 q 19 784 79 755 l 14 787 l 16 783 q 45 755 24 769 q 85 728 65 741 q 104 717 95 723 q 119 707 113 711 q 163 685 138 696 q 210 665 187 674 l 209 665 l 187 661 l 171 658 l 156 652 l 149 648 l 141 647 l 134 643 l 129 637 l 123 632 l 119 627 l 117 621 l 114 613 l 117 612 l 126 621 l 138 631 l 145 633 l 149 635 l 153 636 l 160 637 l 168 639 l 175 642 l 189 648 l 202 658 l 208 661 l 212 663 l 214 665 l 221 662 l 195 648 l 182 640 l 174 635 l 160 624 l 155 617 l 152 612 l 149 605 l 149 600 l 149 591 l 155 582 l 160 593 l 164 600 l 168 605 l 172 609 l 176 612 l 187 618 l 191 621 l 187 608 l 187 598 l 189 587 l 193 575 l 194 575 l 197 587 l 199 598 l 202 604 l 206 613 l 212 623 l 220 637 l 232 658 q 239 655 236 656 q 245 654 241 654 l 236 636 l 232 629 l 229 621 l 228 614 l 225 606 l 225 600 l 225 591 l 225 585 l 229 578 l 235 572 l 241 568 l 251 566 l 254 559 l 258 553 l 263 549 l 267 545 l 271 544 l 275 543 l 286 543 l 286 541 l 290 534 l 297 529 l 305 526 l 313 526 l 323 529 l 331 519 l 338 515 l 345 513 l 354 511 l 361 511 l 366 507 l 374 503 l 382 502 l 389 496 l 399 491 l 410 490 l 420 488 l 423 488 l 431 481 l 439 477 l 448 475 l 456 473 l 465 475 l 476 469 l 483 469 l 490 469 l 496 469 l 499 468 l 510 464 l 522 464 l 536 464 l 540 463 l 551 458 l 562 458 l 576 458 l 578 458 l 587 456 l 598 454 l 610 456 l 614 453 l 625 448 l 636 448 l 648 448 l 648 449 l 654 448 l 665 448 l 677 449 l 685 448 l 693 448 l 703 448 l 713 446 l 718 444 l 728 441 l 739 438 l 751 437 l 762 438 l 762 439 l 769 437 l 789 435 l 789 437 l 808 430 l 822 426 l 838 430 l 838 431 l 840 431 l 849 429 l 859 427 l 868 427 l 869 426 l 878 420 l 887 415 l 901 415 l 909 420 l 917 426 l 926 426 l 939 426 l 952 426 l 952 426 l 955 423 l 967 420 l 979 422 l 990 427 l 1001 427 l 1015 426 l 1025 427 l 1032 426 l 1047 426 l 1057 427 l 1062 426 l 1069 425 l 1076 426 l 1082 429 l 1082 427 l 1092 426 l 1119 426 l 1127 430 l 1139 434 l 1157 434 l 1165 435 l 1171 433 l 1180 431 l 1188 430 l 1196 431 l 1207 433 l 1208 431 l 1218 427 l 1227 425 l 1236 425 l 1242 427 l 1248 433 l 1251 431 l 1261 430 l 1267 430 l 1272 431 l 1278 433 l 1286 431 l 1294 433 l 1302 437 l 1310 437 l 1316 437 l 1322 441 l 1328 445 l 1329 446 l 1336 445 l 1343 446 l 1348 445 l 1358 445 l 1362 448 l 1364 450 l 1366 453 l 1367 453 l 1370 453 l 1374 456 l 1375 461 l 1377 468 l 1379 468 l 1382 469 l 1383 472 l 1385 471 l 1385 479 l 1385 479 m 224 655 l 225 661 l 229 659 l 227 658 l 224 655 l 224 655 m 231 730 l 233 713 l 236 696 l 239 688 l 235 690 l 236 690 l 233 692 l 228 696 l 228 722 l 229 730 l 231 730 l 231 730 z "},"":{"ha":1389,"x_min":20,"x_max":1369,"o":"m 791 555 q 798 561 795 557 q 803 568 800 564 q 805 582 807 576 q 802 589 803 587 l 800 589 q 792 581 795 583 q 787 576 789 579 q 770 574 779 570 q 755 582 762 578 q 732 587 742 590 q 719 578 723 583 q 720 566 718 571 q 730 562 722 560 q 743 561 739 563 q 753 555 746 559 q 777 548 766 545 q 791 555 787 551 m 647 1088 q 616 1086 629 1088 q 591 1085 602 1085 q 572 1091 581 1085 q 560 1103 564 1097 q 548 1108 556 1107 q 534 1096 540 1109 q 536 1071 528 1082 q 552 1057 544 1059 q 564 1041 552 1057 q 586 1036 575 1025 q 605 1049 594 1044 q 658 1057 616 1054 q 682 1062 677 1058 q 686 1072 686 1066 q 675 1082 686 1077 q 647 1088 663 1088 l 647 1088 m 783 1139 q 774 1129 783 1134 q 751 1120 765 1124 q 749 1120 750 1120 q 749 1119 749 1119 q 749 1117 749 1118 q 751 1116 750 1116 q 764 1114 757 1115 q 779 1112 770 1114 q 817 1118 800 1111 q 834 1135 834 1124 q 819 1153 834 1146 q 779 1160 803 1160 l 776 1160 q 768 1161 772 1160 q 760 1161 764 1162 q 734 1157 746 1160 q 713 1150 722 1154 l 713 1150 q 713 1149 713 1149 q 713 1150 713 1150 q 719 1150 716 1150 q 724 1152 722 1150 q 765 1149 749 1153 q 783 1139 781 1146 l 783 1139 m 479 635 q 478 644 481 640 q 469 652 475 648 q 454 663 458 656 q 445 678 450 669 q 431 695 439 688 q 420 720 423 703 q 432 753 419 738 q 472 762 445 769 q 503 740 491 758 q 519 713 515 722 q 529 707 522 709 q 544 709 536 704 q 557 716 551 716 q 568 708 563 716 q 601 671 572 701 q 665 639 629 640 q 721 644 700 639 q 757 648 742 650 q 774 645 768 648 q 788 640 781 642 q 808 645 799 639 q 829 650 817 651 q 849 645 838 650 q 871 640 860 640 q 900 648 883 640 q 916 651 917 656 q 910 627 916 642 q 903 605 905 613 q 901 588 901 600 q 898 567 902 576 q 888 545 895 556 q 878 529 880 533 q 862 508 869 515 q 848 487 854 500 q 829 459 840 472 q 815 442 818 446 q 831 440 811 435 q 861 454 852 445 q 886 481 871 463 q 926 507 902 500 q 947 516 943 510 q 951 529 952 522 l 949 532 q 951 536 949 534 q 954 538 952 537 q 994 549 971 545 q 1042 553 1016 553 q 1071 552 1057 553 q 1099 547 1085 551 q 1156 670 1135 604 q 1176 808 1176 736 q 1138 996 1176 907 q 1036 1148 1101 1082 q 883 1251 970 1214 q 696 1289 795 1289 q 509 1251 595 1289 q 355 1148 420 1214 q 252 996 290 1082 q 214 808 214 907 q 221 732 214 769 q 240 654 228 694 l 274 654 q 316 659 296 654 q 354 674 336 665 q 363 678 358 677 q 373 680 368 680 q 394 675 385 680 q 410 661 403 670 q 419 647 414 652 q 431 637 425 642 q 443 631 435 633 q 460 629 450 629 q 471 628 465 627 q 479 635 477 629 l 479 635 m 315 948 q 366 990 323 978 q 472 996 410 1002 q 468 954 463 977 q 515 906 473 932 q 635 857 566 878 q 728 838 704 837 q 742 844 736 840 q 741 853 747 848 q 726 868 732 857 q 715 898 719 879 q 701 920 712 907 q 636 943 690 933 q 503 994 519 964 q 491 1042 487 1023 q 498 1076 491 1042 q 510 1126 506 1109 q 535 1166 514 1142 q 631 1175 556 1191 q 699 1173 674 1165 q 735 1183 723 1180 q 800 1185 768 1191 q 853 1158 833 1179 q 898 1083 873 1138 q 936 979 922 1028 q 942 941 943 955 q 939 920 941 928 q 933 907 936 913 q 922 887 930 902 q 922 883 921 886 q 926 883 924 880 q 957 909 949 895 q 968 936 964 924 q 1063 890 1029 921 q 1088 817 1096 860 q 1039 738 1078 769 q 939 692 998 707 q 806 682 879 678 q 656 708 732 686 q 519 761 585 730 q 406 824 453 791 q 332 890 358 857 q 315 948 308 924 m 81 141 l 79 141 l 77 195 l 20 195 q 22 158 22 179 q 23 111 23 137 l 22 -65 l 87 -65 l 87 68 q 87 79 87 73 q 90 88 88 84 q 108 124 94 110 q 145 138 122 138 q 157 138 151 138 q 163 136 163 137 l 163 198 q 159 198 163 198 q 149 198 155 198 q 110 186 129 198 q 81 141 91 174 l 81 141 m 311 199 q 216 157 248 199 q 183 61 183 114 q 218 -35 183 1 q 317 -71 254 -71 q 368 -66 346 -71 q 407 -54 391 -61 l 397 -9 q 366 -18 382 -15 q 326 -22 349 -22 q 271 -5 294 -22 q 245 46 247 11 l 418 46 q 420 58 419 50 q 420 73 420 65 q 397 158 420 117 q 311 199 373 199 m 247 87 q 262 130 248 111 q 307 149 275 149 q 350 130 339 149 q 361 87 361 111 l 247 87 l 247 87 m 705 293 l 640 312 l 640 163 l 637 163 q 610 189 628 179 q 564 198 591 198 q 483 161 518 198 q 448 60 448 125 q 480 -35 448 0 q 559 -71 513 -71 q 608 -58 586 -71 q 643 -22 631 -46 l 643 -22 l 647 -65 l 705 -65 q 705 -31 704 -49 q 705 8 705 -12 l 705 293 m 640 46 q 639 37 640 42 q 637 27 637 33 q 616 -7 632 5 q 579 -19 600 -19 q 531 4 548 -19 q 514 62 514 27 q 531 123 514 99 q 579 148 548 148 q 617 134 601 148 q 637 102 633 121 q 638 93 637 98 q 639 84 639 88 l 639 46 l 640 46 m 876 199 q 848 197 861 199 q 823 187 836 194 q 803 170 812 180 q 788 152 793 160 l 781 152 l 781 269 l 760 275 l 760 -65 l 781 -65 l 781 94 q 784 107 781 102 q 788 118 787 113 q 819 159 796 142 q 869 176 841 176 q 926 150 909 176 q 944 88 944 123 l 944 -65 l 966 -65 l 966 91 q 930 182 966 164 q 876 199 894 199 l 876 199 m 1194 98 q 1178 166 1194 133 q 1105 199 1162 199 q 1067 194 1088 199 q 1029 176 1047 189 l 1039 159 q 1070 173 1053 168 q 1104 178 1088 178 q 1161 149 1150 178 q 1172 102 1172 121 l 1172 95 q 1052 71 1090 96 q 1013 1 1013 46 q 1031 -49 1013 -24 q 1089 -73 1050 -73 q 1141 -56 1120 -73 q 1172 -31 1162 -39 l 1173 -31 l 1176 -64 l 1200 -64 q 1196 -33 1198 -47 q 1195 -3 1195 -18 l 1195 98 l 1194 98 m 1172 18 q 1171 10 1172 14 q 1169 3 1169 7 q 1143 -33 1162 -16 q 1092 -50 1124 -50 q 1056 -37 1072 -50 q 1040 4 1040 -24 q 1086 62 1040 50 q 1172 73 1131 75 l 1172 18 m 1367 174 l 1367 195 l 1291 195 l 1291 251 l 1270 241 l 1270 195 l 1226 195 l 1226 174 l 1270 174 l 1270 8 q 1274 -26 1270 -11 q 1287 -53 1278 -42 q 1306 -67 1294 -62 q 1332 -72 1318 -72 q 1353 -70 1344 -72 q 1369 -65 1362 -68 l 1364 -46 q 1352 -49 1360 -47 q 1332 -50 1343 -50 q 1301 -36 1312 -50 q 1291 3 1291 -22 l 1291 174 l 1367 174 l 1367 174 z "},"":{"ha":1389,"x_min":18,"x_max":1371,"o":"m 842 300 q 841 300 841 300 q 841 298 841 300 q 830 288 834 292 q 822 279 826 283 q 799 277 811 271 q 779 288 787 282 q 747 294 761 298 q 730 282 734 290 q 730 266 726 274 q 743 259 734 258 q 762 259 757 260 q 777 251 766 258 q 810 242 796 239 q 830 251 823 245 q 840 260 836 255 q 846 270 844 264 q 849 289 852 281 q 844 300 846 297 l 842 300 l 842 300 m 812 1118 l 808 1118 q 797 1116 803 1118 q 785 1114 791 1114 q 749 1106 766 1112 q 722 1095 732 1100 q 720 1095 720 1095 q 720 1096 720 1096 l 723 1097 l 735 1095 q 791 1093 768 1099 q 815 1077 814 1088 q 803 1063 815 1070 q 770 1050 791 1055 q 768 1049 769 1050 q 768 1047 768 1048 q 768 1045 768 1046 q 770 1044 769 1044 q 789 1040 779 1042 q 810 1039 799 1039 q 865 1049 842 1038 q 888 1077 888 1061 q 867 1104 890 1090 q 812 1118 845 1118 m 694 1283 q 431 1229 555 1283 q 216 1084 308 1176 q 71 869 123 993 q 18 606 18 746 q 26 494 18 549 q 53 391 35 439 l 100 391 q 159 397 130 391 q 213 416 189 404 q 226 422 220 420 q 240 423 232 423 q 269 416 255 423 q 290 396 282 410 q 304 375 297 382 q 320 362 311 368 q 337 355 327 358 q 361 351 347 351 q 376 354 368 351 q 388 363 385 357 q 387 378 391 372 q 373 388 382 384 q 354 401 359 393 q 340 423 349 410 q 321 447 334 437 q 307 481 309 457 q 323 528 305 506 q 378 541 342 551 q 422 509 406 534 q 446 473 439 484 q 459 463 449 468 q 480 468 469 458 q 498 476 490 476 q 514 464 507 476 q 561 412 521 454 q 650 368 601 369 q 730 374 700 366 q 783 382 761 382 q 806 376 798 381 q 825 369 815 370 q 852 375 840 366 q 882 382 865 384 q 911 376 897 382 q 941 370 925 370 q 981 381 956 370 q 1004 384 1005 392 q 995 351 1002 370 q 985 319 987 331 q 983 296 983 312 q 979 263 983 279 q 964 232 975 248 q 949 210 954 216 q 928 181 937 191 q 907 152 918 171 q 880 112 895 130 q 860 87 865 94 q 883 85 854 79 q 926 106 911 91 q 961 144 939 117 q 1019 179 983 171 q 1049 193 1043 184 q 1053 209 1055 201 q 1051 212 1051 210 q 1051 214 1051 213 q 1053 220 1051 217 q 1058 224 1055 222 q 1114 239 1082 233 q 1181 245 1146 245 q 1223 243 1203 245 q 1263 236 1244 240 q 1343 408 1314 315 q 1371 604 1371 502 q 1318 868 1371 745 q 1173 1084 1265 991 q 958 1229 1081 1176 q 694 1283 836 1283 l 694 1283 m 1245 618 q 1177 507 1233 552 q 1036 444 1120 464 q 848 429 952 423 q 637 467 745 434 q 445 541 536 496 q 286 631 353 585 q 183 724 218 678 q 157 806 148 770 q 230 865 170 848 q 378 872 290 882 q 374 813 366 845 q 439 746 381 781 q 609 676 511 705 q 739 650 707 647 q 759 656 751 651 q 755 670 766 662 q 735 692 745 677 q 719 732 726 707 q 700 764 716 746 q 608 798 684 783 q 421 869 444 829 q 404 936 399 910 q 414 984 404 936 q 431 1055 425 1032 q 466 1112 437 1077 q 601 1124 495 1147 q 697 1120 662 1111 q 749 1134 732 1130 q 841 1137 795 1145 q 914 1100 887 1128 q 979 993 944 1070 q 1032 846 1013 916 q 1041 793 1042 811 q 1035 762 1040 774 q 1028 746 1032 754 q 1012 718 1024 738 q 1011 711 1009 713 q 1017 711 1013 708 q 1059 747 1048 727 q 1076 784 1070 768 q 1209 722 1162 765 q 1245 618 1256 680 m 625 1004 q 582 1002 601 1004 q 548 1000 563 1000 q 522 1008 533 1000 q 505 1023 510 1016 q 488 1031 499 1029 q 469 1013 476 1032 q 471 978 461 994 q 494 959 481 962 q 510 937 494 959 q 541 930 526 914 q 568 949 552 943 q 643 960 583 956 q 677 968 670 963 q 682 981 684 974 q 665 996 681 989 q 625 1004 650 1004 l 625 1004 z "}}}
